<svg id="Capa_1" data-name="Capa 1" xmlns="http://www.w3.org/2000/svg" viewBox="0 0 1080 1080"><defs><style>.cls-1{fill:#f3b518;}</style></defs><path class="cls-1" d="M323.73,159.11h470a6.63,6.63,0,0,0,2,1c37,3.83,75.58,34.05,74.87,80.27-.79,52.17-.1,104.35-.3,156.52,0,5.27,1.52,9.07,5.9,12.86,26.38,22.81,52.31,46,78.71,68.82,7.93,6.84,11.71,14.3,11.6,24.22-.43,36-.17,72.06-.17,108.09,0,62.93.12,125.87,0,188.8-.1,35.15-24.58,64.69-61.47,74.78-5,1.38-10.14,2.46-15.22,3.68H227.82a6.66,6.66,0,0,0-2-1c-37.56-4.09-75.26-34.54-74.92-80.27.73-98,.32-196,.07-294.08,0-9.89,3.65-17.37,11.6-24.21,26.05-22.44,51.6-45.33,77.58-67.83,4.87-4.21,7.09-8.4,7.06-14.57q-.45-79.31-.13-158.62c.07-27.14,12.38-49.43,38.16-64.33C296.62,166.63,310.8,163.7,323.73,159.11ZM199,533.91v262.5c0,25.57,15.87,39.59,44.82,39.59H873.65c28.9,0,44.76-14.06,44.77-39.65q0-127.08,0-254.16v-8.38c-4.56,2.18-8,3.79-11.42,5.47q-166,82-331.84,164.06c-11.16,5.54-20.95,5.43-32.17-.13Q375.07,620,206.82,537.33C204.59,536.23,202.24,535.31,199,533.91ZM558.88,201.24q-110.65,0-221.32,0C311.8,201.27,295,216,295,238.55q-.08,143.9-.15,287.78c0,4.59,1.54,7,6.13,9.25q125.4,61.56,250.54,123.53c5.46,2.7,9.48,3,15.16.15q124.33-61.82,249-123.1c5-2.47,7-5.07,7-10.26q-.3-142.84-.15-285.68c0-24.89-16.17-39-44.69-39Q668.34,201.22,558.88,201.24Zm312,264.31v43.19l31.49-15.6ZM246.41,508.48V466.9L216,493.56Z"/><path class="cls-1" d="M605.84,482.44c-27.67,18.25-56.16,20.51-85.43,5.12-18.88-9.92-31.08-25.05-32.54-44.32-1.55-20.68-2.17-41.78.75-62.27,4.56-31.92,38.75-54.06,75.55-51.78,36.27,2.26,65.5,29.05,66.37,61.2.41,15-.17,29.95.24,44.92.44,15.53,16.77,25.34,32.82,20.15,8.63-2.79,14.36-8.55,14.43-16.18.23-25.16,3.89-50.57-3.95-75.38-15.27-48.28-67.38-80.41-124.21-76.79-56,3.58-103.08,41.44-109.35,90.65-3.59,28.23-5.53,57.09,3,85.08,13.8,45.08,60.75,76.33,113.86,76.81,15.71.14,31.43,0,47.14.05,15.4.08,26.23,9,26.07,21.26-.15,12-10.85,21.1-25.75,20.76-26-.58-52.47.52-78-3.08-74.65-10.51-133.7-70.75-135.6-137.3-.72-25.4-1.44-51.31,3.17-76.23,14-75.71,96.76-128.56,183.24-119.27,85.79,9.22,148.43,71,148.89,146.79.09,15.21.6,30.45-.22,45.62-1.31,24.31-13.88,43.08-39.13,53.91-25.53,10.94-50.52,9-74.17-4.93C610.63,485.8,608.38,484.13,605.84,482.44Zm-71.08-69.1c0,6.77-.12,13.53,0,20.3.27,12.43,10.47,21.69,23.8,21.76s23.87-9.15,24.07-21.51q.33-20.64,0-41.3c-.21-12.31-10.85-21.53-24.17-21.4S535,380.57,534.78,393C534.64,399.8,534.76,406.57,534.76,413.34Z"/></svg>