<svg id="Capa_1" data-name="Capa 1" xmlns="http://www.w3.org/2000/svg" viewBox="0 0 1080 1080"><defs><style>.cls-1{fill:#f3b518;}</style></defs><path class="cls-1" d="M530.1,722.22H418.16a28,28,0,0,0-28,28,56,56,0,0,0,56,56h56a56,56,0,0,0,56-56A28,28,0,0,0,530.1,722.22Zm-28,56h-56a28,28,0,0,1-28-28H530.1A28,28,0,0,1,502.12,778.19Z"/><circle class="cls-1" cx="684.02" cy="176.5" r="13.99"/><circle class="cls-1" cx="628.05" cy="176.5" r="13.99"/><path class="cls-1" d="M418.16,162.51H530.1v28H418.16Z"/><path class="cls-1" d="M923.2,362.89l36.08-36.08a63.46,63.46,0,0,0-89.75-89.75l-65.36,65.38H760.78c-2.29,0-4.54.18-6.79.33V176.5a70,70,0,0,0-70-70H264.24a70,70,0,0,0-70,70v330l-38.62,38.63a153.66,153.66,0,0,0-45.34,109.42,156.22,156.22,0,0,0,2.1,25.44l21.77,130.58A255.42,255.42,0,0,0,149,863.67l17.25,43.16v67.26h195.9V906.83l9.66-24.14c2.7-6.76,5-13.63,7.1-20.54H684a70,70,0,0,0,70-70V532.12l5.67-5.67,12.84,7.71A141.25,141.25,0,0,0,890,547l62.18-20.71h25.72V386.39H954.55Zm-33.89-106A35.48,35.48,0,1,1,939.49,307L808.92,437.61l-33.45-26.77a111.16,111.16,0,0,0-25.08-15.06ZM776.18,330.42l-56.89,56.9a111,111,0,0,0-13.52-.93,49.66,49.66,0,0,0-48,62.5l-17.5,17.5a25.5,25.5,0,0,1-12.18-21.63,25.76,25.76,0,0,1,7.5-18.09l75.76-75.76a69.49,69.49,0,0,1,49.47-20.49ZM222.26,176.5a42,42,0,0,1,42-42H684a42,42,0,0,1,42,42V308.86a96.75,96.75,0,0,0-28,16.36V246.47a28,28,0,0,0-28-28H278.23a28,28,0,0,0-28,28V666.25a28,28,0,0,0,16.19,25.29,409,409,0,0,1-21.54,52.05,11.95,11.95,0,0,1-22.64-5.33ZM334.2,946.11H194.28v-28H334.2Zm11.66-73.8-7.14,17.83h-149L175,853.28A229.05,229.05,0,0,1,161.79,806L140,675.44a130.13,130.13,0,0,1-1.7-20.85A125.9,125.9,0,0,1,175.44,565l18.84-18.85V738.24a39.94,39.94,0,0,0,75.66,17.87,438.92,438.92,0,0,0,33.16-89.64l10.49-42a18.8,18.8,0,0,1,37,3.12L361.53,770q.66,8.73.66,17.52a227.61,227.61,0,0,1-16.33,84.81Zm-14-290a46.74,46.74,0,0,0-45.4,35.45l-8.2,32.8V246.47H670V352.62l-54.26,54.26a53.32,53.32,0,0,0,4.43,79.52l-32.07,32.07-27.37,68.41a37.48,37.48,0,0,0,48.7,48.71L670,611.36v54.89H381.61l-3.13-40.75a47,47,0,0,0-46.65-43.21Zm273.35-31.07,39.94,39.94-46,18.43a9.64,9.64,0,0,1-13-8.78,9.28,9.28,0,0,1,.68-3.53ZM726,792.19a42,42,0,0,1-42,42H385.82a255.81,255.81,0,0,0,4.36-46.66c0-6.56-.26-13.13-.76-19.66l-5.65-73.6H670a28,28,0,0,0,28-28V588.09l28-28ZM670,576.5l-50.18-50.18,53-53a49.09,49.09,0,0,0,7.29,5.48l54.74,32.85Zm279.86-78.16h-2.27L881.13,520.5a114.3,114.3,0,0,1-94.22-10.34L694.6,454.78a21.74,21.74,0,0,1,11.17-40.4A83.86,83.86,0,0,1,758,432.71l47.07,37.64h74.87v-28H843.74l59.48-59.49,42,31.5h4.66Z"/><path class="cls-1" d="M642.05,274.45H306.22v84H642.05Zm-28,56H334.2v-28H614.06Z"/><path class="cls-1" d="M390.18,386.39h181.9v28H390.18Z"/><path class="cls-1" d="M544.1,442.37h28v28h-28Z"/><path class="cls-1" d="M390.18,442.37H516.11v28H390.18Z"/><path class="cls-1" d="M390.18,498.34h181.9v28H390.18Z"/><path class="cls-1" d="M390.18,554.31H544.1v28H390.18Z"/><path class="cls-1" d="M390.18,610.28H544.1v28H390.18Z"/></svg>