<svg id="Capa_1" data-name="Capa 1" xmlns="http://www.w3.org/2000/svg" viewBox="0 0 1080 1080"><defs><style>.cls-1{fill:#f3b518;}</style></defs><polygon class="cls-1" points="297.49 358.45 288.65 340.83 297.49 312.14 306.64 341.54 297.49 358.45"/><polygon class="cls-1" points="271.76 315.08 280.96 365.21 288.67 372.75 295.65 361.39 271.76 315.08"/><polygon class="cls-1" points="323.95 315.08 290.5 376.1 297.49 383.81 313.62 364.66 323.95 315.08"/><path class="cls-1" d="M289.4,396.31l55.14-61-19.48,45.22S317.34,402.19,289.4,396.31Z"/><path class="cls-1" d="M295.65,385.65l-8.82,9.93S275.43,393,269.55,379s-18.74-43.75-18.74-43.75Z"/><path class="cls-1" d="M187.51,438.75a3.14,3.14,0,0,0,2.7,2.11l27.54,2.23.85,25.56a3.12,3.12,0,0,0,1.9,2.77,3.25,3.25,0,0,0,1.22.25,3.14,3.14,0,0,0,2.09-.8l51.26-46.22,2.46,6.74c1.2,3.29,3.63,5.25,6.51,5.25a7.73,7.73,0,0,0,5.88-3.15l9.1-11.14a3.9,3.9,0,0,1,3-1.46,3.79,3.79,0,0,1,2.62,1l10.66,9.67a8,8,0,0,0,5.36,2.31,6.19,6.19,0,0,0,3.83-1.34l37.07,41.11a3.16,3.16,0,0,0,2.32,1A3.13,3.13,0,0,0,367,472l2.93-25,27.45-2.54a3.12,3.12,0,0,0,2-5.2l-45.57-50.54a2.49,2.49,0,0,1,.16-.33,3.85,3.85,0,0,1,2.5-1.82l14-3.27c3-.7,5.09-2.45,5.79-4.83s-.1-5-2.21-7.22l-10-10.37a3.92,3.92,0,0,1-1.11-2.89,3.85,3.85,0,0,1,1.37-2.76l10.89-9.41c2.3-2,3.35-4.54,2.87-7s-2.42-4.39-5.31-5.36l-13.64-4.56a3.83,3.83,0,0,1-2.39-5.13l5.26-13.38a7.49,7.49,0,0,0-.41-7.12c-1.49-2.19-4.09-3.22-7.47-2.66L340,302.87a3.85,3.85,0,0,1-4.51-3.43l-1.56-14.3c-.51-4.71-3.66-6.83-6.56-6.83a8.34,8.34,0,0,0-5,1.84l-11.5,8.63a3.93,3.93,0,0,1-5.59-.94l-8-11.94a7.46,7.46,0,0,0-6.13-3.71c-2.66,0-5,1.7-6.39,4.64l-6.18,13a3.91,3.91,0,0,1-5.38,1.75l-12.65-6.84c-3.23-1.75-6.63-1.42-8.7.73a7.72,7.72,0,0,0-2,5.92l.57,14.37a3.88,3.88,0,0,1-1.07,2.88,3.92,3.92,0,0,1-2.88,1.18L232,309.64c-3,0-5.41,1.22-6.63,3.35s-1.08,4.87.43,7.49L233,333a3.92,3.92,0,0,1,.38,3.06,3.86,3.86,0,0,1-2,2.36l-12.81,6.53c-2.72,1.39-4.34,3.6-4.46,6.08s1.3,4.84,3.87,6.47l12.16,7.7a3.85,3.85,0,0,1,1.09,5.55l-8.32,11.74c-1.76,2.49-2.16,5.21-1.11,7.46s3.39,3.68,6.43,3.92l5.79.47-45.61,41.14A3.13,3.13,0,0,0,187.51,438.75ZM354.79,414a4.78,4.78,0,0,0,.54-.65,5.81,5.81,0,0,0,1.41-1.3,7.65,7.65,0,0,0,.89-6.84l-1.29-4.45,34.27,38L366.83,441a3.12,3.12,0,0,0-2.81,2.75l-2.41,20.67-34.12-37.82,2.66-13a2.08,2.08,0,0,1,3.28-1.6l13.93,3.62h0C350.33,416.39,353,415.8,354.79,414ZM228.68,387.73a2.49,2.49,0,0,1-1.39-.41v-.14h0a3,3,0,0,1,.57-1.21l8.32-11.74a10.3,10.3,0,0,0,1-1.79A9.92,9.92,0,0,0,233.36,360l-12.16-7.7a4.19,4.19,0,0,1-.8-.66h0a1,1,0,0,1-.22-.35c0-.08.27-.48,1.13-.92l6.59-3.36,6.22-3.17a9.93,9.93,0,0,0,4.31-13.59c-.06-.11-.11-.23-.18-.34l-7.18-12.46a3,3,0,0,1-.45-1.25v-.13l.14-.08a3.07,3.07,0,0,1,1.29-.21l3.71,0,10.8.13a10,10,0,0,0,9.37-6.43c.05-.12.06-.25.1-.37a10.14,10.14,0,0,0,.53-3.61L256,291.15c0-1,.19-1.39.38-1.45a2.77,2.77,0,0,1,1.27.42L268,295.73l2.27,1.23c.15.08.31.14.47.21a10,10,0,0,0,4.32,1,9.85,9.85,0,0,0,6.8-2.71,10.34,10.34,0,0,0,2.21-3l6.18-13a4.41,4.41,0,0,1,.34-.6,2.41,2.41,0,0,1,.45-.5l.08-.05a.83.83,0,0,1,.24.12l.18.14a3.38,3.38,0,0,1,.64.74l5.45,8.1,2.59,3.84a10.17,10.17,0,0,0,2.24,2.38,9.93,9.93,0,0,0,6,2.08,9.39,9.39,0,0,0,1.91-.21,10,10,0,0,0,4.12-1.82l4.7-3.53,6.81-5.11a2.59,2.59,0,0,1,1.21-.6h.1a2.33,2.33,0,0,1,.47,1.39l1.56,14.3a9.86,9.86,0,0,0,4,7,9.86,9.86,0,0,0,7.51,1.8l14.21-2.3a3.08,3.08,0,0,1,1.44.07.39.39,0,0,1,0,.11,2.78,2.78,0,0,1-.26,1.34l-5.26,13.38c-.13.32-.23.65-.33,1h0c0,.07,0,.14,0,.22a9.85,9.85,0,0,0,.15,5.54,10.28,10.28,0,0,0,.45,1.16,10.9,10.9,0,0,0,.78,1.32,10,10,0,0,0,5.14,3.94l10.18,3.4,3.46,1.16a2.87,2.87,0,0,1,1.11.58l.15.15a1.45,1.45,0,0,1-.33.6,4.62,4.62,0,0,1-.55.57l-6.83,5.9-4.05,3.51a9.94,9.94,0,0,0-.68,14.51l10,10.38a2.45,2.45,0,0,1,.76,1.22h0a.23.23,0,0,1-.07.07l0,0h0a2.86,2.86,0,0,1-1.23.53l-14,3.27a10,10,0,0,0-6.39,4.68,10.56,10.56,0,0,0-.76,1.64.14.14,0,0,1,0,.06,9.54,9.54,0,0,0-.44,1.73v0c-1.29,2.09-1.88,3.78-1.3,5.75l4,13.81h0l-13.72-3.56a10.87,10.87,0,0,0-1.71-.27c-.28,0-.57-.05-.86-.05h0a9.92,9.92,0,0,0-1.55.13l-.33.05a9.41,9.41,0,0,0-1.29.34l-.52.2c-.27.11-.53.23-.79.36s-.65.36-1,.56a3.62,3.62,0,0,0-.32.22,10,10,0,0,0-1.35,1.16h0a10,10,0,0,0-4.19,6.29l-2.49,12.11a3.17,3.17,0,0,0,.23,1.9h0a2.52,2.52,0,0,1-.35-.19l-.07,0a4.61,4.61,0,0,1-.49-.39l-10.66-9.68a10,10,0,0,0-2.63-1.69,9.66,9.66,0,0,0-9,.36,8.71,8.71,0,0,0-1.44,1,10.3,10.3,0,0,0-1.45,1.43l-9.1,11.14c-.13.16-.25.27-.35.38a2.88,2.88,0,0,1-.37.31l0,0h0a1.11,1.11,0,0,1-.36.18h0l-.11-.08h0a3,3,0,0,1-.66-1.15L280,420.2a3.1,3.1,0,0,0,.72-3.25l-.23-.62a10,10,0,0,0-5.44-5.81,10.18,10.18,0,0,0-2.68-.74h0a10.31,10.31,0,0,0-1.59-.42h0a10,10,0,0,0-3.72,0h0A10.16,10.16,0,0,0,265,410h0l-12.71,5.4c0-.12,0-.23,0-.37l1.92-14.26h0a9.94,9.94,0,0,0-8.61-11.27h0a7.49,7.49,0,0,0-1-.32,8.94,8.94,0,0,0-1.56-.28l-4.84-.4Zm12.64,8.35,3.16-.39a3.76,3.76,0,0,1,1.6,3.7l-1.91,14.26a7.82,7.82,0,0,0,1.59,6.29,6.07,6.07,0,0,0,3.77,2,7.83,7.83,0,0,0,6.71-.06l13.23-5.63a3.8,3.8,0,0,1,1.54-.32,3.88,3.88,0,0,1,1.59,1.94l.16.44-48.14,43.41-.72-21.63a3.12,3.12,0,0,0-2.87-3l-23.11-1.88Z"/><g id="Digital_sign" data-name="Digital sign"><path class="cls-1" d="M200.63,801.15a13.29,13.29,0,0,1-11.88-19.23l30.72-61.44a46.41,46.41,0,0,1,85.74,34.84l16.13-10.75a39.86,39.86,0,0,1,60.78,23.51l1.62,6.49h56.05a13.29,13.29,0,0,1,0,26.58H373.35a13.28,13.28,0,0,1-12.88-10.06l-4.15-16.52a13.3,13.3,0,0,0-20.26-7.84L287.72,799a13.29,13.29,0,0,1-19.93-15.26l12.07-36.17a19.84,19.84,0,0,0-36.57-15.13l-30.7,61.39A13.31,13.31,0,0,1,200.63,801.15Z"/><path class="cls-1" d="M399.93,203.24H346.78a13.29,13.29,0,1,1,0-26.57h53.15a13.29,13.29,0,0,1,0,26.57Z"/><path class="cls-1" d="M227.2,562H200.63a13.29,13.29,0,1,1,0-26.58H227.2a13.29,13.29,0,1,1,0,26.58Z"/><path class="cls-1" d="M360.07,562H280.35a13.29,13.29,0,0,1,0-26.58h79.72a13.29,13.29,0,0,1,0,26.58Z"/><path class="cls-1" d="M360.07,615.13H200.63a13.29,13.29,0,1,1,0-26.57H360.07a13.29,13.29,0,0,1,0,26.57Z"/><path class="cls-1" d="M360.07,668.28H200.63a13.29,13.29,0,1,1,0-26.57H360.07a13.29,13.29,0,0,1,0,26.57Z"/><path class="cls-1" d="M918.11,641.71H770.48a93.54,93.54,0,0,1-41.6-9.82l-8.26-4.13a120.35,120.35,0,0,0-53.48-12.63H506.22a26.41,26.41,0,0,1-17.48-6.75,27.77,27.77,0,0,1-3-2.93,26.76,26.76,0,0,1-6.08-16.62,25,25,0,0,1,7.65-17.74,30.34,30.34,0,0,1,21.37-9.1H652.38a38.92,38.92,0,0,0,28-11.62,39.4,39.4,0,0,0,11.71-31.71,40.1,40.1,0,0,0-27.62-34l47.38-82.07h22.77a66.25,66.25,0,0,1,51,23.91l18.61,22.35a92.74,92.74,0,0,0,71.47,33.46h42.38a13.29,13.29,0,0,0,0-26.58H875.73a66.3,66.3,0,0,1-51-23.91l-18.6-22.35A92.74,92.74,0,0,0,734.62,376h-7.44L806,239.45a53.15,53.15,0,0,0-92-53.15S680.73,244,680.66,244L612.52,362V203.24a66.53,66.53,0,0,0-66.44-66.43H200.63a66.52,66.52,0,0,0-66.44,66.43V867.58A66.51,66.51,0,0,0,200.63,934H546.08a66.52,66.52,0,0,0,66.44-66.43V641.71h54.62a93.28,93.28,0,0,1,41.6,9.82l8.26,4.13a120.21,120.21,0,0,0,53.48,12.62H918.11a13.29,13.29,0,1,0,0-26.57Zm-375,0-18,31.13L466.69,721l12.41-74.67,5.53-9.56a51.56,51.56,0,0,0,21.59,5ZM665.66,520.89a13,13,0,0,1-4,10.63,12.75,12.75,0,0,1-9.3,3.89H635.1l15.35-26.57h.41A14.38,14.38,0,0,1,665.66,520.89ZM737,199.59a26.57,26.57,0,0,1,46,26.57l-26.58,46-46-26.57Zm-39.86,69.09,46.07,26.58L604.45,535.41H543.07ZM512.37,535.41h-3.7a57.19,57.19,0,0,0-40.25,17,51.35,51.35,0,0,0-15.35,36.7,53.54,53.54,0,0,0,3.59,18.38A39.23,39.23,0,0,1,427,603.6a13.27,13.27,0,0,1-4.91-18.12l82.14-142.94a79.87,79.87,0,0,1,69.09-40h15.77ZM160.77,203.24a39.86,39.86,0,0,1,39.86-39.86H546.08a39.86,39.86,0,0,1,39.86,39.86v13.29H160.77ZM585.94,867.58a39.86,39.86,0,0,1-39.86,39.86H200.63a39.86,39.86,0,0,1-39.86-39.86V854.29H585.94Zm0-39.86H160.77V243.1H585.94V376H573.33a106.6,106.6,0,0,0-92.17,53.33L399.05,572.2a39.86,39.86,0,0,0,14.62,54.44l.06,0a65.7,65.7,0,0,0,33,8.9,62.9,62.9,0,0,0,8.34-.89l-.22.41a12.82,12.82,0,0,0-1.61,4.48l-18.6,112A13.29,13.29,0,0,0,456.2,764l87.69-72.16a13.35,13.35,0,0,0,3.07-3.62l26.85-46.55h12.13Z"/><path class="cls-1" d="M399.93,894.15H333.49a13.29,13.29,0,0,1,0-26.57h66.44a13.29,13.29,0,0,1,0,26.57Z"/></g></svg>