<svg id="Capa_1" data-name="Capa 1" xmlns="http://www.w3.org/2000/svg" viewBox="0 0 1080 1080"><defs><style>.cls-1{fill:#f6b818;}</style></defs><path class="cls-1" d="M758.59,538c0-109.77-89.3-199.07-199.08-199.07S360.44,428.27,360.44,538s89.3,199.07,199.07,199.07S758.59,647.81,758.59,538ZM559.51,708.67c-94.08,0-170.63-76.54-170.63-170.63s76.55-170.63,170.63-170.63S730.15,444,730.15,538,653.6,708.67,559.51,708.67Z"/><path class="cls-1" d="M573.73,425V395.85H545.3V425c-31.91,3.58-56.88,30.41-56.88,63.26a64.07,64.07,0,0,0,64,64h14.21a35.55,35.55,0,0,1,0,71.1H552.41a35.58,35.58,0,0,1-35.55-35.55V580.7H488.42v7.11c0,32.84,25,59.68,56.88,63.26v29.16h28.43V651.07c31.91-3.58,56.88-30.42,56.88-63.26a64.07,64.07,0,0,0-64-64H552.41a35.55,35.55,0,1,1,0-71.1h14.21a35.58,35.58,0,0,1,35.55,35.55v7.11h28.44v-7.11C630.61,455.42,605.64,428.59,573.73,425Z"/><path class="cls-1" d="M147.15,225.21H516.86v85.32H545.3v-128a71.18,71.18,0,0,0-71.1-71.1H189.81a71.17,71.17,0,0,0-71.09,71.1V737.11h28.43Zm0-42.65a42.71,42.71,0,0,1,42.66-42.66H474.2a42.71,42.71,0,0,1,42.66,42.66v14.22H147.15Z"/><rect class="cls-1" x="260.91" y="822.43" width="142.19" height="28.44"/><path class="cls-1" d="M118.72,836.65a71.17,71.17,0,0,0,71.09,71.09H474.2a71.18,71.18,0,0,0,71.1-71.09v-71.1H118.72ZM147.15,794H516.86v42.66A42.71,42.71,0,0,1,474.2,879.3H189.81a42.71,42.71,0,0,1-42.66-42.65Z"/><path class="cls-1" d="M929.22,196.78H644.83a71.18,71.18,0,0,0-71.1,71.09v42.66H971.88v511.9h28.43V267.87A71.17,71.17,0,0,0,929.22,196.78Zm42.66,85.31H602.17V267.87a42.71,42.71,0,0,1,42.66-42.66H929.22a42.71,42.71,0,0,1,42.66,42.66Z"/><rect class="cls-1" x="715.93" y="907.74" width="142.19" height="28.44"/><path class="cls-1" d="M602.17,765.55H573.73V922a71.19,71.19,0,0,0,71.1,71.1H929.22a71.18,71.18,0,0,0,71.09-71.1v-71.1H602.17ZM971.88,879.3V922a42.71,42.71,0,0,1-42.66,42.66H644.83A42.71,42.71,0,0,1,602.17,922V879.3Z"/><polygon class="cls-1" points="787.02 566.48 787.02 594.92 829.68 594.92 829.68 694.45 946.99 538.04 829.68 381.63 829.68 481.16 787.02 481.16 787.02 509.6 858.12 509.6 858.12 466.94 911.44 538.04 858.12 609.14 858.12 566.48 787.02 566.48"/><polygon class="cls-1" points="332 509.6 332 481.16 289.35 481.16 289.35 381.63 172.04 538.04 289.35 694.45 289.35 594.92 332 594.92 332 566.48 260.91 566.48 260.91 609.14 207.59 538.04 260.91 466.94 260.91 509.6 332 509.6"/><rect class="cls-1" x="801.24" y="765.55" width="28.44" height="28.44"/><rect class="cls-1" x="744.37" y="765.55" width="28.44" height="28.44"/><rect class="cls-1" x="687.49" y="765.55" width="28.44" height="28.44"/><rect class="cls-1" x="403.1" y="282.09" width="28.44" height="28.44"/><rect class="cls-1" x="346.22" y="282.09" width="28.44" height="28.44"/><rect class="cls-1" x="289.35" y="282.09" width="28.44" height="28.44"/></svg>