<svg id="Capa_1" data-name="Capa 1" xmlns="http://www.w3.org/2000/svg" viewBox="0 0 1080 1080"><defs><style>.cls-1{fill:#f3dfaf;}.cls-2{fill:#f3b518;}.cls-3{fill:#fff;}.cls-4{fill:#f6b818;}.cls-5{fill:#1d1d1b;}.cls-6{fill:#f3b519;}</style></defs><polygon class="cls-1" points="709.15 116.99 809.26 224.81 754 232.51 712.43 217.72 697.6 186.3 709.15 116.99"/><path class="cls-2" d="M752.9,243.33l-48.15-17.12-18.12-38.39,15.63-93.77L830.81,232.48Zm-32.79-34.09,35,12.44,32.62-4.54L716,139.94l-7.47,44.84Z"/><path class="cls-2" d="M772.68,918.84H434.52V897.7H772.68a35.67,35.67,0,0,0,35.64-35.64l1.91-633L708.51,123.71H233.61A35.68,35.68,0,0,0,198,159.35V862.06a35.68,35.68,0,0,0,35.64,35.64H308.7v21.14H233.61a56.84,56.84,0,0,1-56.78-56.78V159.35a56.84,56.84,0,0,1,56.78-56.78H717.48l113.91,118L829.46,862.1A56.83,56.83,0,0,1,772.68,918.84Z"/><rect class="cls-2" x="335.65" y="287.4" width="334.99" height="21.14"/><rect class="cls-2" x="335.65" y="362.48" width="334.99" height="21.14"/><rect class="cls-2" x="260.56" y="487.62" width="485.17" height="21.14"/><rect class="cls-2" x="262.49" y="553.08" width="485.17" height="21.14"/><rect class="cls-2" x="260.56" y="618.54" width="485.17" height="21.14"/><path class="cls-2" d="M822.74,243.08H745.45a55.14,55.14,0,0,1-55-54.47l-.67-75.37L711,113l.67,75.37a33.94,33.94,0,0,0,33.83,33.53h77.29Z"/><path class="cls-3" d="M449.09,920.6a7.9,7.9,0,0,0,.8-1,9,9,0,0,0,2.05-1.89c1.93-2.59,2.39-6.12,1.29-9.93l-1.87-6.48,49.79,55.22-34.55,3.2a4.54,4.54,0,0,0-4.08,4l-3.51,30-49.58-55L413.29,920a3,3,0,0,1,4.77-2.33L438.3,923h0C442.62,924.07,446.56,923.21,449.09,920.6ZM265.84,882.42a3.41,3.41,0,0,1-2-.6.63.63,0,0,1,0-.2h0a4,4,0,0,1,.82-1.76l12.1-17.06a15.59,15.59,0,0,0,1.47-2.6,14.46,14.46,0,0,0-5.58-18.1L255,830.91a5.33,5.33,0,0,1-1.16-1h0a1.59,1.59,0,0,1-.31-.5c0-.12.38-.71,1.64-1.34l9.57-4.88,9.05-4.61A14.43,14.43,0,0,0,280,798.86a4.52,4.52,0,0,0-.25-.49l-10.44-18.12a4.08,4.08,0,0,1-.65-1.81,1.11,1.11,0,0,1,0-.19l.2-.12a4.44,4.44,0,0,1,1.87-.31l5.39.07,15.7.19a14.49,14.49,0,0,0,13.62-9.35c.06-.17.08-.36.14-.54a14.59,14.59,0,0,0,.78-5.24l-.84-20.89c-.05-1.4.28-2,.56-2.1a4.06,4.06,0,0,1,1.84.61l15.1,8.16,3.3,1.77c.22.12.45.21.68.32a14.67,14.67,0,0,0,6.28,1.46,14.28,14.28,0,0,0,9.88-3.94,14.8,14.8,0,0,0,3.22-4.39l9-18.89a8.59,8.59,0,0,1,.5-.87,3,3,0,0,1,.66-.72l.11-.08a1.24,1.24,0,0,1,.35.17,2.93,2.93,0,0,1,.27.21,5.23,5.23,0,0,1,.92,1.08l7.92,11.76,3.76,5.59a14.71,14.71,0,0,0,12,6.47,15.21,15.21,0,0,0,8.76-2.95l6.84-5.13,9.88-7.41a3.69,3.69,0,0,1,1.77-.88l.14,0a3.36,3.36,0,0,1,.69,2l2.26,20.78a14.59,14.59,0,0,0,3.49,8,15.3,15.3,0,0,0,2.38,2.17A14.43,14.43,0,0,0,429,767.86l20.64-3.34a4.53,4.53,0,0,1,2.1.1.71.71,0,0,1,0,.16,4,4,0,0,1-.37,1.94l-7.65,19.45c-.18.47-.34.94-.48,1.42v0c0,.1,0,.21-.08.32a14.35,14.35,0,0,0,.23,8.06,15.56,15.56,0,0,0,.65,1.67,14.08,14.08,0,0,0,1.14,1.92,14.43,14.43,0,0,0,7.46,5.72l14.79,5,5,1.69a4.4,4.4,0,0,1,1.61.83,1.07,1.07,0,0,1,.21.23,2,2,0,0,1-.47.86,5.41,5.41,0,0,1-.8.84l-9.92,8.58-5.89,5.1a14.44,14.44,0,0,0-1,21.08l14.48,15.08a3.62,3.62,0,0,1,1.11,1.78h0a.27.27,0,0,1-.09.1l0,.05h0a4.06,4.06,0,0,1-1.79.78L449.56,872a14.34,14.34,0,0,0-10.38,9.17l0,.09a13.72,13.72,0,0,0-.65,2.52v0c-1.87,3-2.73,5.49-1.88,8.36l5.81,20.07h0l-19.94-5.17a14.88,14.88,0,0,0-2.48-.39c-.42,0-.83-.08-1.25-.08h0a15.18,15.18,0,0,0-2.25.19l-.48.08a14.82,14.82,0,0,0-1.88.49l-.76.29a11.72,11.72,0,0,0-1.14.52c-.48.25-.95.52-1.41.82l-.45.31a15.83,15.83,0,0,0-2,1.69h0a14.51,14.51,0,0,0-6.09,9.15l-3.61,17.6a4.44,4.44,0,0,0,.33,2.76h0a5.66,5.66,0,0,1-.5-.28l-.11-.07a5.7,5.7,0,0,1-.71-.56l-15.48-14.06a14.66,14.66,0,0,0-3.82-2.46A14.46,14.46,0,0,0,363.29,925a14.88,14.88,0,0,0-2.11,2.09L348,943.3a7.16,7.16,0,0,1-.51.55,4.56,4.56,0,0,1-.53.45l0,0-.05,0a1.21,1.21,0,0,1-.52.25h0a.64.64,0,0,1-.16-.11v0a4.18,4.18,0,0,1-1-1.66l-4.83-13.21a4.5,4.5,0,0,0,1-4.72l-.33-.91a14.52,14.52,0,0,0-11.79-9.51h0a15.25,15.25,0,0,0-2.32-.62l-.06,0a14.57,14.57,0,0,0-2.48-.22,15.08,15.08,0,0,0-2.93.29h0a15.61,15.61,0,0,0-2.82.88h0l-18.47,7.85c0-.18,0-.34,0-.55L303,901.38h0A14.46,14.46,0,0,0,290.47,885h0a15.28,15.28,0,0,0-1.54-.47,13.75,13.75,0,0,0-2.25-.41l-7.05-.57Zm18.36,12.14,4.59-.57a5.44,5.44,0,0,1,1.15,1,5.57,5.57,0,0,1,1.17,4.33l-2.77,20.72c-.48,3.64.33,6.89,2.31,9.14a8.86,8.86,0,0,0,5.48,2.91c2.75,1.43,6.21,1.42,9.75-.08l19.23-8.18a5.69,5.69,0,0,1,2.23-.47,5.58,5.58,0,0,1,2.32,2.83l.23.64-70,63.08-1.05-31.43a4.55,4.55,0,0,0-4.17-4.37l-33.58-2.73Z"/><path class="cls-2" d="M206.7,956.13a4.54,4.54,0,0,0,3.93,3.06l40,3.25,1.24,37.15a4.54,4.54,0,0,0,2.76,4,4.59,4.59,0,0,0,1.77.36,4.51,4.51,0,0,0,3-1.17L334,935.64l3.58,9.8c1.74,4.78,5.28,7.63,9.46,7.63,3.1,0,6.13-1.63,8.54-4.59l13.23-16.18a5.68,5.68,0,0,1,4.39-2.13,5.57,5.57,0,0,1,3.81,1.51l15.49,14.06a11.67,11.67,0,0,0,7.79,3.36,9,9,0,0,0,5.56-2l53.88,59.74a4.55,4.55,0,0,0,3.37,1.5,4.38,4.38,0,0,0,1.38-.22,4.56,4.56,0,0,0,3.13-3.79L471.81,968l39.9-3.7a4.54,4.54,0,0,0,2.95-7.55l-66.23-73.45c.08-.16.13-.33.22-.48a5.6,5.6,0,0,1,3.64-2.64l20.35-4.75c4.33-1,7.39-3.57,8.41-7s-.14-7.28-3.21-10.48l-14.48-15.08a5.7,5.7,0,0,1-1.61-4.19,5.6,5.6,0,0,1,2-4L479.56,821c3.35-2.9,4.88-6.59,4.18-10.13s-3.52-6.37-7.72-7.78l-19.82-6.64a5.56,5.56,0,0,1-3.47-7.45l7.64-19.44c1.52-3.88,1.32-7.55-.59-10.35-2.17-3.18-5.94-4.67-10.86-3.87l-20.64,3.34a5.61,5.61,0,0,1-6.55-5l-2.27-20.78c-.73-6.85-5.31-9.92-9.53-9.92a12.14,12.14,0,0,0-7.21,2.66L386,738.19a5.7,5.7,0,0,1-8.11-1.37l-11.67-17.36c-2.34-3.47-5.5-5.38-8.91-5.38-3.87,0-7.27,2.47-9.29,6.74l-9,18.89a5.7,5.7,0,0,1-7.82,2.56l-18.38-9.95c-4.7-2.54-9.64-2.06-12.65,1.06-1.39,1.45-3,4.13-2.85,8.6l.83,20.89a5.59,5.59,0,0,1-1.55,4.18,5.67,5.67,0,0,1-4.18,1.71l-21.12-.25c-4.35,0-7.87,1.77-9.64,4.86s-1.57,7.07.63,10.89l10.45,18.11a5.67,5.67,0,0,1,.55,4.45,5.61,5.61,0,0,1-2.9,3.44l-18.62,9.49c-4,2-6.32,5.23-6.49,8.83s1.89,7,5.63,9.4l17.67,11.19a5.59,5.59,0,0,1,1.59,8.06l-12.1,17.07c-2.55,3.61-3.14,7.57-1.61,10.84s4.93,5.34,9.35,5.7l8.41.68L208,951.31A4.54,4.54,0,0,0,206.7,956.13Zm243.1-36a8.84,8.84,0,0,0,.79-.95,8.56,8.56,0,0,0,2.05-1.89c1.94-2.59,2.4-6.12,1.3-9.93l-1.87-6.48,49.79,55.22-34.55,3.2a4.53,4.53,0,0,0-4.08,4l-3.52,30-49.57-55L414,919.59a5.59,5.59,0,0,1,.77-1.86,5.49,5.49,0,0,1,4-.47L439,922.51h0C443.33,923.64,447.27,922.78,449.8,920.17ZM266.55,882a3.54,3.54,0,0,1-2-.59,1.24,1.24,0,0,1,0-.2h0a4.24,4.24,0,0,1,.83-1.76l12.09-17.06a15.35,15.35,0,0,0,1.48-2.6,14.46,14.46,0,0,0-5.58-18.1l-17.67-11.19a5.71,5.71,0,0,1-1.17-1v0a1.43,1.43,0,0,1-.32-.49c0-.12.39-.71,1.65-1.35l9.57-4.87,9.05-4.62a14.41,14.41,0,0,0,6.25-19.74c-.09-.17-.16-.34-.25-.49L270,779.82a4.29,4.29,0,0,1-.66-1.81.77.77,0,0,1,0-.19.58.58,0,0,1,.2-.12,4.4,4.4,0,0,1,1.87-.31l5.39.07,15.7.18a14.47,14.47,0,0,0,13.62-9.34c.06-.18.08-.36.14-.54a14.8,14.8,0,0,0,.77-5.24l-.83-20.89c0-1.4.28-2,.55-2.1a4,4,0,0,1,1.85.6l15.1,8.17,3.3,1.77c.22.12.45.21.68.32a14.67,14.67,0,0,0,6.28,1.46,14.33,14.33,0,0,0,9.88-3.94,14.77,14.77,0,0,0,3.21-4.39l9-18.89a7,7,0,0,1,.5-.87,3.15,3.15,0,0,1,.66-.73.88.88,0,0,1,.11-.08,1.94,1.94,0,0,1,.34.18,1.53,1.53,0,0,1,.27.21,4.93,4.93,0,0,1,.93,1.08l7.91,11.76,3.77,5.59a14.73,14.73,0,0,0,3.26,3.46,14.45,14.45,0,0,0,8.77,3,14.26,14.26,0,0,0,2.78-.3,14.6,14.6,0,0,0,6-2.65l6.83-5.13,9.89-7.42a3.74,3.74,0,0,1,1.77-.87l.14,0a3.39,3.39,0,0,1,.68,2l2.26,20.78a14.41,14.41,0,0,0,5.87,10.16,14.41,14.41,0,0,0,10.92,2.62l20.65-3.34a4.82,4.82,0,0,1,2.1.09,1.39,1.39,0,0,1,0,.17,3.92,3.92,0,0,1-.36,1.94l-7.65,19.45c-.18.47-.34.94-.48,1.42h0c0,.11-.05.22-.08.33a14.32,14.32,0,0,0,.23,8,13.23,13.23,0,0,0,.65,1.68,15.41,15.41,0,0,0,1.14,1.92,14.39,14.39,0,0,0,7.46,5.72l14.79,5,5,1.69a4.49,4.49,0,0,1,1.61.83,1.48,1.48,0,0,1,.21.23,2.15,2.15,0,0,1-.47.86,6.09,6.09,0,0,1-.81.84l-9.91,8.58-5.9,5.1A14.46,14.46,0,0,0,457,849l14.49,15.08a3.55,3.55,0,0,1,1.1,1.78h0s-.05.06-.09.1a.13.13,0,0,1,0,0h0a4.31,4.31,0,0,1-1.79.78l-20.35,4.76a14.4,14.4,0,0,0-9.28,6.8,13.72,13.72,0,0,0-1.1,2.37.32.32,0,0,0,0,.09,13.72,13.72,0,0,0-.65,2.52v0c-1.87,3-2.73,5.49-1.88,8.36l5.81,20.07h0l-19.94-5.17a14.88,14.88,0,0,0-2.48-.39c-.42,0-.84-.08-1.26-.08h0a15.29,15.29,0,0,0-2.25.19,3.55,3.55,0,0,0-.47.08,13.44,13.44,0,0,0-1.89.49l-.75.28c-.39.16-.77.34-1.14.53a15.22,15.22,0,0,0-1.41.82l-.46.31a14.32,14.32,0,0,0-2,1.69h0a14.53,14.53,0,0,0-6.1,9.15l-3.61,17.6a4.58,4.58,0,0,0,.33,2.76h0a5.66,5.66,0,0,1-.5-.28l-.11-.07a5.7,5.7,0,0,1-.71-.56l-15.49-14.06a15.33,15.33,0,0,0-9.78-3.81,14.35,14.35,0,0,0-7.07,1.88,13.12,13.12,0,0,0-2.08,1.41,14.37,14.37,0,0,0-2.11,2.09l-13.24,16.19c-.18.22-.35.39-.5.55a5.58,5.58,0,0,1-.53.45l-.05,0,0,0a1.35,1.35,0,0,1-.52.25h0a.52.52,0,0,1-.16-.12h0a4.34,4.34,0,0,1-.95-1.66l-4.83-13.21a4.5,4.5,0,0,0,1-4.72l-.33-.91A14.51,14.51,0,0,0,330,914h0a14.82,14.82,0,0,0-2.31-.62l-.07,0a14.48,14.48,0,0,0-2.48-.22,15,15,0,0,0-2.92.29h0a15.87,15.87,0,0,0-2.82.88h0l-18.47,7.85c0-.18,0-.34,0-.55L303.69,901h0a14.44,14.44,0,0,0-12.51-16.38h0a13.68,13.68,0,0,0-1.54-.47,13.87,13.87,0,0,0-2.26-.41l-7-.57Zm18.35,12.14,4.6-.56a5.41,5.41,0,0,1,2.32,5.38l-2.77,20.72a11.31,11.31,0,0,0,2.31,9.14,8.86,8.86,0,0,0,5.48,2.91c2.75,1.43,6.21,1.42,9.75-.08l19.22-8.18a5.74,5.74,0,0,1,2.24-.47,5.51,5.51,0,0,1,2.31,2.83l.24.64-70,63.08-1-31.43a4.54,4.54,0,0,0-4.17-4.37L221.84,951Z"/><polygon class="cls-2" points="363.81 840.46 350.97 814.85 363.81 773.15 377.11 815.89 363.81 840.46"/><polygon class="cls-2" points="326.42 777.42 339.8 850.27 350.99 861.23 361.14 844.73 326.42 777.42"/><polygon class="cls-2" points="402.27 777.42 353.66 866.1 363.81 877.32 387.26 849.48 402.27 777.42"/><path class="cls-2" d="M352.06,895.48l80.13-88.68-28.31,65.71S392.66,904,352.06,895.48Z"/><path class="cls-2" d="M361.14,880l-12.82,14.42s-16.56-3.74-25.1-24S296,806.8,296,806.8Z"/><polygon class="cls-4" points="399.9 191.11 403.44 191.11 414.95 209.04 414.95 191.11 418.94 191.14 418.94 216.44 415.18 216.35 403.66 198.41 403.66 216.35 399.9 216.35 399.9 191.11"/><polygon class="cls-4" points="396.09 191.11 396.09 194.87 383.69 194.87 383.69 201.96 394.32 201.96 394.32 205.28 383.69 205.28 383.69 212.81 396.09 212.81 396.09 216.35 379.7 216.35 379.7 191.11 396.09 191.11"/><polygon class="cls-4" points="377 216.35 372.35 216.35 365.49 204.17 361.06 208.78 361.06 216.35 357.07 216.35 357.07 191.11 361.06 191.11 361.06 204.24 371.69 191.11 376.12 191.11 367.92 201.07 377 216.35"/><path class="cls-4" d="M338.45,213.05l-2.95,3.54a9.48,9.48,0,0,1-6-5.76C327.43,206,323,195.59,323,195.59Z"/><path class="cls-4" d="M336.76,216.91l18.52-21.58-6.46,16S346.19,218.85,336.76,216.91Z"/><polygon class="cls-4" points="348.43 188.55 337 209.51 339.34 212 344.64 205.93 348.43 188.55"/><polygon class="cls-4" points="330.25 188.55 333.49 205.88 336.09 208.56 338.38 204.4 330.25 188.55"/><polygon class="cls-4" points="339.1 203.09 336.33 197.51 339.21 187.52 342.13 197.63 339.1 203.09"/><polygon class="cls-4" points="321.56 190.85 321.56 194.55 314.39 194.55 314.39 217.21 310.23 217.21 310.23 194.55 303.06 194.55 303.06 190.85 321.56 190.85"/><path class="cls-5" d="M360.48,183.76h-2.69V172.37l-9.89-15.05h3.36l7.88,12.47L367,157.32h3.36l-9.9,15.05Z"/><path class="cls-5" d="M332.67,181.29h14.15v2.47H330V157.32h16.4v2.47H332.67v9h12.81v2.46H332.67Z"/><path class="cls-5" d="M324.66,173.9a16.88,16.88,0,0,1-.39,3.49,9.3,9.3,0,0,1-1.48,3.42,8.43,8.43,0,0,1-3,2.59,11.91,11.91,0,0,1-9.69,0,8.39,8.39,0,0,1-2.95-2.59,9.47,9.47,0,0,1-1.48-3.42,16.88,16.88,0,0,1-.39-3.49V157.32H308V173.6a12.48,12.48,0,0,0,.37,3.27,8.13,8.13,0,0,0,1,2.3,5.44,5.44,0,0,0,1.38,1.47,7.26,7.26,0,0,0,1.53.84,6.25,6.25,0,0,0,1.48.39,8.42,8.42,0,0,0,1.23.1,8.6,8.6,0,0,0,1.21-.1,6.16,6.16,0,0,0,1.5-.39,7.26,7.26,0,0,0,1.53-.84,5.44,5.44,0,0,0,1.38-1.47,8.13,8.13,0,0,0,1-2.3,12.48,12.48,0,0,0,.37-3.27V157.32h2.69Z"/><path class="cls-5" d="M296.62,162.18a9.66,9.66,0,0,0-3.21-2.24,10.62,10.62,0,0,0-4.33-.82,10.8,10.8,0,0,0-4.56.93,10.36,10.36,0,0,0-3.41,2.5,11,11,0,0,0-2.15,3.64,13,13,0,0,0,0,8.7,10.9,10.9,0,0,0,2.15,3.64,10.22,10.22,0,0,0,3.41,2.5,10.66,10.66,0,0,0,4.56.94,15,15,0,0,0,3.94-.51,13.89,13.89,0,0,0,3.38-1.36v-8.85h-6.31v-2.46h9v13a19.39,19.39,0,0,1-4.91,2,20.38,20.38,0,0,1-5.1.69,14.25,14.25,0,0,1-5.47-1,13.41,13.41,0,0,1-4.37-2.9,13.11,13.11,0,0,1-2.89-4.39,15.25,15.25,0,0,1,0-11.12,13.07,13.07,0,0,1,7.26-7.28,14.07,14.07,0,0,1,5.47-1,15.41,15.41,0,0,1,5.47.88,11.5,11.5,0,0,1,4.09,2.67Z"/><path class="cls-5" d="M251.41,183.76h-3.14l11.5-26.44h2.61l11.5,26.44h-3.13l-2.91-6.95H254.32Zm3.92-9.41h11.46l-5.71-13.89Z"/><path class="cls-5" d="M232,178.83,241,157.32h4.11v26.44h-2.69V160.91h-.07l-9.56,22.85h-1.42l-9.56-22.85h-.07v22.85H219V157.32h4.11Z"/><path class="cls-6" d="M424.33,196.68a2.92,2.92,0,1,1,2.92-2.91A2.92,2.92,0,0,1,424.33,196.68Zm0-5.41a2.5,2.5,0,1,0,2.5,2.5A2.5,2.5,0,0,0,424.33,191.27Z"/><path class="cls-6" d="M423.29,192.32a5.18,5.18,0,0,1,.87-.07,1.48,1.48,0,0,1,1,.25.82.82,0,0,1,.27.63.84.84,0,0,1-.57.79v0a.8.8,0,0,1,.44.61,6,6,0,0,0,.24.87h-.59a4.16,4.16,0,0,1-.21-.74c-.09-.41-.24-.54-.57-.55h-.29v1.29h-.57Zm.57,1.39h.34c.39,0,.64-.21.64-.52s-.25-.5-.62-.5l-.36,0Z"/></svg>