<svg id="Capa_1" data-name="Capa 1" xmlns="http://www.w3.org/2000/svg" viewBox="0 0 1080 1080"><defs><style>.cls-1{fill:#f6b818;}</style></defs><path class="cls-1" d="M979,874.51H930V368.45a47.14,47.14,0,0,0-47.09-47.09H840.3V127a15,15,0,0,0-14.95-15H272.19a15,15,0,0,0-14.95,15V321.36h-42.6a47.15,47.15,0,0,0-47.1,47.09V874.51h-59.8a15,15,0,0,0-14.95,15c0,57.71,48.83,104.65,108.84,104.65H885.15c29.11,0,56.38-10.84,76.65-30.41A101.47,101.47,0,0,0,994,889.46,15,15,0,0,0,979,874.51ZM287.14,829.66v-598H810.4v598Zm-44.85,0V396.11h15V829.66Zm598-433.55h15V829.66h-15ZM810.4,142v59.81H287.14V142Zm-613,226.5a17.22,17.22,0,0,1,17.2-17.19h42.6v14.95h-29.9a15,15,0,0,0-15,15V844.61a15,15,0,0,0,15,14.95H870.2a15,15,0,0,0,14.95-14.95V381.16a15,15,0,0,0-14.95-15H840.3V351.26h42.61a17.21,17.21,0,0,1,17.19,17.19V874.51H697.82a14.94,14.94,0,0,0-13.23,8l-11.51,21.9H409.51L398,882.51a15,15,0,0,0-13.24-8H197.44ZM941.15,942.1c-14.8,14.26-34.68,22.11-56,22.11H201.63c-38.12,0-70-25.73-77.35-59.8H375.74l11.49,21.9a14.93,14.93,0,0,0,13.24,8H682.13a14.94,14.94,0,0,0,13.23-8l11.51-21.9H962.53a72.7,72.7,0,0,1-21.38,37.69Z"/><path class="cls-1" d="M302.09,156.9H332v29.91h-29.9Z"/><path class="cls-1" d="M346.94,156.9h29.9v29.91h-29.9Z"/><path class="cls-1" d="M391.79,156.9h29.9v29.91h-29.9Z"/><path class="cls-1" d="M317,381.16h119.6a15,15,0,0,0,14.95-15V321.36a15,15,0,0,0-14.95-14.95H317a15,15,0,0,0-15,14.95v44.85A15,15,0,0,0,317,381.16ZM332,336.31h89.7v14.95H332Z"/><path class="cls-1" d="M780.5,306.41h-299a15,15,0,0,0-14.95,14.95v44.85a15,15,0,0,0,14.95,15h299a15,15,0,0,0,15-15V321.36A15,15,0,0,0,780.5,306.41Zm-15,44.85H496.45V336.31h269.1Z"/><path class="cls-1" d="M302.09,261.56h149.5v29.9H302.09Z"/><path class="cls-1" d="M302.09,411.06H406.74V441H302.09Z"/><path class="cls-1" d="M302.09,455.91H795.45v29.9H302.09Z"/><path class="cls-1" d="M346.94,515.71a44.85,44.85,0,1,0,44.85,44.85A44.91,44.91,0,0,0,346.94,515.71Zm0,59.8a15,15,0,1,1,14.95-15A15,15,0,0,1,346.94,575.51Z"/><path class="cls-1" d="M421.69,515.71h74.76v29.9H421.69Z"/><path class="cls-1" d="M421.69,560.56H690.8v29.9H421.69Z"/><path class="cls-1" d="M346.94,620.36a44.85,44.85,0,1,0,44.85,44.85A44.91,44.91,0,0,0,346.94,620.36Zm0,59.8a14.95,14.95,0,1,1,14.95-14.95A15,15,0,0,1,346.94,680.16Z"/><path class="cls-1" d="M421.69,620.36h74.76v29.9H421.69Z"/><path class="cls-1" d="M421.69,665.21H690.8v29.9H421.69Z"/><path class="cls-1" d="M346.94,725a44.85,44.85,0,1,0,44.85,44.85A44.91,44.91,0,0,0,346.94,725Zm0,59.8a15,15,0,1,1,14.95-14.95A15,15,0,0,1,346.94,784.81Z"/><path class="cls-1" d="M421.69,725h74.76v29.9H421.69Z"/><path class="cls-1" d="M421.69,769.86H690.8v29.9H421.69Z"/></svg>