<?xml version="1.0" encoding="utf-8"?>
<!-- Generator: Adobe Illustrator 25.4.1, SVG Export Plug-In . SVG Version: 6.00 Build 0)  -->
<svg version="1.1" id="Layer_5" xmlns="http://www.w3.org/2000/svg" xmlns:xlink="http://www.w3.org/1999/xlink" x="0px" y="0px"
	 viewBox="0 0 512 512" style="enable-background:new 0 0 512 512;" xml:space="preserve">
<style type="text/css">
	.st0{fill:#F6B818;}
</style>
<path class="st0" d="M492.8,377.6C500,368,504,356,504,344V240c0-13.2-10.8-24-24-24c-3.2,0-6.2,0.6-8.9,1.8
	c-2.8-10.2-12-17.8-23.1-17.8c-6.2,0-11.7,2.4-16,6.2c-4.3-3.8-9.8-6.2-16-6.2c-2.8,0-5.5,0.6-8,1.5V128c0-3.7-0.9-7.2-2.4-10.3
	L440,83.3l28.3,28.3L491,21l-90.6,22.7L428.7,72l-34.4,34.4c-3.1-1.5-6.6-2.4-10.3-2.4c-10.4,0-19.2,6.7-22.5,16h-76.8L10.3,394.3
	l11.3,11.3L291.3,136H360v144.1c0,3.6-0.8,7.3-2.4,10.6l-6.7-33.6c-4.8-24-26.1-41.4-50.6-41.4c-11.2,0-20.3,9.1-20.3,20.3
	c0,4,1.2,7.9,3.4,11.2l8.2,12.3c3,4.6,5,9.9,5.7,15.3l5.5,44.3c0.9,7.4,3.3,14.4,6.7,20.4l26.4,54.3V408h-16v96h176v-96h-16v-13.3
	L492.8,377.6z M469,43l-9.3,37.4l-28-28L469,43z M480,424v16H336v-16H480z M336,488v-32h144v32H336z M352,408v-17.8L323.7,332
	c-2.6-4.6-4.3-9.6-5-14.9l-5.5-44.3c-1-7.9-3.8-15.6-8.3-22.2l-8.2-12.4c-0.5-0.7-0.7-1.5-0.7-2.4c0-2.4,1.9-4.3,4.3-4.3
	c16.9,0,31.6,12,34.9,28.6l10.3,51.4h19.5l6.8-13.7c2.8-5.5,4.2-11.7,4.2-17.9V128c0-4.4,3.6-8,8-8s8,3.6,8,8v96v32h16v-32
	c0-4.4,3.6-8,8-8s8,3.6,8,8v32h16v-32c0-4.4,3.6-8,8-8s8,3.6,8,8v16v16h16v-16c0-4.4,3.6-8,8-8s8,3.6,8,8v104c0,8.6-2.8,17.1-8,24
	l-16,21.3V408H352z"/>
<path class="st0" d="M112,216c57.3,0,104-46.7,104-104S169.3,8,112,8S8,54.7,8,112S54.7,216,112,216z M112,24c48.5,0,88,39.5,88,88
	s-39.5,88-88,88s-88-39.5-88-88S63.5,24,112,24z"/>
<path class="st0" d="M24,504h64v-96H24V504z M40,424h32v64H40V424z"/>
<path class="st0" d="M120,504h64V328h-64V504z M136,344h32v144h-32V344z"/>
<path class="st0" d="M216,504h64V264h-64V504z M232,280h32v208h-32V280z"/>
<g>
	<path class="st0" d="M55.7,480.3l-1.6,1.9c0,0-2.2-0.5-3.3-3.1c-1.1-2.7-3.6-8.3-3.6-8.3L55.7,480.3z"/>
	<path class="st0" d="M54.8,482.5l10.1-11.8l-3.5,8.7C61.4,479.4,60,483.5,54.8,482.5z"/>
	<polygon class="st0" points="61.2,467 54.9,478.4 56.2,479.8 59.1,476.5 	"/>
	<polygon class="st0" points="51.2,467 53,476.4 54.4,477.9 55.7,475.6 	"/>
	<polygon class="st0" points="56.1,474.9 54.6,471.9 56.1,466.4 57.7,471.9 	"/>
</g>
<g>
	<path class="st0" d="M55.8,462.2l-1.6,1.9c0,0-2.2-0.5-3.3-3.1s-3.6-8.3-3.6-8.3L55.8,462.2z"/>
	<path class="st0" d="M54.9,464.3L65,452.5l-3.5,8.7C61.5,461.2,60,465.3,54.9,464.3z"/>
	<polygon class="st0" points="61.2,448.8 55,460.2 56.3,461.6 59.2,458.3 	"/>
	<polygon class="st0" points="51.3,448.8 53.1,458.3 54.5,459.7 55.8,457.5 	"/>
	<polygon class="st0" points="56.1,456.7 54.6,453.7 56.2,448.2 57.8,453.7 	"/>
</g>
<g>
	<path class="st0" d="M55.7,443.3l-1.6,1.9c0,0-2.2-0.5-3.3-3.1c-1.1-2.7-3.6-8.3-3.6-8.3L55.7,443.3z"/>
	<path class="st0" d="M54.8,445.4l10.1-11.8l-3.5,8.7C61.4,442.4,60,446.5,54.8,445.4z"/>
	<polygon class="st0" points="61.2,429.9 54.9,441.4 56.2,442.7 59.1,439.4 	"/>
	<polygon class="st0" points="51.2,429.9 53,439.4 54.4,440.9 55.7,438.6 	"/>
	<polygon class="st0" points="56.1,437.9 54.6,434.8 56.1,429.4 57.7,434.9 	"/>
</g>
<g>
	<path class="st0" d="M109,160.5l-13.4,16.1c0,0-18.1-4.1-27.4-26.2S38.5,81.1,38.5,81.1L109,160.5z"/>
	<path class="st0" d="M101.3,178.1L185.5,80l-29.4,72.8C156.1,152.8,144.2,186.9,101.3,178.1z"/>
	<polygon class="st0" points="154.4,49.1 102.4,144.4 113,155.7 137.1,128.2 	"/>
	<polygon class="st0" points="71.7,49.1 86.4,127.9 98.2,140.1 108.7,121.2 	"/>
	<polygon class="st0" points="111.9,115.2 99.3,89.8 112.4,44.5 125.7,90.4 	"/>
</g>
<g>
	<path class="st0" d="M151.8,477.7l-1.6,1.9c0,0-2.2-0.5-3.3-3.1c-1.1-2.7-3.6-8.3-3.6-8.3L151.8,477.7z"/>
	<path class="st0" d="M150.8,479.8L161,468l-3.5,8.7C157.4,476.8,156,480.9,150.8,479.8z"/>
	<polygon class="st0" points="157.2,464.3 151,475.8 152.2,477.1 155.1,473.8 	"/>
	<polygon class="st0" points="147.3,464.3 149,473.8 150.5,475.3 151.7,473 	"/>
	<polygon class="st0" points="152.1,472.3 150.6,469.2 152.2,463.8 153.8,469.3 	"/>
</g>
<g>
	<path class="st0" d="M151.8,459.5l-1.6,1.9c0,0-2.2-0.5-3.3-3.1c-1.1-2.7-3.6-8.3-3.6-8.3L151.8,459.5z"/>
	<path class="st0" d="M150.9,461.7l10.1-11.8l-3.5,8.7C157.5,458.6,156,462.7,150.9,461.7z"/>
	<polygon class="st0" points="157.3,446.2 151,457.6 152.3,459 155.2,455.7 	"/>
	<polygon class="st0" points="147.3,446.2 149.1,455.6 150.5,457.1 151.8,454.8 	"/>
	<polygon class="st0" points="152.2,454.1 150.7,451.1 152.2,445.6 153.8,451.1 	"/>
</g>
<g>
	<path class="st0" d="M151.8,440.7l-1.6,1.9c0,0-2.2-0.5-3.3-3.1c-1.1-2.7-3.6-8.3-3.6-8.3L151.8,440.7z"/>
	<path class="st0" d="M150.8,442.8L161,431l-3.5,8.7C157.4,439.8,156,443.9,150.8,442.8z"/>
	<polygon class="st0" points="157.2,427.3 151,438.8 152.2,440.1 155.1,436.8 	"/>
	<polygon class="st0" points="147.3,427.3 149,436.8 150.5,438.2 151.7,436 	"/>
	<polygon class="st0" points="152.1,435.2 150.6,432.2 152.2,426.7 153.8,432.3 	"/>
</g>
<g>
	<path class="st0" d="M151.8,421.8l-1.6,1.9c0,0-2.2-0.5-3.3-3.1s-3.6-8.3-3.6-8.3L151.8,421.8z"/>
	<path class="st0" d="M150.9,423.9l10.1-11.8l-3.5,8.7C157.5,420.9,156,425,150.9,423.9z"/>
	<polygon class="st0" points="157.2,408.4 151,419.9 152.3,421.3 155.2,417.9 	"/>
	<polygon class="st0" points="147.3,408.4 149.1,417.9 150.5,419.4 151.8,417.1 	"/>
	<polygon class="st0" points="152.1,416.4 150.6,413.3 152.2,407.9 153.8,413.4 	"/>
</g>
<g>
	<path class="st0" d="M151.9,403.7l-1.6,1.9c0,0-2.2-0.5-3.3-3.1c-1.1-2.7-3.6-8.3-3.6-8.3L151.9,403.7z"/>
	<path class="st0" d="M150.9,405.8L161,394l-3.5,8.7C157.5,402.7,156.1,406.8,150.9,405.8z"/>
	<polygon class="st0" points="157.3,390.3 151.1,401.7 152.3,403.1 155.2,399.8 	"/>
	<polygon class="st0" points="147.4,390.3 149.1,399.7 150.6,401.2 151.8,398.9 	"/>
	<polygon class="st0" points="152.2,398.2 150.7,395.2 152.3,389.7 153.9,395.2 	"/>
</g>
<g>
	<path class="st0" d="M151.8,384.8l-1.6,1.9c0,0-2.2-0.5-3.3-3.1s-3.6-8.3-3.6-8.3L151.8,384.8z"/>
	<path class="st0" d="M150.9,386.9l10.1-11.8l-3.5,8.7C157.5,383.9,156,388,150.9,386.9z"/>
	<polygon class="st0" points="157.2,371.4 151,382.9 152.3,384.2 155.2,380.9 	"/>
	<polygon class="st0" points="147.3,371.4 149.1,380.9 150.5,382.3 151.8,380.1 	"/>
	<polygon class="st0" points="152.1,379.4 150.6,376.3 152.2,370.9 153.8,376.4 	"/>
</g>
<g>
	<path class="st0" d="M151.8,365.9l-1.6,1.9c0,0-2.2-0.5-3.3-3.1c-1.1-2.7-3.6-8.3-3.6-8.3L151.8,365.9z"/>
	<path class="st0" d="M150.9,368.1l10.1-11.8l-3.5,8.7C157.5,365,156,369.1,150.9,368.1z"/>
	<polygon class="st0" points="157.3,352.6 151,364 152.3,365.4 155.2,362.1 	"/>
	<polygon class="st0" points="147.3,352.6 149.1,362 150.5,363.5 151.8,361.2 	"/>
	<polygon class="st0" points="152.2,360.5 150.7,357.5 152.2,352 153.8,357.5 	"/>
</g>
<g>
	<path class="st0" d="M247.6,483.7l-1.6,1.9c0,0-2.2-0.5-3.3-3.1s-3.6-8.3-3.6-8.3L247.6,483.7z"/>
	<path class="st0" d="M246.7,485.9l10.1-11.8l-3.5,8.7C253.3,482.8,251.8,486.9,246.7,485.9z"/>
	<polygon class="st0" points="253,470.4 246.8,481.8 248.1,483.2 251,479.9 	"/>
	<polygon class="st0" points="243.1,470.4 244.9,479.8 246.3,481.3 247.6,479 	"/>
	<polygon class="st0" points="247.9,478.3 246.4,475.2 248,469.8 249.6,475.3 	"/>
</g>
<g>
	<path class="st0" d="M247.7,465.6l-1.6,1.9c0,0-2.2-0.5-3.3-3.1s-3.6-8.3-3.6-8.3L247.7,465.6z"/>
	<path class="st0" d="M246.7,467.7l10.1-11.8l-3.5,8.7C253.3,464.6,251.9,468.7,246.7,467.7z"/>
	<polygon class="st0" points="253.1,452.2 246.9,463.6 248.1,465 251,461.7 	"/>
	<polygon class="st0" points="243.2,452.2 244.9,461.7 246.4,463.1 247.6,460.8 	"/>
	<polygon class="st0" points="248,460.1 246.5,457.1 248.1,451.6 249.7,457.1 	"/>
</g>
<g>
	<path class="st0" d="M247.6,446.7l-1.6,1.9c0,0-2.2-0.5-3.3-3.1c-1.1-2.7-3.6-8.3-3.6-8.3L247.6,446.7z"/>
	<path class="st0" d="M246.7,448.8l10.1-11.8l-3.5,8.7C253.3,445.8,251.8,449.9,246.7,448.8z"/>
	<polygon class="st0" points="253,433.3 246.8,444.8 248.1,446.1 251,442.8 	"/>
	<polygon class="st0" points="243.1,433.3 244.9,442.8 246.3,444.3 247.6,442 	"/>
	<polygon class="st0" points="247.9,441.3 246.4,438.2 248,432.8 249.6,438.3 	"/>
</g>
<g>
	<path class="st0" d="M247.6,427.9l-1.6,1.9c0,0-2.2-0.5-3.3-3.1s-3.6-8.3-3.6-8.3L247.6,427.9z"/>
	<path class="st0" d="M246.7,430l10.1-11.8l-3.5,8.7C253.3,426.9,251.8,431,246.7,430z"/>
	<polygon class="st0" points="253.1,414.5 246.8,425.9 248.1,427.3 251,424 	"/>
	<polygon class="st0" points="243.1,414.5 244.9,423.9 246.3,425.4 247.6,423.1 	"/>
	<polygon class="st0" points="248,422.4 246.5,419.4 248,413.9 249.6,419.4 	"/>
</g>
<g>
	<path class="st0" d="M247.7,409.7l-1.6,1.9c0,0-2.2-0.5-3.3-3.1s-3.6-8.3-3.6-8.3L247.7,409.7z"/>
	<path class="st0" d="M246.8,411.8l10.1-11.8l-3.5,8.7C253.3,408.8,251.9,412.8,246.8,411.8z"/>
	<polygon class="st0" points="253.1,396.3 246.9,407.8 248.2,409.1 251.1,405.8 	"/>
	<polygon class="st0" points="243.2,396.3 245,405.8 246.4,407.2 247.6,405 	"/>
	<polygon class="st0" points="248,404.2 246.5,401.2 248.1,395.7 249.7,401.3 	"/>
</g>
<g>
	<path class="st0" d="M247.6,390.8l-1.6,1.9c0,0-2.2-0.5-3.3-3.1s-3.6-8.3-3.6-8.3L247.6,390.8z"/>
	<path class="st0" d="M246.7,392.9l10.1-11.8l-3.5,8.7C253.3,389.9,251.8,394,246.7,392.9z"/>
	<polygon class="st0" points="253.1,377.4 246.8,388.9 248.1,390.3 251,386.9 	"/>
	<polygon class="st0" points="243.1,377.4 244.9,386.9 246.3,388.4 247.6,386.1 	"/>
	<polygon class="st0" points="248,385.4 246.5,382.3 248,376.9 249.6,382.4 	"/>
</g>
<g>
	<path class="st0" d="M247.7,372l-1.6,1.9c0,0-2.2-0.5-3.3-3.1c-1.1-2.7-3.6-8.3-3.6-8.3L247.7,372z"/>
	<path class="st0" d="M246.7,374.1l10.1-11.8l-3.5,8.7C253.3,371,251.9,375.1,246.7,374.1z"/>
	<polygon class="st0" points="253.1,358.6 246.9,370 248.1,371.4 251,368.1 	"/>
	<polygon class="st0" points="243.2,358.6 244.9,368.1 246.4,369.5 247.6,367.2 	"/>
	<polygon class="st0" points="248,366.5 246.5,363.5 248.1,358 249.7,363.5 	"/>
</g>
<g>
	<path class="st0" d="M247.7,353.1l-1.6,1.9c0,0-2.2-0.5-3.3-3.1s-3.6-8.3-3.6-8.3L247.7,353.1z"/>
	<path class="st0" d="M246.8,355.2l10.1-11.8l-3.5,8.7C253.4,352.2,252,356.3,246.8,355.2z"/>
	<polygon class="st0" points="253.2,339.7 247,351.2 248.2,352.5 251.1,349.2 	"/>
	<polygon class="st0" points="243.3,339.7 245,349.2 246.5,350.7 247.7,348.4 	"/>
	<polygon class="st0" points="248.1,347.7 246.6,344.6 248.2,339.2 249.8,344.7 	"/>
</g>
<g>
	<path class="st0" d="M247.8,334.3l-1.6,1.9c0,0-2.2-0.5-3.3-3.1s-3.6-8.3-3.6-8.3L247.8,334.3z"/>
	<path class="st0" d="M246.9,336.4l10.1-11.8l-3.5,8.7C253.5,333.3,252,337.4,246.9,336.4z"/>
	<polygon class="st0" points="253.3,320.9 247,332.3 248.3,333.7 251.2,330.4 	"/>
	<polygon class="st0" points="243.3,320.9 245.1,330.3 246.5,331.8 247.8,329.5 	"/>
	<polygon class="st0" points="248.2,328.8 246.7,325.8 248.2,320.3 249.8,325.8 	"/>
</g>
<g>
	<path class="st0" d="M247.8,315.4l-1.6,1.9c0,0-2.2-0.5-3.3-3.1s-3.6-8.3-3.6-8.3L247.8,315.4z"/>
	<path class="st0" d="M246.9,317.5l10.1-11.8l-3.5,8.7C253.5,314.5,252,318.6,246.9,317.5z"/>
	<polygon class="st0" points="253.3,302 247,313.5 248.3,314.8 251.2,311.5 	"/>
	<polygon class="st0" points="243.3,302 245.1,311.5 246.5,312.9 247.8,310.7 	"/>
	<polygon class="st0" points="248.2,310 246.7,306.9 248.2,301.5 249.8,307 	"/>
</g>
<g>
	<path class="st0" d="M247.2,296.5l-1.6,1.9c0,0-2.2-0.5-3.3-3.1s-3.6-8.3-3.6-8.3L247.2,296.5z"/>
	<path class="st0" d="M246.3,298.7l10.1-11.8l-3.5,8.7C252.9,295.6,251.4,299.7,246.3,298.7z"/>
	<polygon class="st0" points="252.7,283.2 246.4,294.6 247.7,296 250.6,292.7 	"/>
	<polygon class="st0" points="242.7,283.2 244.5,292.6 245.9,294.1 247.2,291.8 	"/>
	<polygon class="st0" points="247.6,291.1 246.1,288 247.6,282.6 249.2,288.1 	"/>
</g>
</svg>
