<svg id="Capa_1" data-name="Capa 1" xmlns="http://www.w3.org/2000/svg" viewBox="0 0 1080 1080"><defs><style>.cls-1{fill:#f6b818;}.cls-2{fill:#fff;}.cls-3{fill:#878787;}</style></defs><path class="cls-1" d="M834.41,355.77H218.83l-95.75,465.1h793.4Z"/><path class="cls-2" d="M412.54,342.09H218.84A13.68,13.68,0,0,0,205.44,353l-95.75,465.1a13.7,13.7,0,0,0,13.39,16.44H916.49a13.68,13.68,0,0,0,13.67-13.7,13.36,13.36,0,0,0-.21-2.36l-82.07-465.1a13.67,13.67,0,0,0-13.47-11.3H412.54Zm203,465.1H139.86L199,519.92l5.64-27.36L230,369.45h593l50.69,287.26,4.82,27.36,21.73,123.12H615.54Z"/><path class="cls-2" d="M249,403.16l-2.78,3.35a9,9,0,0,1-5.67-5.43c-1.93-4.58-6.15-14.34-6.15-14.34Z"/><path class="cls-2" d="M247.37,406.8l17.44-20.31-6.09,15.07S256.25,408.62,247.37,406.8Z"/><polygon class="cls-2" points="258.36 380.11 247.6 399.84 249.8 402.18 254.79 396.47 258.36 380.11"/><polygon class="cls-2" points="241.24 380.11 244.29 396.42 246.74 398.94 248.9 395.03 241.24 380.11"/><polygon class="cls-2" points="249.57 393.8 246.97 388.54 249.68 379.14 252.43 388.65 249.57 393.8"/><path class="cls-2" d="M284.76,403.84,282,407.18a8.94,8.94,0,0,1-5.66-5.43c-1.93-4.58-6.15-14.34-6.15-14.34Z"/><path class="cls-2" d="M283.17,407.48l17.43-20.32-6.08,15.08S292,409.3,283.17,407.48Z"/><polygon class="cls-2" points="294.16 380.78 283.39 400.51 285.6 402.85 290.58 397.14 294.16 380.78"/><polygon class="cls-2" points="277.04 380.78 280.09 397.1 282.54 399.61 284.7 395.7 277.04 380.78"/><polygon class="cls-2" points="285.37 394.47 282.76 389.21 285.48 379.81 288.22 389.32 285.37 394.47"/><path class="cls-2" d="M318.62,403.84l-2.78,3.34a9,9,0,0,1-5.67-5.43c-1.93-4.58-6.15-14.34-6.15-14.34Z"/><path class="cls-2" d="M317,407.48l17.44-20.32-6.09,15.08S325.9,409.3,317,407.48Z"/><polygon class="cls-2" points="328.01 380.78 317.25 400.51 319.45 402.85 324.44 397.14 328.01 380.78"/><polygon class="cls-2" points="310.89 380.78 313.95 397.1 316.39 399.61 318.55 395.7 310.89 380.78"/><polygon class="cls-2" points="319.23 394.47 316.62 389.21 319.33 379.81 322.08 389.32 319.23 394.47"/><path class="cls-2" d="M240.62,435.92l-2.78,3.34a9,9,0,0,1-5.67-5.43c-1.92-4.58-6.14-14.34-6.14-14.34Z"/><path class="cls-2" d="M239,439.56l17.43-20.31-6.08,15.07S247.9,441.38,239,439.56Z"/><polygon class="cls-2" points="250.01 412.86 239.25 432.59 241.45 434.93 246.44 429.22 250.01 412.86"/><polygon class="cls-2" points="232.9 412.86 235.95 429.18 238.4 431.69 240.55 427.78 232.9 412.86"/><polygon class="cls-2" points="241.23 426.55 238.62 421.29 241.34 411.89 244.08 421.4 241.23 426.55"/><path class="cls-2" d="M280.24,437.9l-2.78,3.34a8.93,8.93,0,0,1-5.66-5.42c-1.93-4.59-6.15-14.35-6.15-14.35Z"/><path class="cls-2" d="M278.65,441.54l17.44-20.31L290,436.3S287.52,443.36,278.65,441.54Z"/><polygon class="cls-2" points="289.64 414.84 278.87 434.57 281.08 436.91 286.06 431.2 289.64 414.84"/><polygon class="cls-2" points="272.52 414.84 275.57 431.16 278.02 433.68 280.18 429.77 272.52 414.84"/><polygon class="cls-2" points="280.85 428.53 278.25 423.27 280.96 413.88 283.7 423.38 280.85 428.53"/><path class="cls-2" d="M314.1,438.57l-2.78,3.34a8.94,8.94,0,0,1-5.67-5.42c-1.93-4.58-6.14-14.35-6.14-14.35Z"/><path class="cls-2" d="M312.51,442.21l17.43-20.31L323.86,437S321.38,444,312.51,442.21Z"/><polygon class="cls-2" points="323.49 415.51 312.73 435.25 314.93 437.58 319.92 431.88 323.49 415.51"/><polygon class="cls-2" points="306.38 415.51 309.43 431.83 311.88 434.35 314.03 430.44 306.38 415.51"/><polygon class="cls-2" points="314.71 429.2 312.1 423.94 314.81 414.55 317.56 424.06 314.71 429.2"/><path class="cls-2" d="M233.75,469.53,231,472.87a8.94,8.94,0,0,1-5.67-5.42c-1.93-4.58-6.14-14.35-6.14-14.35Z"/><path class="cls-2" d="M232.16,473.17l17.43-20.31-6.08,15.07S241,475,232.16,473.17Z"/><polygon class="cls-2" points="243.14 446.47 232.38 466.21 234.58 468.54 239.57 462.84 243.14 446.47"/><polygon class="cls-2" points="226.03 446.47 229.08 462.79 231.53 465.31 233.68 461.4 226.03 446.47"/><polygon class="cls-2" points="234.36 460.16 231.75 454.9 234.46 445.51 237.21 455.02 234.36 460.16"/><path class="cls-2" d="M274.82,471.33,272,474.67a8.91,8.91,0,0,1-5.66-5.42c-1.93-4.58-6.15-14.35-6.15-14.35Z"/><path class="cls-2" d="M273.23,475l17.43-20.31-6.08,15.07S282.1,476.79,273.23,475Z"/><polygon class="cls-2" points="284.22 448.27 273.45 468.01 275.65 470.34 280.64 464.64 284.22 448.27"/><polygon class="cls-2" points="267.1 448.27 270.15 464.59 272.6 467.11 274.76 463.2 267.1 448.27"/><polygon class="cls-2" points="275.43 461.96 272.82 456.7 275.54 447.31 278.28 456.82 275.43 461.96"/><path class="cls-2" d="M312.2,470.2l-2.78,3.34a8.93,8.93,0,0,1-5.66-5.42c-1.93-4.58-6.15-14.34-6.15-14.34Z"/><path class="cls-2" d="M310.61,473.84l17.44-20.31L322,468.6S319.48,475.66,310.61,473.84Z"/><polygon class="cls-2" points="321.6 447.14 310.83 466.88 313.04 469.22 318.02 463.51 321.6 447.14"/><polygon class="cls-2" points="304.48 447.14 307.53 463.46 309.98 465.98 312.14 462.07 304.48 447.14"/><polygon class="cls-2" points="312.81 460.83 310.2 455.58 312.92 446.18 315.67 455.69 312.81 460.83"/><path class="cls-2" d="M353.83,405.05,351,408.39a8.93,8.93,0,0,1-5.66-5.42c-1.93-4.58-6.15-14.35-6.15-14.35Z"/><path class="cls-2" d="M352.23,408.69l17.44-20.31-6.09,15.07S361.11,410.51,352.23,408.69Z"/><polygon class="cls-2" points="363.22 381.99 352.45 401.73 354.66 404.06 359.64 398.36 363.22 381.99"/><polygon class="cls-2" points="346.1 381.99 349.15 398.31 351.6 400.83 353.76 396.92 346.1 381.99"/><polygon class="cls-2" points="354.43 395.68 351.83 390.42 354.54 381.03 357.29 390.54 354.43 395.68"/><path class="cls-2" d="M389.62,405.72l-2.78,3.34a8.94,8.94,0,0,1-5.67-5.42c-1.93-4.58-6.15-14.34-6.15-14.34Z"/><path class="cls-2" d="M388,409.36l17.44-20.31-6.09,15.07S396.9,411.18,388,409.36Z"/><polygon class="cls-2" points="399.01 382.67 388.25 402.4 390.45 404.74 395.44 399.03 399.01 382.67"/><polygon class="cls-2" points="381.9 382.67 384.95 398.98 387.4 401.5 389.55 397.59 381.9 382.67"/><polygon class="cls-2" points="390.23 396.35 387.62 391.1 390.33 381.7 393.08 391.21 390.23 396.35"/><path class="cls-2" d="M423.48,405.72l-2.79,3.34a8.93,8.93,0,0,1-5.66-5.42c-1.93-4.58-6.15-14.34-6.15-14.34Z"/><path class="cls-2" d="M421.88,409.36l17.44-20.31-6.09,15.07S430.76,411.18,421.88,409.36Z"/><polygon class="cls-2" points="432.87 382.67 422.11 402.4 424.31 404.74 429.3 399.03 432.87 382.67"/><polygon class="cls-2" points="415.75 382.67 418.8 398.98 421.25 401.5 423.41 397.59 415.75 382.67"/><polygon class="cls-2" points="424.08 396.35 421.48 391.1 424.19 381.7 426.94 391.21 424.08 396.35"/><path class="cls-2" d="M348.93,438.44l-2.78,3.34a8.94,8.94,0,0,1-5.67-5.42c-1.93-4.58-6.15-14.35-6.15-14.35Z"/><path class="cls-2" d="M347.33,442.08l17.44-20.31-6.09,15.07S356.21,443.9,347.33,442.08Z"/><polygon class="cls-2" points="358.32 415.38 347.56 435.12 349.76 437.45 354.75 431.75 358.32 415.38"/><polygon class="cls-2" points="341.2 415.38 344.26 431.7 346.7 434.22 348.86 430.31 341.2 415.38"/><polygon class="cls-2" points="349.54 429.07 346.93 423.81 349.64 414.42 352.39 423.93 349.54 429.07"/><path class="cls-2" d="M384.72,439.11l-2.78,3.34a8.91,8.91,0,0,1-5.66-5.42c-1.93-4.58-6.15-14.34-6.15-14.34Z"/><path class="cls-2" d="M383.13,442.75l17.43-20.31-6.08,15.07S392,444.57,383.13,442.75Z"/><polygon class="cls-2" points="394.12 416.06 383.35 435.79 385.56 438.13 390.54 432.42 394.12 416.06"/><polygon class="cls-2" points="377 416.06 380.05 432.37 382.5 434.89 384.66 430.98 377 416.06"/><polygon class="cls-2" points="385.33 429.74 382.72 424.49 385.44 415.09 388.18 424.6 385.33 429.74"/><path class="cls-2" d="M419.58,439.11l-2.78,3.34a8.94,8.94,0,0,1-5.67-5.42c-1.93-4.58-6.15-14.34-6.15-14.34Z"/><path class="cls-2" d="M418,442.75l17.44-20.31-6.09,15.07S426.86,444.57,418,442.75Z"/><polygon class="cls-2" points="428.97 416.06 418.21 435.79 420.41 438.13 425.4 432.42 428.97 416.06"/><polygon class="cls-2" points="411.86 416.06 414.91 432.37 417.36 434.89 419.51 430.98 411.86 416.06"/><polygon class="cls-2" points="420.19 429.74 417.58 424.49 420.29 415.09 423.04 424.6 420.19 429.74"/><path class="cls-2" d="M453.91,437.9l-2.78,3.34a8.94,8.94,0,0,1-5.67-5.42c-1.92-4.59-6.14-14.35-6.14-14.35Z"/><path class="cls-2" d="M452.32,441.54l17.43-20.31-6.08,15.07S461.19,443.36,452.32,441.54Z"/><polygon class="cls-2" points="463.31 414.84 452.54 434.57 454.74 436.91 459.73 431.2 463.31 414.84"/><polygon class="cls-2" points="446.19 414.84 449.24 431.16 451.69 433.68 453.85 429.77 446.19 414.84"/><polygon class="cls-2" points="454.52 428.53 451.91 423.27 454.63 413.88 457.37 423.38 454.52 428.53"/><path class="cls-2" d="M451.76,470.75,449,474.09a9,9,0,0,1-5.66-5.43c-1.93-4.58-6.15-14.34-6.15-14.34Z"/><path class="cls-2" d="M450.16,474.39l17.44-20.32-6.09,15.08S459,476.21,450.16,474.39Z"/><polygon class="cls-2" points="461.15 447.69 450.39 467.42 452.59 469.76 457.58 464.05 461.15 447.69"/><polygon class="cls-2" points="444.03 447.69 447.08 464.01 449.53 466.52 451.69 462.61 444.03 447.69"/><polygon class="cls-2" points="452.36 461.38 449.76 456.12 452.47 446.72 455.22 456.23 452.36 461.38"/><path class="cls-2" d="M456.75,404.51,454,407.85a8.94,8.94,0,0,1-5.67-5.42c-1.93-4.59-6.15-14.35-6.15-14.35Z"/><path class="cls-2" d="M455.15,408.15l17.44-20.31-6.09,15.07S464,410,455.15,408.15Z"/><polygon class="cls-2" points="466.14 381.45 455.38 401.18 457.58 403.52 462.57 397.81 466.14 381.45"/><polygon class="cls-2" points="449.02 381.45 452.08 397.77 454.53 400.29 456.68 396.38 449.02 381.45"/><polygon class="cls-2" points="457.36 395.14 454.75 389.88 457.46 380.49 460.21 389.99 457.36 395.14"/><path class="cls-2" d="M348.93,470.07l-2.78,3.35a9,9,0,0,1-5.67-5.43c-1.93-4.58-6.15-14.34-6.15-14.34Z"/><path class="cls-2" d="M347.33,473.71l17.44-20.31-6.09,15.07S356.21,475.53,347.33,473.71Z"/><polygon class="cls-2" points="358.32 447.02 347.56 466.75 349.76 469.09 354.75 463.38 358.32 447.02"/><polygon class="cls-2" points="341.2 447.02 344.26 463.33 346.7 465.85 348.86 461.94 341.2 447.02"/><polygon class="cls-2" points="349.54 460.7 346.93 455.45 349.64 446.05 352.39 455.56 349.54 460.7"/><path class="cls-2" d="M382.72,470.75l-2.78,3.34a8.94,8.94,0,0,1-5.66-5.43c-1.93-4.58-6.15-14.34-6.15-14.34Z"/><path class="cls-2" d="M381.13,474.39l17.43-20.32-6.08,15.08S390,476.21,381.13,474.39Z"/><polygon class="cls-2" points="392.12 447.69 381.35 467.42 383.56 469.76 388.54 464.05 392.12 447.69"/><polygon class="cls-2" points="375 447.69 378.05 464.01 380.5 466.52 382.66 462.61 375 447.69"/><polygon class="cls-2" points="383.33 461.38 380.72 456.12 383.44 446.72 386.18 456.23 383.33 461.38"/><path class="cls-2" d="M417.58,470.75l-2.78,3.34a9,9,0,0,1-5.67-5.43c-1.93-4.58-6.15-14.34-6.15-14.34Z"/><path class="cls-2" d="M416,474.39l17.44-20.32-6.09,15.08S424.86,476.21,416,474.39Z"/><polygon class="cls-2" points="426.97 447.69 416.21 467.42 418.41 469.76 423.4 464.05 426.97 447.69"/><polygon class="cls-2" points="409.86 447.69 412.91 464.01 415.36 466.52 417.51 462.61 409.86 447.69"/><polygon class="cls-2" points="418.19 461.38 415.58 456.12 418.29 446.72 421.04 456.23 418.19 461.38"/><path class="cls-2" d="M499.57,402.51l-2.79,3.34a9,9,0,0,1-5.66-5.43c-1.93-4.58-6.15-14.34-6.15-14.34Z"/><path class="cls-2" d="M498,406.15l17.44-20.32-6.09,15.07S506.85,408,498,406.15Z"/><polygon class="cls-2" points="508.96 379.45 498.2 399.18 500.4 401.52 505.39 395.81 508.96 379.45"/><polygon class="cls-2" points="491.84 379.45 494.89 395.76 497.34 398.28 499.5 394.37 491.84 379.45"/><polygon class="cls-2" points="500.17 393.14 497.57 387.88 500.28 378.48 503.03 387.99 500.17 393.14"/><path class="cls-2" d="M535.36,403.18l-2.78,3.34a8.94,8.94,0,0,1-5.67-5.43c-1.93-4.58-6.14-14.34-6.14-14.34Z"/><path class="cls-2" d="M533.77,406.82l17.43-20.31-6.08,15.07S542.64,408.64,533.77,406.82Z"/><polygon class="cls-2" points="544.75 380.12 533.99 399.85 536.19 402.19 541.18 396.48 544.75 380.12"/><polygon class="cls-2" points="527.64 380.12 530.69 396.44 533.14 398.95 535.29 395.04 527.64 380.12"/><polygon class="cls-2" points="535.97 393.81 533.36 388.55 536.08 379.15 538.82 388.66 535.97 393.81"/><path class="cls-2" d="M569.22,403.18l-2.79,3.34a8.93,8.93,0,0,1-5.66-5.43c-1.93-4.58-6.15-14.34-6.15-14.34Z"/><path class="cls-2" d="M567.62,406.82l17.44-20.31L579,401.58S576.5,408.64,567.62,406.82Z"/><polygon class="cls-2" points="578.61 380.12 567.85 399.85 570.05 402.19 575.04 396.48 578.61 380.12"/><polygon class="cls-2" points="561.49 380.12 564.54 396.44 566.99 398.95 569.15 395.04 561.49 380.12"/><polygon class="cls-2" points="569.82 393.81 567.22 388.55 569.93 379.15 572.68 388.66 569.82 393.81"/><path class="cls-2" d="M491.22,435.26l-2.78,3.34a8.94,8.94,0,0,1-5.67-5.43c-1.93-4.58-6.15-14.34-6.15-14.34Z"/><path class="cls-2" d="M489.62,438.9l17.44-20.31L501,433.66S498.5,440.72,489.62,438.9Z"/><polygon class="cls-2" points="500.61 412.2 489.85 431.93 492.05 434.27 497.04 428.56 500.61 412.2"/><polygon class="cls-2" points="483.5 412.2 486.55 428.52 489 431.03 491.15 427.13 483.5 412.2"/><polygon class="cls-2" points="491.83 425.89 489.22 420.63 491.93 411.24 494.68 420.74 491.83 425.89"/><path class="cls-2" d="M530.84,437.24l-2.78,3.34a8.94,8.94,0,0,1-5.67-5.42c-1.92-4.58-6.14-14.35-6.14-14.35Z"/><path class="cls-2" d="M529.25,440.88l17.43-20.31-6.08,15.07S538.12,442.7,529.25,440.88Z"/><polygon class="cls-2" points="540.24 414.18 529.47 433.92 531.67 436.25 536.66 430.55 540.24 414.18"/><polygon class="cls-2" points="523.12 414.18 526.17 430.5 528.62 433.02 530.77 429.11 523.12 414.18"/><polygon class="cls-2" points="531.45 427.87 528.84 422.61 531.56 413.22 534.3 422.73 531.45 427.87"/><path class="cls-2" d="M564.7,437.91l-2.78,3.34a8.94,8.94,0,0,1-5.67-5.42c-1.93-4.58-6.15-14.35-6.15-14.35Z"/><path class="cls-2" d="M563.1,441.55l17.44-20.31-6.09,15.07S572,443.37,563.1,441.55Z"/><polygon class="cls-2" points="574.09 414.85 563.33 434.59 565.53 436.92 570.52 431.22 574.09 414.85"/><polygon class="cls-2" points="556.97 414.85 560.02 431.17 562.47 433.69 564.63 429.78 556.97 414.85"/><polygon class="cls-2" points="565.3 428.54 562.7 423.29 565.41 413.89 568.16 423.4 565.3 428.54"/><path class="cls-2" d="M484.35,468.87l-2.78,3.34a8.94,8.94,0,0,1-5.67-5.42c-1.93-4.58-6.15-14.35-6.15-14.35Z"/><path class="cls-2" d="M482.75,472.51l17.44-20.31-6.09,15.07S491.63,474.33,482.75,472.51Z"/><polygon class="cls-2" points="493.74 445.81 482.98 465.55 485.18 467.88 490.17 462.18 493.74 445.81"/><polygon class="cls-2" points="476.62 445.81 479.68 462.13 482.12 464.65 484.28 460.74 476.62 445.81"/><polygon class="cls-2" points="484.95 459.5 482.35 454.25 485.06 444.85 487.81 454.36 484.95 459.5"/><path class="cls-2" d="M525.42,470.67,522.64,474a8.94,8.94,0,0,1-5.67-5.42c-1.93-4.58-6.14-14.35-6.14-14.35Z"/><path class="cls-2" d="M523.83,474.31,541.26,454l-6.08,15.07S532.7,476.13,523.83,474.31Z"/><polygon class="cls-2" points="534.81 447.61 524.05 467.35 526.25 469.68 531.24 463.98 534.81 447.61"/><polygon class="cls-2" points="517.7 447.61 520.75 463.93 523.2 466.45 525.35 462.54 517.7 447.61"/><polygon class="cls-2" points="526.03 461.3 523.42 456.05 526.13 446.65 528.88 456.16 526.03 461.3"/><path class="cls-2" d="M562.8,469.55,560,472.89a9,9,0,0,1-5.67-5.43c-1.92-4.58-6.14-14.34-6.14-14.34Z"/><path class="cls-2" d="M561.21,473.19l17.43-20.32-6.08,15.07S570.08,475,561.21,473.19Z"/><polygon class="cls-2" points="572.2 446.49 561.43 466.22 563.63 468.56 568.62 462.85 572.2 446.49"/><polygon class="cls-2" points="555.08 446.49 558.13 462.81 560.58 465.32 562.74 461.41 555.08 446.49"/><polygon class="cls-2" points="563.41 460.18 560.8 454.92 563.52 445.52 566.26 455.03 563.41 460.18"/><path class="cls-2" d="M604.42,404.39l-2.78,3.34a8.91,8.91,0,0,1-5.66-5.42c-1.93-4.58-6.15-14.35-6.15-14.35Z"/><path class="cls-2" d="M602.83,408l17.43-20.31-6.08,15.07S611.7,409.85,602.83,408Z"/><polygon class="cls-2" points="613.82 381.33 603.05 401.07 605.25 403.4 610.24 397.7 613.82 381.33"/><polygon class="cls-2" points="596.7 381.33 599.75 397.65 602.2 400.17 604.36 396.26 596.7 381.33"/><polygon class="cls-2" points="605.03 395.02 602.42 389.77 605.14 380.37 607.88 389.88 605.03 395.02"/><path class="cls-2" d="M640.22,405.07l-2.78,3.34a9,9,0,0,1-5.67-5.43c-1.93-4.58-6.15-14.34-6.15-14.34Z"/><path class="cls-2" d="M638.62,408.71l17.44-20.32L650,403.46S647.5,410.53,638.62,408.71Z"/><polygon class="cls-2" points="649.61 382.01 638.85 401.74 641.05 404.08 646.04 398.37 649.61 382.01"/><polygon class="cls-2" points="632.49 382.01 635.54 398.32 637.99 400.84 640.15 396.93 632.49 382.01"/><polygon class="cls-2" points="640.82 395.7 638.22 390.44 640.93 381.04 643.68 390.55 640.82 395.7"/><path class="cls-2" d="M674.07,405.07l-2.78,3.34a8.94,8.94,0,0,1-5.66-5.43c-1.93-4.58-6.15-14.34-6.15-14.34Z"/><path class="cls-2" d="M672.48,408.71l17.43-20.32-6.08,15.07S681.35,410.53,672.48,408.71Z"/><polygon class="cls-2" points="683.47 382.01 672.7 401.74 674.9 404.08 679.89 398.37 683.47 382.01"/><polygon class="cls-2" points="666.35 382.01 669.4 398.32 671.85 400.84 674.01 396.93 666.35 382.01"/><polygon class="cls-2" points="674.68 395.7 672.07 390.44 674.79 381.04 677.53 390.55 674.68 395.7"/><path class="cls-2" d="M599.53,437.78l-2.78,3.34a8.94,8.94,0,0,1-5.67-5.42c-1.93-4.58-6.15-14.35-6.15-14.35Z"/><path class="cls-2" d="M597.93,441.42l17.44-20.31-6.09,15.07S606.81,443.24,597.93,441.42Z"/><polygon class="cls-2" points="608.92 414.72 598.16 434.46 600.36 436.79 605.35 431.09 608.92 414.72"/><polygon class="cls-2" points="591.8 414.72 594.85 431.04 597.3 433.56 599.46 429.65 591.8 414.72"/><polygon class="cls-2" points="600.13 428.41 597.53 423.16 600.24 413.76 602.99 423.27 600.13 428.41"/><path class="cls-2" d="M635.32,438.46l-2.78,3.34a9,9,0,0,1-5.67-5.43C625,431.79,620.73,422,620.73,422Z"/><path class="cls-2" d="M633.73,442.1l17.43-20.32-6.08,15.07S642.6,443.92,633.73,442.1Z"/><polygon class="cls-2" points="644.72 415.4 633.95 435.13 636.15 437.47 641.14 431.76 644.72 415.4"/><polygon class="cls-2" points="627.6 415.4 630.65 431.71 633.1 434.23 635.25 430.32 627.6 415.4"/><polygon class="cls-2" points="635.93 429.09 633.32 423.83 636.03 414.43 638.78 423.94 635.93 429.09"/><path class="cls-2" d="M670.18,438.46l-2.78,3.34a9,9,0,0,1-5.67-5.43c-1.93-4.58-6.15-14.34-6.15-14.34Z"/><path class="cls-2" d="M668.58,442.1,686,421.78l-6.09,15.07S677.46,443.92,668.58,442.1Z"/><polygon class="cls-2" points="679.57 415.4 668.81 435.13 671.01 437.47 676 431.76 679.57 415.4"/><polygon class="cls-2" points="662.45 415.4 665.5 431.71 667.95 434.23 670.11 430.32 662.45 415.4"/><polygon class="cls-2" points="670.78 429.09 668.18 423.83 670.89 414.43 673.64 423.94 670.78 429.09"/><path class="cls-2" d="M704.51,437.24l-2.78,3.34a8.94,8.94,0,0,1-5.67-5.42c-1.93-4.58-6.15-14.35-6.15-14.35Z"/><path class="cls-2" d="M702.91,440.88l17.44-20.31-6.09,15.07S711.79,442.7,702.91,440.88Z"/><polygon class="cls-2" points="713.9 414.18 703.14 433.92 705.34 436.25 710.33 430.55 713.9 414.18"/><polygon class="cls-2" points="696.79 414.18 699.84 430.5 702.29 433.02 704.44 429.11 696.79 414.18"/><polygon class="cls-2" points="705.12 427.87 702.51 422.61 705.22 413.22 707.97 422.73 705.12 427.87"/><path class="cls-2" d="M702.35,470.09l-2.78,3.34a9,9,0,0,1-5.66-5.43c-1.93-4.58-6.15-14.34-6.15-14.34Z"/><path class="cls-2" d="M700.76,473.73l17.44-20.31-6.09,15.07S709.63,475.55,700.76,473.73Z"/><polygon class="cls-2" points="711.75 447.03 700.98 466.76 703.19 469.1 708.17 463.39 711.75 447.03"/><polygon class="cls-2" points="694.63 447.03 697.68 463.35 700.13 465.86 702.29 461.95 694.63 447.03"/><polygon class="cls-2" points="702.96 460.72 700.36 455.46 703.07 446.06 705.82 455.57 702.96 460.72"/><path class="cls-2" d="M707.35,403.85l-2.78,3.34a8.94,8.94,0,0,1-5.67-5.42c-1.93-4.58-6.15-14.35-6.15-14.35Z"/><path class="cls-2" d="M705.75,407.49l17.44-20.31-6.09,15.07S714.63,409.31,705.75,407.49Z"/><polygon class="cls-2" points="716.74 380.79 705.98 400.52 708.18 402.86 713.17 397.15 716.74 380.79"/><polygon class="cls-2" points="699.62 380.79 702.67 397.11 705.12 399.63 707.28 395.72 699.62 380.79"/><polygon class="cls-2" points="707.95 394.48 705.35 389.22 708.06 379.83 710.81 389.33 707.95 394.48"/><path class="cls-2" d="M599.53,469.42l-2.78,3.34a9,9,0,0,1-5.67-5.43c-1.93-4.58-6.15-14.34-6.15-14.34Z"/><path class="cls-2" d="M597.93,473.06l17.44-20.32-6.09,15.07S606.81,474.88,597.93,473.06Z"/><polygon class="cls-2" points="608.92 446.36 598.16 466.09 600.36 468.43 605.35 462.72 608.92 446.36"/><polygon class="cls-2" points="591.8 446.36 594.85 462.68 597.3 465.19 599.46 461.28 591.8 446.36"/><polygon class="cls-2" points="600.13 460.05 597.53 454.79 600.24 445.39 602.99 454.9 600.13 460.05"/><path class="cls-2" d="M633.32,470.09l-2.78,3.34a9,9,0,0,1-5.67-5.43c-1.92-4.58-6.14-14.34-6.14-14.34Z"/><path class="cls-2" d="M631.73,473.73l17.43-20.31-6.08,15.07S640.6,475.55,631.73,473.73Z"/><polygon class="cls-2" points="642.72 447.03 631.95 466.76 634.15 469.1 639.14 463.39 642.72 447.03"/><polygon class="cls-2" points="625.6 447.03 628.65 463.35 631.1 465.86 633.25 461.95 625.6 447.03"/><polygon class="cls-2" points="633.93 460.72 631.32 455.46 634.03 446.06 636.78 455.57 633.93 460.72"/><path class="cls-2" d="M668.18,470.09l-2.78,3.34a9,9,0,0,1-5.67-5.43c-1.93-4.58-6.15-14.34-6.15-14.34Z"/><path class="cls-2" d="M666.58,473.73,684,453.42l-6.09,15.07S675.46,475.55,666.58,473.73Z"/><polygon class="cls-2" points="677.57 447.03 666.81 466.76 669.01 469.1 674 463.39 677.57 447.03"/><polygon class="cls-2" points="660.45 447.03 663.5 463.35 665.95 465.86 668.11 461.95 660.45 447.03"/><polygon class="cls-2" points="668.78 460.72 666.18 455.46 668.89 446.06 671.64 455.57 668.78 460.72"/><path class="cls-2" d="M745.59,405.51l-2.79,3.34a8.93,8.93,0,0,1-5.66-5.42c-1.93-4.59-6.15-14.35-6.15-14.35Z"/><path class="cls-2" d="M744,409.15l17.44-20.31-6.09,15.07S752.87,411,744,409.15Z"/><polygon class="cls-2" points="754.98 382.45 744.22 402.18 746.42 404.52 751.4 398.81 754.98 382.45"/><polygon class="cls-2" points="737.86 382.45 740.91 398.77 743.36 401.29 745.52 397.38 737.86 382.45"/><polygon class="cls-2" points="746.19 396.14 743.59 390.88 746.3 381.49 749.05 391 746.19 396.14"/><path class="cls-2" d="M781.38,406.18l-2.78,3.34a8.94,8.94,0,0,1-5.67-5.42c-1.93-4.58-6.15-14.35-6.15-14.35Z"/><path class="cls-2" d="M779.79,409.82l17.43-20.31-6.08,15.07S788.66,411.64,779.79,409.82Z"/><polygon class="cls-2" points="790.77 383.12 780.01 402.86 782.21 405.19 787.2 399.49 790.77 383.12"/><polygon class="cls-2" points="773.66 383.12 776.71 399.44 779.16 401.96 781.31 398.05 773.66 383.12"/><polygon class="cls-2" points="781.99 396.81 779.38 391.55 782.09 382.16 784.84 391.67 781.99 396.81"/><path class="cls-2" d="M815.24,406.18l-2.79,3.34a8.93,8.93,0,0,1-5.66-5.42c-1.93-4.58-6.15-14.35-6.15-14.35Z"/><path class="cls-2" d="M813.64,409.82l17.44-20.31L825,404.58S822.52,411.64,813.64,409.82Z"/><polygon class="cls-2" points="824.63 383.12 813.87 402.86 816.07 405.19 821.06 399.49 824.63 383.12"/><polygon class="cls-2" points="807.51 383.12 810.56 399.44 813.01 401.96 815.17 398.05 807.51 383.12"/><polygon class="cls-2" points="815.84 396.81 813.24 391.55 815.95 382.16 818.7 391.67 815.84 396.81"/><path class="cls-2" d="M737.24,438.26l-2.78,3.34a8.94,8.94,0,0,1-5.67-5.42c-1.93-4.58-6.15-14.35-6.15-14.35Z"/><path class="cls-2" d="M735.64,441.9l17.44-20.31L747,436.66S744.52,443.72,735.64,441.9Z"/><polygon class="cls-2" points="746.63 415.2 735.87 434.94 738.07 437.27 743.06 431.57 746.63 415.2"/><polygon class="cls-2" points="729.51 415.2 732.57 431.52 735.01 434.04 737.17 430.13 729.51 415.2"/><polygon class="cls-2" points="737.85 428.89 735.24 423.63 737.95 414.24 740.7 423.75 737.85 428.89"/><path class="cls-2" d="M776.86,440.24l-2.78,3.34a8.94,8.94,0,0,1-5.67-5.42c-1.92-4.58-6.14-14.34-6.14-14.34Z"/><path class="cls-2" d="M775.27,443.88l17.43-20.31-6.08,15.07S784.14,445.7,775.27,443.88Z"/><polygon class="cls-2" points="786.25 417.19 775.49 436.92 777.69 439.25 782.68 433.55 786.25 417.19"/><polygon class="cls-2" points="769.14 417.19 772.19 433.5 774.64 436.02 776.79 432.11 769.14 417.19"/><polygon class="cls-2" points="777.47 430.87 774.86 425.62 777.58 416.22 780.32 425.73 777.47 430.87"/><path class="cls-2" d="M810.72,440.92l-2.78,3.34a9,9,0,0,1-5.67-5.43c-1.93-4.58-6.15-14.34-6.15-14.34Z"/><path class="cls-2" d="M809.12,444.56l17.44-20.32-6.09,15.07S818,446.38,809.12,444.56Z"/><polygon class="cls-2" points="820.11 417.86 809.35 437.59 811.55 439.93 816.54 434.22 820.11 417.86"/><polygon class="cls-2" points="802.99 417.86 806.04 434.18 808.49 436.69 810.65 432.78 802.99 417.86"/><polygon class="cls-2" points="811.33 431.55 808.72 426.29 811.43 416.89 814.18 426.4 811.33 431.55"/><path class="cls-2" d="M730.37,471.88l-2.78,3.34a9,9,0,0,1-5.67-5.43c-1.93-4.58-6.15-14.34-6.15-14.34Z"/><path class="cls-2" d="M728.77,475.52l17.44-20.32-6.09,15.08S737.65,477.34,728.77,475.52Z"/><polygon class="cls-2" points="739.76 448.82 729 468.55 731.2 470.89 736.19 465.18 739.76 448.82"/><polygon class="cls-2" points="722.64 448.82 725.69 465.14 728.14 467.65 730.3 463.74 722.64 448.82"/><polygon class="cls-2" points="730.97 462.51 728.37 457.25 731.08 447.85 733.83 457.36 730.97 462.51"/><path class="cls-2" d="M771.44,473.68,768.66,477a9,9,0,0,1-5.67-5.43c-1.93-4.58-6.15-14.34-6.15-14.34Z"/><path class="cls-2" d="M769.84,477.32,787.28,457l-6.09,15.07S778.72,479.14,769.84,477.32Z"/><polygon class="cls-2" points="780.83 450.62 770.07 470.35 772.27 472.69 777.26 466.98 780.83 450.62"/><polygon class="cls-2" points="763.72 450.62 766.77 466.94 769.22 469.45 771.37 465.54 763.72 450.62"/><polygon class="cls-2" points="772.05 464.31 769.44 459.05 772.15 449.65 774.9 459.16 772.05 464.31"/><path class="cls-2" d="M808.82,472.55,806,475.89a8.94,8.94,0,0,1-5.67-5.43c-1.92-4.58-6.14-14.34-6.14-14.34Z"/><path class="cls-2" d="M807.23,476.19l17.43-20.31L818.58,471S816.1,478,807.23,476.19Z"/><polygon class="cls-2" points="818.22 449.49 807.45 469.22 809.65 471.56 814.64 465.85 818.22 449.49"/><polygon class="cls-2" points="801.1 449.49 804.15 465.81 806.6 468.32 808.75 464.42 801.1 449.49"/><polygon class="cls-2" points="809.43 463.18 806.82 457.92 809.53 448.53 812.28 458.03 809.43 463.18"/><path class="cls-2" d="M483.64,506.14l-2.79,3.34a9,9,0,0,1-5.66-5.43c-1.93-4.58-6.15-14.34-6.15-14.34Z"/><path class="cls-2" d="M482,509.78l17.44-20.31-6.09,15.07S490.92,511.6,482,509.78Z"/><polygon class="cls-2" points="493.03 483.08 482.26 502.81 484.47 505.15 489.45 499.44 493.03 483.08"/><polygon class="cls-2" points="475.91 483.08 478.96 499.4 481.41 501.91 483.57 498 475.91 483.08"/><polygon class="cls-2" points="484.24 496.77 481.63 491.51 484.35 482.12 487.1 491.62 484.24 496.77"/><path class="cls-2" d="M519.43,506.81l-2.78,3.34a8.94,8.94,0,0,1-5.67-5.42c-1.93-4.58-6.15-14.35-6.15-14.35Z"/><path class="cls-2" d="M517.83,510.45l17.44-20.31-6.09,15.07S526.71,512.27,517.83,510.45Z"/><polygon class="cls-2" points="528.82 483.75 518.06 503.48 520.26 505.82 525.25 500.11 528.82 483.75"/><polygon class="cls-2" points="511.7 483.75 514.76 500.07 517.21 502.59 519.36 498.68 511.7 483.75"/><polygon class="cls-2" points="520.04 497.44 517.43 492.18 520.14 482.79 522.89 492.3 520.04 497.44"/><path class="cls-2" d="M553.29,506.81l-2.79,3.34a8.93,8.93,0,0,1-5.66-5.42c-1.93-4.58-6.15-14.35-6.15-14.35Z"/><path class="cls-2" d="M551.69,510.45l17.44-20.31L563,505.21S560.57,512.27,551.69,510.45Z"/><polygon class="cls-2" points="562.68 483.75 551.91 503.48 554.12 505.82 559.11 500.11 562.68 483.75"/><polygon class="cls-2" points="545.56 483.75 548.61 500.07 551.06 502.59 553.22 498.68 545.56 483.75"/><polygon class="cls-2" points="553.89 497.44 551.29 492.18 554 482.79 556.75 492.3 553.89 497.44"/><path class="cls-2" d="M475.29,538.89l-2.78,3.34a8.94,8.94,0,0,1-5.67-5.42c-1.93-4.58-6.15-14.35-6.15-14.35Z"/><path class="cls-2" d="M473.69,542.53l17.44-20.31L485,537.29S482.57,544.35,473.69,542.53Z"/><polygon class="cls-2" points="484.68 515.83 473.92 535.57 476.12 537.9 481.11 532.19 484.68 515.83"/><polygon class="cls-2" points="467.56 515.83 470.62 532.15 473.06 534.67 475.22 530.76 467.56 515.83"/><polygon class="cls-2" points="475.89 529.52 473.29 524.26 476 514.87 478.75 524.38 475.89 529.52"/><path class="cls-2" d="M514.91,540.87l-2.78,3.34a8.94,8.94,0,0,1-5.67-5.42c-1.93-4.58-6.14-14.35-6.14-14.35Z"/><path class="cls-2" d="M513.32,544.51l17.43-20.31-6.08,15.07S522.19,546.33,513.32,544.51Z"/><polygon class="cls-2" points="524.3 517.81 513.54 537.55 515.74 539.88 520.73 534.18 524.3 517.81"/><polygon class="cls-2" points="507.19 517.81 510.24 534.13 512.69 536.65 514.84 532.74 507.19 517.81"/><polygon class="cls-2" points="515.52 531.5 512.91 526.25 515.63 516.85 518.37 526.36 515.52 531.5"/><path class="cls-2" d="M548.77,541.54,546,544.89a9,9,0,0,1-5.67-5.43c-1.93-4.58-6.15-14.34-6.15-14.34Z"/><path class="cls-2" d="M547.17,545.18l17.44-20.31-6.09,15.07S556.05,547,547.17,545.18Z"/><polygon class="cls-2" points="558.16 518.49 547.4 538.22 549.6 540.56 554.59 534.85 558.16 518.49"/><polygon class="cls-2" points="541.04 518.49 544.09 534.8 546.54 537.32 548.7 533.41 541.04 518.49"/><polygon class="cls-2" points="549.37 532.17 546.77 526.92 549.48 517.52 552.23 527.03 549.37 532.17"/><path class="cls-2" d="M468.42,572.5l-2.79,3.35a9,9,0,0,1-5.66-5.43c-1.93-4.58-6.15-14.34-6.15-14.34Z"/><path class="cls-2" d="M466.82,576.14l17.44-20.31-6.09,15.07S475.7,578,466.82,576.14Z"/><polygon class="cls-2" points="477.81 549.45 467.05 569.18 469.25 571.52 474.24 565.81 477.81 549.45"/><polygon class="cls-2" points="460.69 549.45 463.74 565.76 466.19 568.28 468.35 564.37 460.69 549.45"/><polygon class="cls-2" points="469.02 563.13 466.42 557.88 469.13 548.48 471.88 557.99 469.02 563.13"/><path class="cls-2" d="M509.49,574.3l-2.78,3.35a9,9,0,0,1-5.67-5.43c-1.93-4.58-6.15-14.34-6.15-14.34Z"/><path class="cls-2" d="M507.89,577.94l17.44-20.31-6.09,15.07S516.77,579.76,507.89,577.94Z"/><polygon class="cls-2" points="518.88 551.25 508.12 570.98 510.32 573.32 515.31 567.61 518.88 551.25"/><polygon class="cls-2" points="501.76 551.25 504.82 567.56 507.26 570.08 509.42 566.17 501.76 551.25"/><polygon class="cls-2" points="510.1 564.93 507.49 559.68 510.2 550.28 512.95 559.79 510.1 564.93"/><path class="cls-2" d="M588.49,508l-2.78,3.35a9,9,0,0,1-5.67-5.43c-1.92-4.58-6.14-14.34-6.14-14.34Z"/><path class="cls-2" d="M586.9,511.66l17.43-20.31-6.08,15.07S595.77,513.48,586.9,511.66Z"/><polygon class="cls-2" points="597.88 484.97 587.12 504.7 589.32 507.04 594.31 501.33 597.88 484.97"/><polygon class="cls-2" points="580.77 484.97 583.82 501.28 586.27 503.8 588.42 499.89 580.77 484.97"/><polygon class="cls-2" points="589.1 498.65 586.49 493.4 589.21 484 591.95 493.51 589.1 498.65"/><path class="cls-2" d="M465.77,614.88,463,618.22a8.93,8.93,0,0,1-5.66-5.42c-1.93-4.59-6.15-14.35-6.15-14.35Z"/><path class="cls-2" d="M464.18,618.52l17.44-20.31-6.09,15.07S473.05,620.34,464.18,618.52Z"/><polygon class="cls-2" points="475.17 591.82 464.4 611.55 466.61 613.89 471.59 608.18 475.17 591.82"/><polygon class="cls-2" points="458.05 591.82 461.1 608.14 463.55 610.65 465.71 606.75 458.05 591.82"/><polygon class="cls-2" points="466.38 605.51 463.77 600.25 466.49 590.86 469.24 600.36 466.38 605.51"/><path class="cls-2" d="M501.57,615.55l-2.78,3.34a8.94,8.94,0,0,1-5.67-5.42c-1.93-4.58-6.15-14.35-6.15-14.35Z"/><path class="cls-2" d="M500,619.19l17.44-20.31L511.32,614S508.85,621,500,619.19Z"/><polygon class="cls-2" points="510.96 592.49 500.2 612.23 502.4 614.56 507.39 608.86 510.96 592.49"/><polygon class="cls-2" points="493.85 592.49 496.89 608.81 499.35 611.33 501.5 607.42 493.85 592.49"/><polygon class="cls-2" points="502.18 606.18 499.57 600.92 502.28 591.53 505.03 601.04 502.18 606.18"/><path class="cls-2" d="M457.43,647.63,454.65,651a8.94,8.94,0,0,1-5.67-5.42c-1.93-4.58-6.15-14.35-6.15-14.35Z"/><path class="cls-2" d="M455.83,651.27,473.27,631,467.18,646S464.71,653.09,455.83,651.27Z"/><polygon class="cls-2" points="466.82 624.57 456.06 644.31 458.26 646.64 463.25 640.94 466.82 624.57"/><polygon class="cls-2" points="449.7 624.57 452.75 640.89 455.2 643.41 457.36 639.5 449.7 624.57"/><polygon class="cls-2" points="458.03 638.26 455.43 633 458.14 623.61 460.89 633.12 458.03 638.26"/><path class="cls-2" d="M497.05,649.61,494.27,653a8.94,8.94,0,0,1-5.67-5.42c-1.93-4.58-6.15-14.35-6.15-14.35Z"/><path class="cls-2" d="M495.46,653.25l17.43-20.31L506.81,648S504.33,655.07,495.46,653.25Z"/><polygon class="cls-2" points="506.44 626.55 495.68 646.29 497.88 648.63 502.87 642.92 506.44 626.55"/><polygon class="cls-2" points="489.33 626.55 492.38 642.87 494.83 645.39 496.98 641.48 489.33 626.55"/><polygon class="cls-2" points="497.66 640.24 495.05 634.99 497.76 625.59 500.51 635.1 497.66 640.24"/><path class="cls-2" d="M450.56,681.25l-2.79,3.34a9,9,0,0,1-5.66-5.43c-1.93-4.58-6.15-14.34-6.15-14.34Z"/><path class="cls-2" d="M449,684.89l17.44-20.32-6.09,15.07S457.84,686.71,449,684.89Z"/><polygon class="cls-2" points="459.95 658.19 449.19 677.92 451.39 680.26 456.38 674.55 459.95 658.19"/><polygon class="cls-2" points="442.83 658.19 445.88 674.51 448.33 677.02 450.49 673.11 442.83 658.19"/><polygon class="cls-2" points="451.16 671.88 448.56 666.62 451.27 657.22 454.02 666.73 451.16 671.88"/><path class="cls-2" d="M491.63,683.05l-2.78,3.34a9,9,0,0,1-5.67-5.43c-1.93-4.58-6.15-14.34-6.15-14.34Z"/><path class="cls-2" d="M490,686.69l17.44-20.32-6.09,15.07S498.91,688.51,490,686.69Z"/><polygon class="cls-2" points="501.02 659.99 490.26 679.72 492.46 682.06 497.45 676.35 501.02 659.99"/><polygon class="cls-2" points="483.9 659.99 486.95 676.3 489.4 678.82 491.56 674.91 483.9 659.99"/><polygon class="cls-2" points="492.24 673.68 489.63 668.42 492.34 659.02 495.09 668.53 492.24 673.68"/><path class="cls-2" d="M449.08,723.62,446.3,727a8.91,8.91,0,0,1-5.66-5.42c-1.93-4.58-6.15-14.35-6.15-14.35Z"/><path class="cls-2" d="M447.49,727.26,464.92,707,458.84,722S456.36,729.08,447.49,727.26Z"/><polygon class="cls-2" points="458.48 700.56 447.71 720.29 449.92 722.63 454.9 716.92 458.48 700.56"/><polygon class="cls-2" points="441.36 700.56 444.41 716.88 446.86 719.4 449.02 715.49 441.36 700.56"/><polygon class="cls-2" points="449.69 714.25 447.08 708.99 449.8 699.6 452.54 709.11 449.69 714.25"/><path class="cls-2" d="M484.88,724.29l-2.78,3.34a8.94,8.94,0,0,1-5.67-5.42c-1.93-4.58-6.15-14.35-6.15-14.35Z"/><path class="cls-2" d="M483.28,727.93l17.44-20.31-6.09,15.07S492.16,729.75,483.28,727.93Z"/><polygon class="cls-2" points="494.27 701.23 483.51 720.97 485.71 723.3 490.7 717.6 494.27 701.23"/><polygon class="cls-2" points="477.15 701.23 480.2 717.55 482.65 720.07 484.81 716.16 477.15 701.23"/><polygon class="cls-2" points="485.49 714.92 482.88 709.67 485.59 700.27 488.34 709.78 485.49 714.92"/><path class="cls-2" d="M518.73,724.29,516,727.63a8.93,8.93,0,0,1-5.66-5.42c-1.93-4.58-6.15-14.35-6.15-14.35Z"/><path class="cls-2" d="M517.14,727.93l17.43-20.31-6.08,15.07S526,729.75,517.14,727.93Z"/><polygon class="cls-2" points="528.13 701.23 517.36 720.97 519.57 723.3 524.55 717.6 528.13 701.23"/><polygon class="cls-2" points="511.01 701.23 514.06 717.55 516.51 720.07 518.67 716.16 511.01 701.23"/><polygon class="cls-2" points="519.34 714.92 516.73 709.67 519.45 700.27 522.19 709.78 519.34 714.92"/><path class="cls-2" d="M440.74,756.37,438,759.71a8.93,8.93,0,0,1-5.66-5.42c-1.93-4.58-6.15-14.35-6.15-14.35Z"/><path class="cls-2" d="M439.14,760l17.44-20.31-6.09,15.07S448,761.83,439.14,760Z"/><polygon class="cls-2" points="450.13 733.31 439.37 753.05 441.57 755.38 446.56 749.68 450.13 733.31"/><polygon class="cls-2" points="433.01 733.31 436.06 749.63 438.51 752.15 440.67 748.24 433.01 733.31"/><polygon class="cls-2" points="441.34 747 438.74 741.75 441.45 732.35 444.2 741.86 441.34 747"/><path class="cls-2" d="M480.36,758.36l-2.78,3.34a9,9,0,0,1-5.67-5.43c-1.93-4.58-6.15-14.34-6.15-14.34Z"/><path class="cls-2" d="M478.76,762l17.44-20.32-6.09,15.07S487.64,763.82,478.76,762Z"/><polygon class="cls-2" points="489.75 735.3 478.99 755.03 481.19 757.37 486.18 751.66 489.75 735.3"/><polygon class="cls-2" points="472.63 735.3 475.69 751.61 478.13 754.13 480.29 750.22 472.63 735.3"/><polygon class="cls-2" points="480.97 748.99 478.36 743.73 481.07 734.33 483.82 743.84 480.97 748.99"/><path class="cls-2" d="M514.22,759l-2.79,3.34a9,9,0,0,1-5.66-5.43c-1.93-4.58-6.15-14.34-6.15-14.34Z"/><path class="cls-2" d="M512.62,762.67l17.44-20.31L524,757.43S521.5,764.49,512.62,762.67Z"/><polygon class="cls-2" points="523.61 735.97 512.85 755.7 515.05 758.04 520.03 752.33 523.61 735.97"/><polygon class="cls-2" points="506.49 735.97 509.54 752.29 511.99 754.8 514.15 750.89 506.49 735.97"/><polygon class="cls-2" points="514.82 749.66 512.22 744.4 514.93 735 517.68 744.51 514.82 749.66"/><path class="cls-2" d="M433.87,790l-2.79,3.34a9,9,0,0,1-5.66-5.43c-1.93-4.58-6.15-14.34-6.15-14.34Z"/><path class="cls-2" d="M432.27,793.63l17.44-20.31-6.09,15.07S441.15,795.45,432.27,793.63Z"/><polygon class="cls-2" points="443.26 766.93 432.5 786.66 434.7 789 439.69 783.29 443.26 766.93"/><polygon class="cls-2" points="426.14 766.93 429.19 783.25 431.64 785.76 433.8 781.85 426.14 766.93"/><polygon class="cls-2" points="434.47 780.62 431.87 775.36 434.58 765.97 437.33 775.47 434.47 780.62"/><path class="cls-2" d="M474.94,791.79l-2.78,3.34a9,9,0,0,1-5.67-5.43c-1.93-4.58-6.15-14.34-6.15-14.34Z"/><path class="cls-2" d="M473.34,795.43l17.44-20.31-6.09,15.07S482.22,797.25,473.34,795.43Z"/><polygon class="cls-2" points="484.33 768.73 473.57 788.46 475.77 790.8 480.76 785.09 484.33 768.73"/><polygon class="cls-2" points="467.21 768.73 470.26 785.05 472.71 787.56 474.87 783.65 467.21 768.73"/><polygon class="cls-2" points="475.55 782.42 472.94 777.16 475.65 767.76 478.4 777.27 475.55 782.42"/><path class="cls-2" d="M512.32,790.66,509.54,794a8.94,8.94,0,0,1-5.67-5.42c-1.93-4.58-6.15-14.35-6.15-14.35Z"/><path class="cls-2" d="M510.72,794.3,528.16,774l-6.09,15.07S519.6,796.12,510.72,794.3Z"/><polygon class="cls-2" points="521.71 767.6 510.95 787.34 513.15 789.67 518.14 783.96 521.71 767.6"/><polygon class="cls-2" points="504.6 767.6 507.65 783.92 510.1 786.44 512.25 782.53 504.6 767.6"/><polygon class="cls-2" points="512.93 781.29 510.32 776.03 513.03 766.64 515.78 776.14 512.93 781.29"/><path class="cls-2" d="M549,758.9l-2.78,3.34a9,9,0,0,1-5.66-5.43c-1.93-4.58-6.15-14.34-6.15-14.34Z"/><path class="cls-2" d="M547.45,762.54l17.43-20.31L558.8,757.3S556.32,764.36,547.45,762.54Z"/><polygon class="cls-2" points="558.44 735.84 547.67 755.57 549.88 757.91 554.86 752.2 558.44 735.84"/><polygon class="cls-2" points="541.32 735.84 544.37 752.16 546.82 754.67 548.98 750.76 541.32 735.84"/><polygon class="cls-2" points="549.65 749.53 547.04 744.27 549.76 734.88 552.5 744.38 549.65 749.53"/><path class="cls-2" d="M549,790.53l-2.78,3.34a8.93,8.93,0,0,1-5.66-5.42c-1.93-4.58-6.15-14.35-6.15-14.35Z"/><path class="cls-2" d="M547.45,794.17l17.43-20.31-6.08,15.07S556.32,796,547.45,794.17Z"/><polygon class="cls-2" points="558.44 767.47 547.67 787.21 549.88 789.54 554.86 783.84 558.44 767.47"/><polygon class="cls-2" points="541.32 767.47 544.37 783.79 546.82 786.31 548.98 782.4 541.32 767.47"/><polygon class="cls-2" points="549.65 781.16 547.04 775.9 549.76 766.51 552.5 776.02 549.65 781.16"/><path class="cls-2" d="M227.14,507.47l-2.78,3.34a8.94,8.94,0,0,1-5.67-5.43c-1.93-4.58-6.14-14.34-6.14-14.34Z"/><path class="cls-2" d="M225.55,511.11,243,490.8l-6.08,15.07S234.42,512.93,225.55,511.11Z"/><polygon class="cls-2" points="236.53 484.41 225.77 504.14 227.97 506.48 232.96 500.77 236.53 484.41"/><polygon class="cls-2" points="219.42 484.41 222.47 500.73 224.92 503.25 227.07 499.33 219.42 484.41"/><polygon class="cls-2" points="227.75 498.1 225.14 492.84 227.85 483.45 230.6 492.95 227.75 498.1"/><path class="cls-2" d="M266.94,508.14l-2.79,3.34a8.93,8.93,0,0,1-5.66-5.42c-1.93-4.58-6.15-14.35-6.15-14.35Z"/><path class="cls-2" d="M265.34,511.78l17.44-20.31-6.09,15.07S274.22,513.6,265.34,511.78Z"/><polygon class="cls-2" points="276.33 485.08 265.56 504.81 267.77 507.15 272.75 501.44 276.33 485.08"/><polygon class="cls-2" points="259.21 485.08 262.26 501.4 264.71 503.92 266.87 500.01 259.21 485.08"/><polygon class="cls-2" points="267.54 498.77 264.94 493.51 267.65 484.12 270.4 493.63 267.54 498.77"/><path class="cls-2" d="M300.79,508.14,298,511.48a8.94,8.94,0,0,1-5.67-5.42c-1.92-4.58-6.14-14.35-6.14-14.35Z"/><path class="cls-2" d="M299.2,511.78l17.43-20.31-6.08,15.07S308.07,513.6,299.2,511.78Z"/><polygon class="cls-2" points="310.19 485.08 299.42 504.81 301.62 507.15 306.61 501.44 310.19 485.08"/><polygon class="cls-2" points="293.07 485.08 296.12 501.4 298.57 503.92 300.72 500.01 293.07 485.08"/><polygon class="cls-2" points="301.4 498.77 298.79 493.51 301.5 484.12 304.25 493.63 301.4 498.77"/><path class="cls-2" d="M222.79,540.22,220,543.56a8.93,8.93,0,0,1-5.66-5.42c-1.93-4.58-6.15-14.35-6.15-14.35Z"/><path class="cls-2" d="M221.2,543.86l17.43-20.31-6.08,15.07S230.07,545.68,221.2,543.86Z"/><polygon class="cls-2" points="232.19 517.16 221.42 536.9 223.63 539.23 228.61 533.52 232.19 517.16"/><polygon class="cls-2" points="215.07 517.16 218.12 533.48 220.57 536 222.73 532.09 215.07 517.16"/><polygon class="cls-2" points="223.4 530.85 220.79 525.59 223.51 516.2 226.25 525.71 223.4 530.85"/><path class="cls-2" d="M262.42,542.2l-2.78,3.34a8.94,8.94,0,0,1-5.67-5.42c-1.93-4.58-6.15-14.35-6.15-14.35Z"/><path class="cls-2" d="M260.82,545.84l17.44-20.31-6.09,15.07S269.7,547.66,260.82,545.84Z"/><polygon class="cls-2" points="271.81 519.14 261.05 538.88 263.25 541.21 268.24 535.51 271.81 519.14"/><polygon class="cls-2" points="254.69 519.14 257.74 535.46 260.19 537.98 262.35 534.07 254.69 519.14"/><polygon class="cls-2" points="263.02 532.83 260.42 527.58 263.13 518.18 265.88 527.69 263.02 532.83"/><path class="cls-2" d="M296.27,542.88l-2.78,3.34a8.94,8.94,0,0,1-5.66-5.43c-1.93-4.58-6.15-14.34-6.15-14.34Z"/><path class="cls-2" d="M294.68,546.52l17.43-20.32L306,541.27S303.55,548.34,294.68,546.52Z"/><polygon class="cls-2" points="305.67 519.82 294.9 539.55 297.11 541.89 302.09 536.18 305.67 519.82"/><polygon class="cls-2" points="288.55 519.82 291.6 536.13 294.05 538.65 296.21 534.74 288.55 519.82"/><polygon class="cls-2" points="296.88 533.51 294.27 528.25 296.99 518.85 299.73 528.36 296.88 533.51"/><path class="cls-2" d="M215.92,573.84l-2.78,3.34a8.94,8.94,0,0,1-5.66-5.43c-1.93-4.58-6.15-14.34-6.15-14.34Z"/><path class="cls-2" d="M214.33,577.48l17.43-20.32-6.08,15.07S223.2,579.3,214.33,577.48Z"/><polygon class="cls-2" points="225.32 550.78 214.55 570.51 216.75 572.85 221.74 567.14 225.32 550.78"/><polygon class="cls-2" points="208.2 550.78 211.25 567.1 213.7 569.61 215.86 565.7 208.2 550.78"/><polygon class="cls-2" points="216.53 564.47 213.92 559.21 216.64 549.81 219.38 559.32 216.53 564.47"/><path class="cls-2" d="M257,575.64,254.21,579a9,9,0,0,1-5.66-5.43c-1.93-4.58-6.15-14.34-6.15-14.34Z"/><path class="cls-2" d="M255.4,579.28,272.84,559,266.75,574S264.28,581.1,255.4,579.28Z"/><polygon class="cls-2" points="266.39 552.58 255.63 572.31 257.83 574.65 262.81 568.94 266.39 552.58"/><polygon class="cls-2" points="249.27 552.58 252.32 568.89 254.77 571.41 256.93 567.5 249.27 552.58"/><polygon class="cls-2" points="257.6 566.27 255 561.01 257.71 551.61 260.46 561.12 257.6 566.27"/><path class="cls-2" d="M294.38,574.51l-2.79,3.34a9,9,0,0,1-5.66-5.43c-1.93-4.58-6.15-14.34-6.15-14.34Z"/><path class="cls-2" d="M292.78,578.15l17.44-20.31-6.09,15.07S301.66,580,292.78,578.15Z"/><polygon class="cls-2" points="303.77 551.45 293.01 571.18 295.21 573.52 300.2 567.81 303.77 551.45"/><polygon class="cls-2" points="286.65 551.45 289.7 567.77 292.15 570.28 294.31 566.37 286.65 551.45"/><polygon class="cls-2" points="294.98 565.14 292.38 559.88 295.09 550.49 297.84 559.99 294.98 565.14"/><path class="cls-2" d="M336,509.36l-2.78,3.34a9,9,0,0,1-5.67-5.43c-1.93-4.58-6.15-14.34-6.15-14.34Z"/><path class="cls-2" d="M334.4,513l17.44-20.32-6.09,15.07S343.28,514.82,334.4,513Z"/><polygon class="cls-2" points="345.39 486.3 334.63 506.03 336.83 508.37 341.82 502.66 345.39 486.3"/><polygon class="cls-2" points="328.27 486.3 331.32 502.62 333.77 505.13 335.93 501.22 328.27 486.3"/><polygon class="cls-2" points="336.61 499.99 334 494.73 336.71 485.33 339.46 494.84 336.61 499.99"/><path class="cls-2" d="M371.79,510,369,513.37a9,9,0,0,1-5.67-5.43c-1.92-4.58-6.14-14.34-6.14-14.34Z"/><path class="cls-2" d="M370.2,513.67l17.43-20.31-6.08,15.07S379.07,515.49,370.2,513.67Z"/><polygon class="cls-2" points="381.19 486.97 370.42 506.7 372.62 509.04 377.61 503.33 381.19 486.97"/><polygon class="cls-2" points="364.07 486.97 367.12 503.29 369.57 505.8 371.73 501.89 364.07 486.97"/><polygon class="cls-2" points="372.4 500.66 369.79 495.4 372.51 486 375.25 495.51 372.4 500.66"/><path class="cls-2" d="M405.65,510l-2.78,3.34a9,9,0,0,1-5.67-5.43c-1.93-4.58-6.15-14.34-6.15-14.34Z"/><path class="cls-2" d="M404.05,513.67l17.44-20.31-6.09,15.07S412.93,515.49,404.05,513.67Z"/><polygon class="cls-2" points="415.04 486.97 404.28 506.7 406.48 509.04 411.47 503.33 415.04 486.97"/><polygon class="cls-2" points="397.92 486.97 400.98 503.29 403.42 505.8 405.58 501.89 397.92 486.97"/><polygon class="cls-2" points="406.25 500.66 403.65 495.4 406.36 486 409.11 495.51 406.25 500.66"/><path class="cls-2" d="M331.1,542.75l-2.78,3.34a9,9,0,0,1-5.67-5.43c-1.92-4.58-6.14-14.34-6.14-14.34Z"/><path class="cls-2" d="M329.51,546.39l17.43-20.32-6.08,15.07S338.38,548.21,329.51,546.39Z"/><polygon class="cls-2" points="340.5 519.69 329.73 539.42 331.93 541.76 336.92 536.05 340.5 519.69"/><polygon class="cls-2" points="323.38 519.69 326.43 536 328.88 538.52 331.03 534.61 323.38 519.69"/><polygon class="cls-2" points="331.71 533.38 329.1 528.12 331.82 518.72 334.56 528.23 331.71 533.38"/><path class="cls-2" d="M366.9,543.42l-2.79,3.34a9,9,0,0,1-5.66-5.43c-1.93-4.58-6.15-14.34-6.15-14.34Z"/><path class="cls-2" d="M365.3,547.06l17.44-20.31-6.09,15.07S374.18,548.88,365.3,547.06Z"/><polygon class="cls-2" points="376.29 520.36 365.53 540.09 367.73 542.43 372.72 536.72 376.29 520.36"/><polygon class="cls-2" points="359.17 520.36 362.22 536.68 364.67 539.19 366.83 535.28 359.17 520.36"/><polygon class="cls-2" points="367.5 534.05 364.9 528.79 367.61 519.39 370.36 528.9 367.5 534.05"/><path class="cls-2" d="M401.75,543.42,399,546.76a9,9,0,0,1-5.67-5.43c-1.92-4.58-6.14-14.34-6.14-14.34Z"/><path class="cls-2" d="M400.16,547.06l17.43-20.31-6.08,15.07S409,548.88,400.16,547.06Z"/><polygon class="cls-2" points="411.14 520.36 400.38 540.09 402.58 542.43 407.57 536.72 411.14 520.36"/><polygon class="cls-2" points="394.03 520.36 397.08 536.68 399.53 539.19 401.69 535.28 394.03 520.36"/><polygon class="cls-2" points="402.36 534.05 399.75 528.79 402.47 519.39 405.21 528.9 402.36 534.05"/><path class="cls-2" d="M436.08,542.2l-2.78,3.34a8.93,8.93,0,0,1-5.66-5.42c-1.93-4.58-6.15-14.35-6.15-14.35Z"/><path class="cls-2" d="M434.49,545.84l17.44-20.31-6.09,15.07S443.36,547.66,434.49,545.84Z"/><polygon class="cls-2" points="445.48 519.14 434.71 538.88 436.92 541.21 441.9 535.51 445.48 519.14"/><polygon class="cls-2" points="428.36 519.14 431.41 535.46 433.86 537.98 436.02 534.07 428.36 519.14"/><polygon class="cls-2" points="436.69 532.83 434.08 527.58 436.8 518.18 439.55 527.69 436.69 532.83"/><path class="cls-2" d="M433.93,575.05l-2.78,3.34a8.94,8.94,0,0,1-5.67-5.42c-1.93-4.58-6.15-14.35-6.15-14.35Z"/><path class="cls-2" d="M432.33,578.69l17.44-20.31-6.09,15.07S441.21,580.51,432.33,578.69Z"/><polygon class="cls-2" points="443.32 551.99 432.56 571.73 434.76 574.06 439.75 568.36 443.32 551.99"/><polygon class="cls-2" points="426.2 551.99 429.26 568.31 431.7 570.83 433.86 566.92 426.2 551.99"/><polygon class="cls-2" points="434.54 565.68 431.93 560.42 434.64 551.03 437.39 560.54 434.54 565.68"/><path class="cls-2" d="M438.92,508.81l-2.78,3.34a8.94,8.94,0,0,1-5.67-5.42c-1.92-4.58-6.14-14.35-6.14-14.35Z"/><path class="cls-2" d="M437.33,512.45l17.43-20.31-6.08,15.07S446.2,514.27,437.33,512.45Z"/><polygon class="cls-2" points="448.31 485.75 437.55 505.49 439.75 507.82 444.74 502.12 448.31 485.75"/><polygon class="cls-2" points="431.2 485.75 434.25 502.07 436.7 504.59 438.86 500.68 431.2 485.75"/><polygon class="cls-2" points="439.53 499.44 436.92 494.19 439.64 484.79 442.38 494.3 439.53 499.44"/><path class="cls-2" d="M331.1,574.38l-2.78,3.34a8.94,8.94,0,0,1-5.67-5.43c-1.92-4.58-6.14-14.34-6.14-14.34Z"/><path class="cls-2" d="M329.51,578l17.43-20.31-6.08,15.07S338.38,579.84,329.51,578Z"/><polygon class="cls-2" points="340.5 551.32 329.73 571.05 331.93 573.39 336.92 567.68 340.5 551.32"/><polygon class="cls-2" points="323.38 551.32 326.43 567.64 328.88 570.15 331.03 566.25 323.38 551.32"/><polygon class="cls-2" points="331.71 565.01 329.1 559.75 331.82 550.36 334.56 559.86 331.71 565.01"/><path class="cls-2" d="M364.9,575.05l-2.79,3.34a8.93,8.93,0,0,1-5.66-5.42c-1.93-4.58-6.15-14.35-6.15-14.35Z"/><path class="cls-2" d="M363.3,578.69l17.44-20.31-6.09,15.07S372.18,580.51,363.3,578.69Z"/><polygon class="cls-2" points="374.29 551.99 363.53 571.73 365.73 574.06 370.72 568.36 374.29 551.99"/><polygon class="cls-2" points="357.17 551.99 360.22 568.31 362.67 570.83 364.83 566.92 357.17 551.99"/><polygon class="cls-2" points="365.5 565.68 362.9 560.42 365.61 551.03 368.36 560.54 365.5 565.68"/><path class="cls-2" d="M399.75,575.05,397,578.39A8.94,8.94,0,0,1,391.3,573c-1.92-4.58-6.14-14.35-6.14-14.35Z"/><path class="cls-2" d="M398.16,578.69l17.43-20.31-6.08,15.07S407,580.51,398.16,578.69Z"/><polygon class="cls-2" points="409.14 551.99 398.38 571.73 400.58 574.06 405.57 568.36 409.14 551.99"/><polygon class="cls-2" points="392.03 551.99 395.08 568.31 397.53 570.83 399.69 566.92 392.03 551.99"/><polygon class="cls-2" points="400.36 565.68 397.75 560.42 400.47 551.03 403.21 560.54 400.36 565.68"/><path class="cls-2" d="M209.31,612.34l-2.78,3.34a8.91,8.91,0,0,1-5.66-5.42c-1.93-4.58-6.15-14.35-6.15-14.35Z"/><path class="cls-2" d="M207.72,616l17.43-20.31-6.08,15.07S216.59,617.8,207.72,616Z"/><polygon class="cls-2" points="218.71 589.28 207.94 609.02 210.15 611.35 215.13 605.64 218.71 589.28"/><polygon class="cls-2" points="201.59 589.28 204.64 605.6 207.09 608.12 209.25 604.21 201.59 589.28"/><polygon class="cls-2" points="209.92 602.97 207.31 597.71 210.03 588.32 212.77 597.83 209.92 602.97"/><path class="cls-2" d="M249.11,613l-2.78,3.34a8.94,8.94,0,0,1-5.67-5.42c-1.93-4.58-6.15-14.35-6.15-14.35Z"/><path class="cls-2" d="M247.51,616.65,265,596.34l-6.09,15.07S256.39,618.47,247.51,616.65Z"/><polygon class="cls-2" points="258.5 589.96 247.74 609.69 249.94 612.02 254.93 606.32 258.5 589.96"/><polygon class="cls-2" points="241.38 589.96 244.43 606.27 246.88 608.79 249.04 604.88 241.38 589.96"/><polygon class="cls-2" points="249.72 603.64 247.11 598.39 249.82 588.99 252.57 598.5 249.72 603.64"/><path class="cls-2" d="M283,613l-2.78,3.34a8.93,8.93,0,0,1-5.66-5.42c-1.93-4.58-6.15-14.35-6.15-14.35Z"/><path class="cls-2" d="M281.37,616.65l17.43-20.31-6.08,15.07S290.24,618.47,281.37,616.65Z"/><polygon class="cls-2" points="292.36 589.96 281.59 609.69 283.8 612.02 288.78 606.32 292.36 589.96"/><polygon class="cls-2" points="275.24 589.96 278.29 606.27 280.74 608.79 282.9 604.88 275.24 589.96"/><polygon class="cls-2" points="283.57 603.64 280.96 598.39 283.68 588.99 286.42 598.5 283.57 603.64"/><path class="cls-2" d="M205,645.09l-2.79,3.34a8.93,8.93,0,0,1-5.66-5.42c-1.93-4.58-6.15-14.35-6.15-14.35Z"/><path class="cls-2" d="M203.37,648.73l17.44-20.31-6.09,15.07S212.25,650.55,203.37,648.73Z"/><polygon class="cls-2" points="214.36 622.03 203.6 641.77 205.8 644.11 210.79 638.4 214.36 622.03"/><polygon class="cls-2" points="197.24 622.03 200.29 638.35 202.74 640.87 204.9 636.96 197.24 622.03"/><polygon class="cls-2" points="205.57 635.72 202.97 630.47 205.68 621.07 208.43 630.58 205.57 635.72"/><path class="cls-2" d="M244.59,647.08l-2.78,3.34a9,9,0,0,1-5.67-5.43c-1.93-4.58-6.15-14.34-6.15-14.34Z"/><path class="cls-2" d="M243,650.72l17.44-20.32-6.09,15.07S251.87,652.54,243,650.72Z"/><polygon class="cls-2" points="253.98 624.02 243.22 643.75 245.42 646.09 250.41 640.38 253.98 624.02"/><polygon class="cls-2" points="236.87 624.02 239.92 640.34 242.37 642.85 244.52 638.94 236.87 624.02"/><polygon class="cls-2" points="245.2 637.71 242.59 632.45 245.3 623.05 248.05 632.56 245.2 637.71"/><path class="cls-2" d="M278.45,647.75l-2.79,3.34a9,9,0,0,1-5.66-5.43c-1.93-4.58-6.15-14.34-6.15-14.34Z"/><path class="cls-2" d="M276.85,651.39l17.44-20.31-6.09,15.07S285.73,653.21,276.85,651.39Z"/><polygon class="cls-2" points="287.84 624.69 277.07 644.42 279.28 646.76 284.26 641.05 287.84 624.69"/><polygon class="cls-2" points="270.72 624.69 273.77 641.01 276.22 643.52 278.38 639.61 270.72 624.69"/><polygon class="cls-2" points="279.05 638.38 276.45 633.12 279.16 623.73 281.91 633.23 279.05 638.38"/><path class="cls-2" d="M198.1,678.71l-2.79,3.34a8.93,8.93,0,0,1-5.66-5.43c-1.93-4.58-6.15-14.34-6.15-14.34Z"/><path class="cls-2" d="M196.5,682.35,213.94,662l-6.09,15.07S205.38,684.17,196.5,682.35Z"/><polygon class="cls-2" points="207.49 655.65 196.72 675.38 198.93 677.72 203.91 672.01 207.49 655.65"/><polygon class="cls-2" points="190.37 655.65 193.42 671.97 195.87 674.48 198.03 670.58 190.37 655.65"/><polygon class="cls-2" points="198.7 669.34 196.1 664.08 198.81 654.68 201.56 664.19 198.7 669.34"/><path class="cls-2" d="M239.17,680.51l-2.78,3.34a9,9,0,0,1-5.67-5.43c-1.93-4.58-6.15-14.34-6.15-14.34Z"/><path class="cls-2" d="M237.57,684.15,255,663.84l-6.09,15.07S246.45,686,237.57,684.15Z"/><polygon class="cls-2" points="248.56 657.45 237.8 677.18 240 679.52 244.99 673.81 248.56 657.45"/><polygon class="cls-2" points="231.44 657.45 234.49 673.77 236.94 676.28 239.1 672.37 231.44 657.45"/><polygon class="cls-2" points="239.78 671.14 237.17 665.88 239.88 656.49 242.63 665.99 239.78 671.14"/><path class="cls-2" d="M276.55,679.38l-2.78,3.34a8.94,8.94,0,0,1-5.67-5.42C266.17,672.72,262,663,262,663Z"/><path class="cls-2" d="M275,683l17.44-20.31-6.09,15.07S283.83,684.84,275,683Z"/><polygon class="cls-2" points="285.94 656.32 275.18 676.05 277.38 678.39 282.37 672.68 285.94 656.32"/><polygon class="cls-2" points="268.82 656.32 271.88 672.64 274.32 675.16 276.48 671.25 268.82 656.32"/><polygon class="cls-2" points="277.16 670.01 274.55 664.75 277.26 655.36 280.01 664.87 277.16 670.01"/><path class="cls-2" d="M318.17,614.23l-2.78,3.34a9,9,0,0,1-5.67-5.43c-1.93-4.58-6.15-14.34-6.15-14.34Z"/><path class="cls-2" d="M316.58,617.87,334,597.56l-6.08,15.07S325.45,619.69,316.58,617.87Z"/><polygon class="cls-2" points="327.56 591.17 316.8 610.9 319 613.24 323.99 607.53 327.56 591.17"/><polygon class="cls-2" points="310.45 591.17 313.5 607.49 315.95 610 318.1 606.09 310.45 591.17"/><polygon class="cls-2" points="318.78 604.86 316.17 599.6 318.88 590.21 321.63 599.71 318.78 604.86"/><path class="cls-2" d="M354,614.9l-2.78,3.34a8.93,8.93,0,0,1-5.66-5.42c-1.93-4.58-6.15-14.35-6.15-14.35Z"/><path class="cls-2" d="M352.37,618.54l17.44-20.31-6.09,15.07S361.24,620.36,352.37,618.54Z"/><polygon class="cls-2" points="363.36 591.84 352.59 611.58 354.8 613.91 359.78 608.21 363.36 591.84"/><polygon class="cls-2" points="346.24 591.84 349.29 608.16 351.74 610.68 353.9 606.77 346.24 591.84"/><polygon class="cls-2" points="354.57 605.53 351.96 600.27 354.68 590.88 357.43 600.38 354.57 605.53"/><path class="cls-2" d="M387.82,614.9,385,618.24a8.94,8.94,0,0,1-5.67-5.42c-1.93-4.58-6.14-14.35-6.14-14.35Z"/><path class="cls-2" d="M386.23,618.54l17.43-20.31-6.08,15.07S395.1,620.36,386.23,618.54Z"/><polygon class="cls-2" points="397.21 591.84 386.45 611.58 388.65 613.91 393.64 608.21 397.21 591.84"/><polygon class="cls-2" points="380.1 591.84 383.15 608.16 385.6 610.68 387.75 606.77 380.1 591.84"/><polygon class="cls-2" points="388.43 605.53 385.82 600.27 388.54 590.88 391.28 600.38 388.43 605.53"/><path class="cls-2" d="M313.27,647.62,310.49,651a8.93,8.93,0,0,1-5.66-5.43c-1.93-4.58-6.15-14.34-6.15-14.34Z"/><path class="cls-2" d="M311.68,651.26,329.11,631,323,646S320.55,653.08,311.68,651.26Z"/><polygon class="cls-2" points="322.67 624.56 311.9 644.29 314.11 646.63 319.09 640.92 322.67 624.56"/><polygon class="cls-2" points="305.55 624.56 308.6 640.88 311.05 643.39 313.21 639.49 305.55 624.56"/><polygon class="cls-2" points="313.88 638.25 311.27 632.99 313.99 623.6 316.73 633.1 313.88 638.25"/><path class="cls-2" d="M349.07,648.29l-2.78,3.34a8.94,8.94,0,0,1-5.67-5.42c-1.93-4.58-6.15-14.35-6.15-14.35Z"/><path class="cls-2" d="M347.47,651.93l17.44-20.31-6.09,15.07S356.35,653.75,347.47,651.93Z"/><polygon class="cls-2" points="358.46 625.23 347.7 644.97 349.9 647.3 354.89 641.6 358.46 625.23"/><polygon class="cls-2" points="341.34 625.23 344.39 641.55 346.84 644.07 349 640.16 341.34 625.23"/><polygon class="cls-2" points="349.68 638.92 347.07 633.66 349.78 624.27 352.53 633.77 349.68 638.92"/><path class="cls-2" d="M383.92,648.29l-2.78,3.34a8.93,8.93,0,0,1-5.66-5.42c-1.93-4.58-6.15-14.35-6.15-14.35Z"/><path class="cls-2" d="M382.33,651.93l17.44-20.31-6.09,15.07S391.2,653.75,382.33,651.93Z"/><polygon class="cls-2" points="393.32 625.23 382.55 644.97 384.76 647.3 389.74 641.6 393.32 625.23"/><polygon class="cls-2" points="376.2 625.23 379.25 641.55 381.7 644.07 383.86 640.16 376.2 625.23"/><polygon class="cls-2" points="384.53 638.92 381.93 633.66 384.64 624.27 387.38 633.77 384.53 638.92"/><path class="cls-2" d="M418.26,647.08l-2.79,3.34a9,9,0,0,1-5.66-5.43c-1.93-4.58-6.15-14.34-6.15-14.34Z"/><path class="cls-2" d="M416.66,650.72,434.1,630.4,428,645.47S425.54,652.54,416.66,650.72Z"/><polygon class="cls-2" points="427.65 624.02 416.89 643.75 419.09 646.09 424.08 640.38 427.65 624.02"/><polygon class="cls-2" points="410.53 624.02 413.58 640.34 416.03 642.85 418.19 638.94 410.53 624.02"/><polygon class="cls-2" points="418.86 637.71 416.26 632.45 418.97 623.05 421.72 632.56 418.86 637.71"/><path class="cls-2" d="M416.1,679.92l-2.78,3.34a8.94,8.94,0,0,1-5.67-5.42c-1.92-4.58-6.14-14.35-6.14-14.35Z"/><path class="cls-2" d="M414.51,683.56l17.43-20.31-6.08,15.07S423.38,685.38,414.51,683.56Z"/><polygon class="cls-2" points="425.5 656.86 414.73 676.6 416.93 678.93 421.92 673.23 425.5 656.86"/><polygon class="cls-2" points="408.38 656.86 411.43 673.18 413.88 675.7 416.03 671.79 408.38 656.86"/><polygon class="cls-2" points="416.71 670.55 414.1 665.3 416.81 655.9 419.56 665.41 416.71 670.55"/><path class="cls-2" d="M421.09,613.69,418.31,617a9,9,0,0,1-5.66-5.43c-1.93-4.58-6.15-14.34-6.15-14.34Z"/><path class="cls-2" d="M419.5,617.33,436.94,597l-6.09,15.07S428.37,619.15,419.5,617.33Z"/><polygon class="cls-2" points="430.49 590.63 419.72 610.36 421.93 612.7 426.91 606.99 430.49 590.63"/><polygon class="cls-2" points="413.37 590.63 416.42 606.95 418.87 609.46 421.03 605.55 413.37 590.63"/><polygon class="cls-2" points="421.7 604.32 419.1 599.06 421.81 589.66 424.56 599.17 421.7 604.32"/><path class="cls-2" d="M313.27,679.25l-2.78,3.34a8.93,8.93,0,0,1-5.66-5.42c-1.93-4.58-6.15-14.35-6.15-14.35Z"/><path class="cls-2" d="M311.68,682.89l17.43-20.31L323,677.65S320.55,684.71,311.68,682.89Z"/><polygon class="cls-2" points="322.67 656.19 311.9 675.93 314.11 678.26 319.09 672.55 322.67 656.19"/><polygon class="cls-2" points="305.55 656.19 308.6 672.51 311.05 675.03 313.21 671.12 305.55 656.19"/><polygon class="cls-2" points="313.88 669.88 311.27 664.62 313.99 655.23 316.73 664.74 313.88 669.88"/><path class="cls-2" d="M347.07,679.92l-2.78,3.34a8.94,8.94,0,0,1-5.67-5.42c-1.93-4.58-6.15-14.35-6.15-14.35Z"/><path class="cls-2" d="M345.47,683.56l17.44-20.31-6.09,15.07S354.35,685.38,345.47,683.56Z"/><polygon class="cls-2" points="356.46 656.86 345.7 676.6 347.9 678.93 352.89 673.23 356.46 656.86"/><polygon class="cls-2" points="339.34 656.86 342.39 673.18 344.84 675.7 347 671.79 339.34 656.86"/><polygon class="cls-2" points="347.68 670.55 345.07 665.3 347.78 655.9 350.53 665.41 347.68 670.55"/><path class="cls-2" d="M381.92,679.92l-2.78,3.34a8.93,8.93,0,0,1-5.66-5.42c-1.93-4.58-6.15-14.35-6.15-14.35Z"/><path class="cls-2" d="M380.33,683.56l17.44-20.31-6.09,15.07S389.2,685.38,380.33,683.56Z"/><polygon class="cls-2" points="391.32 656.86 380.55 676.6 382.76 678.93 387.74 673.23 391.32 656.86"/><polygon class="cls-2" points="374.2 656.86 377.25 673.18 379.7 675.7 381.86 671.79 374.2 656.86"/><polygon class="cls-2" points="382.53 670.55 379.93 665.3 382.64 655.9 385.38 665.41 382.53 670.55"/><path class="cls-2" d="M191,720.81l-2.78,3.35a9,9,0,0,1-5.67-5.43c-1.92-4.58-6.14-14.34-6.14-14.34Z"/><path class="cls-2" d="M189.39,724.45l17.43-20.31-6.08,15.07S198.26,726.27,189.39,724.45Z"/><polygon class="cls-2" points="200.38 697.76 189.61 717.49 191.81 719.83 196.8 714.12 200.38 697.76"/><polygon class="cls-2" points="183.26 697.76 186.31 714.07 188.76 716.59 190.91 712.68 183.26 697.76"/><polygon class="cls-2" points="191.59 711.45 188.98 706.19 191.7 696.79 194.44 706.3 191.59 711.45"/><path class="cls-2" d="M230.78,721.49,228,724.83a9,9,0,0,1-5.66-5.43c-1.93-4.58-6.15-14.34-6.15-14.34Z"/><path class="cls-2" d="M229.18,725.13l17.44-20.31-6.09,15.07S238.06,727,229.18,725.13Z"/><polygon class="cls-2" points="240.17 698.43 229.41 718.16 231.61 720.5 236.6 714.79 240.17 698.43"/><polygon class="cls-2" points="223.05 698.43 226.1 714.75 228.55 717.26 230.71 713.35 223.05 698.43"/><polygon class="cls-2" points="231.38 712.12 228.78 706.86 231.49 697.46 234.24 706.97 231.38 712.12"/><path class="cls-2" d="M264.63,721.49l-2.78,3.34a9,9,0,0,1-5.67-5.43c-1.92-4.58-6.14-14.34-6.14-14.34Z"/><path class="cls-2" d="M263,725.13l17.43-20.31-6.08,15.07S271.91,727,263,725.13Z"/><polygon class="cls-2" points="274.02 698.43 263.26 718.16 265.46 720.5 270.45 714.79 274.02 698.43"/><polygon class="cls-2" points="256.91 698.43 259.96 714.75 262.41 717.26 264.56 713.35 256.91 698.43"/><polygon class="cls-2" points="265.24 712.12 262.63 706.86 265.35 697.46 268.09 706.97 265.24 712.12"/><path class="cls-2" d="M186.63,753.57l-2.78,3.34a9,9,0,0,1-5.66-5.43c-1.93-4.58-6.15-14.34-6.15-14.34Z"/><path class="cls-2" d="M185,757.21l17.44-20.31L196.39,752S193.91,759,185,757.21Z"/><polygon class="cls-2" points="196.03 730.51 185.26 750.24 187.47 752.58 192.45 746.87 196.03 730.51"/><polygon class="cls-2" points="178.91 730.51 181.96 746.83 184.41 749.34 186.57 745.43 178.91 730.51"/><polygon class="cls-2" points="187.24 744.2 184.63 738.94 187.35 729.54 190.09 739.05 187.24 744.2"/><path class="cls-2" d="M226.26,755.55l-2.78,3.34a8.94,8.94,0,0,1-5.67-5.42c-1.93-4.59-6.15-14.35-6.15-14.35Z"/><path class="cls-2" d="M224.66,759.19l17.44-20.31L236,754S233.54,761,224.66,759.19Z"/><polygon class="cls-2" points="235.65 732.49 224.89 752.22 227.09 754.56 232.08 748.85 235.65 732.49"/><polygon class="cls-2" points="218.53 732.49 221.58 748.81 224.03 751.33 226.19 747.42 218.53 732.49"/><polygon class="cls-2" points="226.86 746.18 224.26 740.92 226.97 731.53 229.72 741.03 226.86 746.18"/><path class="cls-2" d="M260.11,756.22l-2.78,3.34a8.91,8.91,0,0,1-5.66-5.42c-1.93-4.58-6.15-14.35-6.15-14.35Z"/><path class="cls-2" d="M258.52,759.86,276,739.55l-6.08,15.07S267.39,761.68,258.52,759.86Z"/><polygon class="cls-2" points="269.51 733.16 258.74 752.9 260.94 755.23 265.93 749.53 269.51 733.16"/><polygon class="cls-2" points="252.39 733.16 255.44 749.48 257.89 752 260.05 748.09 252.39 733.16"/><polygon class="cls-2" points="260.72 746.85 258.11 741.59 260.83 732.2 263.57 741.71 260.72 746.85"/><path class="cls-2" d="M179.76,787.18,177,790.52a8.91,8.91,0,0,1-5.66-5.42c-1.93-4.58-6.15-14.35-6.15-14.35Z"/><path class="cls-2" d="M178.17,790.82l17.43-20.31-6.08,15.07S187,792.64,178.17,790.82Z"/><polygon class="cls-2" points="189.16 764.12 178.39 783.86 180.59 786.19 185.58 780.49 189.16 764.12"/><polygon class="cls-2" points="172.04 764.12 175.09 780.44 177.54 782.96 179.7 779.05 172.04 764.12"/><polygon class="cls-2" points="180.37 777.81 177.76 772.55 180.48 763.16 183.22 772.67 180.37 777.81"/><path class="cls-2" d="M220.84,789l-2.79,3.34a8.93,8.93,0,0,1-5.66-5.42c-1.93-4.58-6.15-14.35-6.15-14.35Z"/><path class="cls-2" d="M219.24,792.62l17.44-20.31-6.09,15.07S228.12,794.44,219.24,792.62Z"/><polygon class="cls-2" points="230.23 765.92 219.47 785.66 221.67 787.99 226.66 782.29 230.23 765.92"/><polygon class="cls-2" points="213.11 765.92 216.16 782.24 218.61 784.76 220.77 780.85 213.11 765.92"/><polygon class="cls-2" points="221.44 779.61 218.84 774.35 221.55 764.96 224.3 774.47 221.44 779.61"/><path class="cls-2" d="M258.22,787.85l-2.78,3.34a8.94,8.94,0,0,1-5.67-5.42c-1.93-4.58-6.15-14.34-6.15-14.34Z"/><path class="cls-2" d="M256.62,791.49l17.44-20.31L268,786.25S265.5,793.31,256.62,791.49Z"/><polygon class="cls-2" points="267.61 764.79 256.85 784.53 259.05 786.87 264.04 781.16 267.61 764.79"/><polygon class="cls-2" points="250.49 764.79 253.54 781.11 255.99 783.63 258.15 779.72 250.49 764.79"/><polygon class="cls-2" points="258.82 778.49 256.22 773.23 258.93 763.83 261.68 773.34 258.82 778.49"/><path class="cls-2" d="M299.84,722.7,297.06,726a8.94,8.94,0,0,1-5.67-5.42c-1.93-4.58-6.15-14.35-6.15-14.35Z"/><path class="cls-2" d="M298.24,726.34,315.68,706l-6.09,15.07S307.12,728.16,298.24,726.34Z"/><polygon class="cls-2" points="309.23 699.64 298.47 719.38 300.67 721.71 305.66 716.01 309.23 699.64"/><polygon class="cls-2" points="292.11 699.64 295.17 715.96 297.61 718.48 299.77 714.57 292.11 699.64"/><polygon class="cls-2" points="300.44 713.33 297.84 708.07 300.55 698.68 303.3 708.19 300.44 713.33"/><path class="cls-2" d="M335.63,723.37l-2.78,3.34a8.91,8.91,0,0,1-5.66-5.42C325.26,716.71,321,707,321,707Z"/><path class="cls-2" d="M334,727l17.43-20.31-6.08,15.07S342.91,728.83,334,727Z"/><polygon class="cls-2" points="345.03 700.32 334.26 720.05 336.46 722.38 341.45 716.68 345.03 700.32"/><polygon class="cls-2" points="327.91 700.32 330.96 716.63 333.41 719.15 335.57 715.24 327.91 700.32"/><polygon class="cls-2" points="336.24 714 333.63 708.75 336.35 699.35 339.09 708.86 336.24 714"/><path class="cls-2" d="M369.49,723.37l-2.78,3.34a8.94,8.94,0,0,1-5.67-5.42c-1.93-4.58-6.15-14.34-6.15-14.34Z"/><path class="cls-2" d="M367.89,727l17.44-20.31-6.09,15.07S376.77,728.83,367.89,727Z"/><polygon class="cls-2" points="378.88 700.32 368.12 720.05 370.32 722.38 375.31 716.68 378.88 700.32"/><polygon class="cls-2" points="361.76 700.32 364.82 716.63 367.26 719.15 369.42 715.24 361.76 700.32"/><polygon class="cls-2" points="370.1 714 367.49 708.75 370.2 699.35 372.95 708.86 370.1 714"/><path class="cls-2" d="M294.94,756.09l-2.78,3.34a8.94,8.94,0,0,1-5.67-5.42c-1.92-4.58-6.14-14.35-6.14-14.35Z"/><path class="cls-2" d="M293.35,759.73l17.43-20.31-6.08,15.07S302.22,761.55,293.35,759.73Z"/><polygon class="cls-2" points="304.33 733.03 293.57 752.77 295.77 755.1 300.76 749.4 304.33 733.03"/><polygon class="cls-2" points="287.22 733.03 290.27 749.35 292.72 751.87 294.88 747.96 287.22 733.03"/><polygon class="cls-2" points="295.55 746.72 292.94 741.47 295.66 732.07 298.4 741.58 295.55 746.72"/><path class="cls-2" d="M330.74,756.76,328,760.1a8.93,8.93,0,0,1-5.66-5.42c-1.93-4.58-6.15-14.34-6.15-14.34Z"/><path class="cls-2" d="M329.14,760.4l17.44-20.31-6.09,15.07S338,762.22,329.14,760.4Z"/><polygon class="cls-2" points="340.13 733.71 329.37 753.44 331.57 755.77 336.56 750.07 340.13 733.71"/><polygon class="cls-2" points="323.01 733.71 326.06 750.02 328.51 752.54 330.67 748.63 323.01 733.71"/><polygon class="cls-2" points="331.34 747.39 328.74 742.14 331.45 732.74 334.2 742.25 331.34 747.39"/><path class="cls-2" d="M365.59,756.76l-2.78,3.34a8.91,8.91,0,0,1-5.66-5.42c-1.93-4.58-6.15-14.34-6.15-14.34Z"/><path class="cls-2" d="M364,760.4l17.43-20.31-6.08,15.07S372.87,762.22,364,760.4Z"/><polygon class="cls-2" points="374.99 733.71 364.22 753.44 366.42 755.77 371.41 750.07 374.99 733.71"/><polygon class="cls-2" points="357.87 733.71 360.92 750.02 363.37 752.54 365.53 748.63 357.87 733.71"/><polygon class="cls-2" points="366.2 747.39 363.59 742.14 366.31 732.74 369.05 742.25 366.2 747.39"/><path class="cls-2" d="M399.93,755.55l-2.79,3.34a8.93,8.93,0,0,1-5.66-5.42c-1.93-4.59-6.15-14.35-6.15-14.35Z"/><path class="cls-2" d="M398.33,759.19l17.44-20.31L409.68,754S407.21,761,398.33,759.19Z"/><polygon class="cls-2" points="409.32 732.49 398.56 752.22 400.76 754.56 405.75 748.85 409.32 732.49"/><polygon class="cls-2" points="392.2 732.49 395.25 748.81 397.7 751.33 399.86 747.42 392.2 732.49"/><polygon class="cls-2" points="400.53 746.18 397.93 740.92 400.64 731.53 403.39 741.03 400.53 746.18"/><path class="cls-2" d="M397.77,788.4,395,791.74a9,9,0,0,1-5.67-5.43c-1.93-4.58-6.15-14.34-6.15-14.34Z"/><path class="cls-2" d="M396.17,792l17.44-20.32-6.09,15.08S405.05,793.86,396.17,792Z"/><polygon class="cls-2" points="407.16 765.34 396.4 785.07 398.6 787.41 403.59 781.7 407.16 765.34"/><polygon class="cls-2" points="390.05 765.34 393.1 781.66 395.55 784.17 397.7 780.26 390.05 765.34"/><polygon class="cls-2" points="398.38 779.03 395.77 773.77 398.48 764.37 401.23 773.88 398.38 779.03"/><path class="cls-2" d="M402.76,722.16,400,725.5a8.91,8.91,0,0,1-5.66-5.42c-1.93-4.59-6.15-14.35-6.15-14.35Z"/><path class="cls-2" d="M401.17,725.8l17.43-20.31-6.08,15.07S410,727.62,401.17,725.8Z"/><polygon class="cls-2" points="412.16 699.1 401.39 718.83 403.59 721.17 408.58 715.46 412.16 699.1"/><polygon class="cls-2" points="395.04 699.1 398.09 715.42 400.54 717.93 402.7 714.02 395.04 699.1"/><polygon class="cls-2" points="403.37 712.79 400.76 707.53 403.48 698.14 406.22 707.64 403.37 712.79"/><path class="cls-2" d="M294.94,787.72l-2.78,3.35a9,9,0,0,1-5.67-5.43c-1.92-4.58-6.14-14.34-6.14-14.34Z"/><path class="cls-2" d="M293.35,791.36l17.43-20.31-6.08,15.07S302.22,793.18,293.35,791.36Z"/><polygon class="cls-2" points="304.33 764.67 293.57 784.4 295.77 786.74 300.76 781.03 304.33 764.67"/><polygon class="cls-2" points="287.22 764.67 290.27 780.98 292.72 783.5 294.88 779.59 287.22 764.67"/><polygon class="cls-2" points="295.55 778.36 292.94 773.1 295.66 763.7 298.4 773.21 295.55 778.36"/><path class="cls-2" d="M328.74,788.4,326,791.74a9,9,0,0,1-5.66-5.43c-1.93-4.58-6.15-14.34-6.15-14.34Z"/><path class="cls-2" d="M327.14,792l17.44-20.32-6.09,15.08S336,793.86,327.14,792Z"/><polygon class="cls-2" points="338.13 765.34 327.37 785.07 329.57 787.41 334.56 781.7 338.13 765.34"/><polygon class="cls-2" points="321.01 765.34 324.06 781.66 326.51 784.17 328.67 780.26 321.01 765.34"/><polygon class="cls-2" points="329.34 779.03 326.74 773.77 329.45 764.37 332.2 773.88 329.34 779.03"/><path class="cls-2" d="M363.59,788.4l-2.78,3.34a8.94,8.94,0,0,1-5.66-5.43C353.22,781.73,349,772,349,772Z"/><path class="cls-2" d="M362,792l17.43-20.32-6.08,15.08S370.87,793.86,362,792Z"/><polygon class="cls-2" points="372.99 765.34 362.22 785.07 364.42 787.41 369.41 781.7 372.99 765.34"/><polygon class="cls-2" points="355.87 765.34 358.92 781.66 361.37 784.17 363.53 780.26 355.87 765.34"/><polygon class="cls-2" points="364.2 779.03 361.59 773.77 364.31 764.37 367.05 773.88 364.2 779.03"/><path class="cls-2" d="M672.78,700.51l-21.43,23.56s-28.79-6-43.65-38.26-47.35-101.18-47.35-101.18Z"/><path class="cls-2" d="M660.49,726.19l134.3-143.28-46.88,106.3S728.85,739,660.49,726.19Z"/><polygon class="cls-2" points="745.13 537.86 662.22 677.05 679.18 693.54 717.6 653.28 745.13 537.86"/><polygon class="cls-2" points="613.28 537.86 636.78 652.97 655.64 670.72 672.26 643.14 613.28 537.86"/><polygon class="cls-2" points="677.45 634.42 657.37 597.34 678.27 531.06 699.43 598.13 677.45 634.42"/><path class="cls-3" d="M1007.85,878.88,918,789h0l-32.14-32.14a27.88,27.88,0,0,0-39.38,0l-3.94,3.94L828.92,747.2a182.9,182.9,0,0,0,42.61-117.52c0-101.32-82.44-183.75-183.76-183.75S504,528.36,504,629.68s82.43,183.75,183.75,183.75a183,183,0,0,0,117.52-42.6l13.57,13.57-3.94,3.94a27.89,27.89,0,0,0,0,39.38L937,949.76a27.82,27.82,0,0,0,39.38,0l31.5-31.5A27.87,27.87,0,0,0,1007.85,878.88ZM687.77,780c-82.9,0-150.34-67.44-150.34-150.34s67.44-150.34,150.34-150.34,150.34,67.44,150.34,150.34S770.67,780,687.77,780Zm154.72,28,23.63-23.63,16.39,16.39-23.63,23.63ZM956.66,922.2l-74.15-74.15,23.63-23.63,74.15,74.15Z"/><path class="cls-3" d="M687.77,512.76a16.71,16.71,0,0,0,0,33.42,83.6,83.6,0,0,1,83.5,83.5,16.71,16.71,0,0,0,33.42,0A117.05,117.05,0,0,0,687.77,512.76Z"/></svg>