<svg id="Capa_1" data-name="Capa 1" xmlns="http://www.w3.org/2000/svg" viewBox="0 0 1080 1080"><defs><style>.cls-1{fill:#f6b818;}.cls-2{fill:#fff;}</style></defs><path class="cls-1" d="M860.56,397.66H245l-95.75,465.1h793.4Z"/><path class="cls-1" d="M916.23,717l-1-.83H655.37V866.67H942.63Z"/><path class="cls-1" d="M214,552.05H409.14V401.57H245Z"/><path class="cls-1" d="M340.74,647.8V552.05H214L149.23,866.67H655.37V716.2H764.8V647.8Z"/><path class="cls-2" d="M438.69,384H245a13.68,13.68,0,0,0-13.4,10.92L135.83,860a13.67,13.67,0,0,0,13.4,16.44H942.64a13.69,13.69,0,0,0,13.67-13.69,13.39,13.39,0,0,0-.21-2.37L874,395.28A13.68,13.68,0,0,0,860.56,384H438.69Zm230.36,465.1V726H904.6l21.73,123.11ZM641.5,411.34H849.09l50.69,287.27H778.49V643.89a13.68,13.68,0,0,0-13.68-13.68H354.42v-68.4h54.72a13.67,13.67,0,0,0,13.68-13.67h0V411.34H641.5Zm-385.36,0H395.46V534.45H230.79Zm-31,150.47H327.07v82.08a13.67,13.67,0,0,0,13.67,13.68H751.13v41H655.37a13.68,13.68,0,0,0-13.68,13.67h0V849.08H166Z"/><path class="cls-2" d="M239,599.92l-2.78,3.34a8.94,8.94,0,0,1-5.67-5.42c-1.92-4.58-6.14-14.35-6.14-14.35Z"/><path class="cls-2" d="M237.37,603.56l17.43-20.31-6.08,15.07S246.24,605.38,237.37,603.56Z"/><polygon class="cls-2" points="248.35 576.86 237.59 596.6 239.79 598.93 244.78 593.23 248.35 576.86"/><polygon class="cls-2" points="231.24 576.86 234.29 593.18 236.74 595.7 238.9 591.79 231.24 576.86"/><polygon class="cls-2" points="239.57 590.55 236.96 585.29 239.68 575.9 242.42 585.41 239.57 590.55"/><path class="cls-2" d="M274.76,600.59,272,603.93a8.93,8.93,0,0,1-5.66-5.42c-1.93-4.58-6.15-14.35-6.15-14.35Z"/><path class="cls-2" d="M273.16,604.23l17.44-20.31L284.51,599S282,606.05,273.16,604.23Z"/><polygon class="cls-2" points="284.15 577.53 273.39 597.27 275.59 599.6 280.58 593.9 284.15 577.53"/><polygon class="cls-2" points="267.03 577.53 270.08 593.85 272.53 596.37 274.69 592.46 267.03 577.53"/><polygon class="cls-2" points="275.36 591.22 272.76 585.97 275.47 576.57 278.22 586.08 275.36 591.22"/><path class="cls-2" d="M308.61,600.59l-2.78,3.34a8.94,8.94,0,0,1-5.67-5.42c-1.92-4.58-6.14-14.35-6.14-14.35Z"/><path class="cls-2" d="M307,604.23l17.43-20.31L318.37,599S315.89,606.05,307,604.23Z"/><polygon class="cls-2" points="318.01 577.53 307.24 597.27 309.44 599.6 314.43 593.9 318.01 577.53"/><polygon class="cls-2" points="300.89 577.53 303.94 593.85 306.39 596.37 308.55 592.46 300.89 577.53"/><polygon class="cls-2" points="309.22 591.22 306.61 585.97 309.33 576.57 312.07 586.08 309.22 591.22"/><path class="cls-2" d="M232,632.84l-2.78,3.34a8.94,8.94,0,0,1-5.67-5.42c-1.93-4.58-6.14-14.35-6.14-14.35Z"/><path class="cls-2" d="M230.42,636.48l17.43-20.31-6.08,15.07S239.29,638.3,230.42,636.48Z"/><polygon class="cls-2" points="241.4 609.78 230.64 629.52 232.84 631.85 237.83 626.15 241.4 609.78"/><polygon class="cls-2" points="224.29 609.78 227.34 626.1 229.79 628.62 231.94 624.71 224.29 609.78"/><polygon class="cls-2" points="232.62 623.47 230.01 618.22 232.72 608.82 235.47 618.33 232.62 623.47"/><path class="cls-2" d="M267.81,633.51,265,636.86a9,9,0,0,1-5.66-5.43c-1.93-4.58-6.15-14.34-6.15-14.34Z"/><path class="cls-2" d="M266.21,637.15l17.44-20.31-6.09,15.07S275.09,639,266.21,637.15Z"/><polygon class="cls-2" points="277.2 610.46 266.44 630.19 268.64 632.53 273.63 626.82 277.2 610.46"/><polygon class="cls-2" points="260.08 610.46 263.13 626.77 265.58 629.29 267.74 625.38 260.08 610.46"/><polygon class="cls-2" points="268.41 624.14 265.81 618.89 268.52 609.49 271.27 619 268.41 624.14"/><path class="cls-2" d="M301.66,633.51l-2.78,3.35a9,9,0,0,1-5.67-5.43c-1.92-4.58-6.14-14.34-6.14-14.34Z"/><path class="cls-2" d="M300.07,637.15l17.43-20.31-6.08,15.07S308.94,639,300.07,637.15Z"/><polygon class="cls-2" points="311.06 610.46 300.29 630.19 302.49 632.53 307.48 626.82 311.06 610.46"/><polygon class="cls-2" points="293.94 610.46 296.99 626.77 299.44 629.29 301.59 625.38 293.94 610.46"/><polygon class="cls-2" points="302.27 624.14 299.66 618.89 302.38 609.49 305.12 619 302.27 624.14"/><path class="cls-2" d="M227.33,665.76l-2.78,3.35a9,9,0,0,1-5.67-5.43c-1.93-4.58-6.15-14.34-6.15-14.34Z"/><path class="cls-2" d="M225.73,669.4l17.44-20.31-6.09,15.07S234.61,671.22,225.73,669.4Z"/><polygon class="cls-2" points="236.72 642.71 225.96 662.44 228.16 664.78 233.15 659.07 236.72 642.71"/><polygon class="cls-2" points="219.6 642.71 222.66 659.02 225.1 661.54 227.26 657.63 219.6 642.71"/><polygon class="cls-2" points="227.94 656.39 225.33 651.14 228.04 641.74 230.79 651.25 227.94 656.39"/><path class="cls-2" d="M263.12,666.44l-2.78,3.34a9,9,0,0,1-5.66-5.43c-1.93-4.58-6.15-14.34-6.15-14.34Z"/><path class="cls-2" d="M261.53,670.08,279,649.76l-6.08,15.07S270.4,671.9,261.53,670.08Z"/><polygon class="cls-2" points="272.52 643.38 261.75 663.11 263.96 665.45 268.94 659.74 272.52 643.38"/><polygon class="cls-2" points="255.4 643.38 258.45 659.7 260.9 662.21 263.06 658.3 255.4 643.38"/><polygon class="cls-2" points="263.73 657.07 261.13 651.81 263.84 642.41 266.58 651.92 263.73 657.07"/><path class="cls-2" d="M297,666.44l-2.78,3.34a9,9,0,0,1-5.67-5.43c-1.93-4.58-6.15-14.34-6.15-14.34Z"/><path class="cls-2" d="M295.38,670.08l17.44-20.32-6.09,15.07S304.26,671.9,295.38,670.08Z"/><polygon class="cls-2" points="306.37 643.38 295.61 663.11 297.81 665.45 302.8 659.74 306.37 643.38"/><polygon class="cls-2" points="289.26 643.38 292.31 659.7 294.76 662.21 296.91 658.3 289.26 643.38"/><polygon class="cls-2" points="297.59 657.07 294.98 651.81 297.69 642.41 300.44 651.92 297.59 657.07"/><path class="cls-2" d="M219.7,703.63,216.92,707a9,9,0,0,1-5.67-5.43c-1.92-4.58-6.14-14.34-6.14-14.34Z"/><path class="cls-2" d="M218.11,707.27,235.54,687,229.46,702S227,709.09,218.11,707.27Z"/><polygon class="cls-2" points="229.09 680.57 218.33 700.3 220.53 702.64 225.52 696.93 229.09 680.57"/><polygon class="cls-2" points="211.98 680.57 215.03 696.89 217.48 699.4 219.63 695.49 211.98 680.57"/><polygon class="cls-2" points="220.31 694.26 217.7 689 220.41 679.61 223.16 689.11 220.31 694.26"/><path class="cls-2" d="M255.5,704.3l-2.79,3.34a8.93,8.93,0,0,1-5.66-5.42c-1.93-4.58-6.15-14.35-6.15-14.35Z"/><path class="cls-2" d="M253.9,707.94l17.44-20.31-6.09,15.07S262.78,709.76,253.9,707.94Z"/><polygon class="cls-2" points="264.89 681.24 254.13 700.98 256.33 703.31 261.32 697.6 264.89 681.24"/><polygon class="cls-2" points="247.77 681.24 250.82 697.56 253.27 700.08 255.43 696.17 247.77 681.24"/><polygon class="cls-2" points="256.1 694.93 253.5 689.67 256.21 680.28 258.96 689.78 256.1 694.93"/><path class="cls-2" d="M289.35,704.3l-2.78,3.34a8.94,8.94,0,0,1-5.67-5.42c-1.92-4.58-6.14-14.35-6.14-14.35Z"/><path class="cls-2" d="M287.76,707.94l17.43-20.31-6.08,15.07S296.63,709.76,287.76,707.94Z"/><polygon class="cls-2" points="298.75 681.24 287.98 700.98 290.18 703.31 295.17 697.6 298.75 681.24"/><polygon class="cls-2" points="281.63 681.24 284.68 697.56 287.13 700.08 289.29 696.17 281.63 681.24"/><polygon class="cls-2" points="289.96 694.93 287.35 689.67 290.07 680.28 292.81 689.78 289.96 694.93"/><path class="cls-2" d="M217.76,742.16,215,745.5a8.94,8.94,0,0,1-5.67-5.42c-1.92-4.58-6.14-14.34-6.14-14.34Z"/><path class="cls-2" d="M216.17,745.8l17.43-20.31-6.08,15.07S225,747.62,216.17,745.8Z"/><polygon class="cls-2" points="227.16 719.11 216.39 738.84 218.59 741.17 223.58 735.47 227.16 719.11"/><polygon class="cls-2" points="210.04 719.11 213.09 735.42 215.54 737.94 217.69 734.03 210.04 719.11"/><polygon class="cls-2" points="218.37 732.79 215.76 727.54 218.48 718.14 221.22 727.65 218.37 732.79"/><path class="cls-2" d="M253.56,742.84l-2.79,3.34a9,9,0,0,1-5.66-5.43c-1.93-4.58-6.15-14.34-6.15-14.34Z"/><path class="cls-2" d="M252,746.48l17.44-20.32-6.09,15.07S260.84,748.3,252,746.48Z"/><polygon class="cls-2" points="262.95 719.78 252.19 739.51 254.39 741.85 259.38 736.14 262.95 719.78"/><polygon class="cls-2" points="245.83 719.78 248.88 736.1 251.33 738.61 253.49 734.7 245.83 719.78"/><polygon class="cls-2" points="254.16 733.47 251.56 728.21 254.27 718.81 257.02 728.32 254.16 733.47"/><path class="cls-2" d="M287.41,742.84l-2.78,3.34a9,9,0,0,1-5.67-5.43c-1.92-4.58-6.14-14.34-6.14-14.34Z"/><path class="cls-2" d="M285.82,746.48l17.43-20.32-6.08,15.07S294.69,748.3,285.82,746.48Z"/><polygon class="cls-2" points="296.81 719.78 286.04 739.51 288.24 741.85 293.23 736.14 296.81 719.78"/><polygon class="cls-2" points="279.69 719.78 282.74 736.1 285.19 738.61 287.35 734.7 279.69 719.78"/><polygon class="cls-2" points="288.02 733.47 285.41 728.21 288.13 718.81 290.87 728.32 288.02 733.47"/><path class="cls-2" d="M216.11,778.33l-2.78,3.34a9,9,0,0,1-5.67-5.43c-1.93-4.58-6.15-14.34-6.15-14.34Z"/><path class="cls-2" d="M214.51,782,232,761.65l-6.09,15.07S223.39,783.79,214.51,782Z"/><polygon class="cls-2" points="225.5 755.27 214.74 775 216.94 777.34 221.93 771.63 225.5 755.27"/><polygon class="cls-2" points="208.38 755.27 211.44 771.59 213.88 774.1 216.04 770.19 208.38 755.27"/><polygon class="cls-2" points="216.72 768.96 214.11 763.7 216.82 754.3 219.57 763.81 216.72 768.96"/><path class="cls-2" d="M251.9,779l-2.78,3.34a8.94,8.94,0,0,1-5.66-5.43c-1.93-4.58-6.15-14.34-6.15-14.34Z"/><path class="cls-2" d="M250.31,782.64l17.43-20.31-6.08,15.07S259.18,784.46,250.31,782.64Z"/><polygon class="cls-2" points="261.3 755.94 250.53 775.67 252.74 778.01 257.72 772.3 261.3 755.94"/><polygon class="cls-2" points="244.18 755.94 247.23 772.26 249.68 774.77 251.84 770.86 244.18 755.94"/><polygon class="cls-2" points="252.51 769.63 249.9 764.37 252.62 754.97 255.36 764.48 252.51 769.63"/><path class="cls-2" d="M285.76,779,283,782.34a9,9,0,0,1-5.67-5.43c-1.93-4.58-6.15-14.34-6.15-14.34Z"/><path class="cls-2" d="M284.16,782.64l17.44-20.31-6.09,15.07S293,784.46,284.16,782.64Z"/><polygon class="cls-2" points="295.15 755.94 284.39 775.67 286.59 778.01 291.58 772.3 295.15 755.94"/><polygon class="cls-2" points="278.04 755.94 281.09 772.26 283.54 774.77 285.69 770.86 278.04 755.94"/><polygon class="cls-2" points="286.37 769.63 283.76 764.37 286.47 754.97 289.22 764.48 286.37 769.63"/><path class="cls-2" d="M214.21,811.72l-2.78,3.34a8.94,8.94,0,0,1-5.66-5.43c-1.93-4.58-6.15-14.34-6.15-14.34Z"/><path class="cls-2" d="M212.62,815.36,230.05,795,224,810.11S221.49,817.18,212.62,815.36Z"/><polygon class="cls-2" points="223.61 788.66 212.84 808.39 215.04 810.73 220.03 805.02 223.61 788.66"/><polygon class="cls-2" points="206.49 788.66 209.54 804.98 211.99 807.49 214.15 803.58 206.49 788.66"/><polygon class="cls-2" points="214.82 802.35 212.21 797.09 214.93 787.69 217.67 797.2 214.82 802.35"/><path class="cls-2" d="M250,812.39l-2.78,3.34a9,9,0,0,1-5.67-5.43c-1.93-4.58-6.15-14.34-6.15-14.34Z"/><path class="cls-2" d="M248.41,816l17.44-20.31-6.09,15.07S257.29,817.85,248.41,816Z"/><polygon class="cls-2" points="259.4 789.33 248.64 809.06 250.84 811.4 255.83 805.69 259.4 789.33"/><polygon class="cls-2" points="242.28 789.33 245.33 805.65 247.78 808.16 249.94 804.25 242.28 789.33"/><polygon class="cls-2" points="250.61 803.02 248.01 797.76 250.72 788.37 253.47 797.87 250.61 803.02"/><path class="cls-2" d="M283.86,812.39l-2.78,3.34a8.94,8.94,0,0,1-5.66-5.43c-1.93-4.58-6.15-14.34-6.15-14.34Z"/><path class="cls-2" d="M282.27,816l17.43-20.31-6.08,15.07S291.14,817.85,282.27,816Z"/><polygon class="cls-2" points="293.26 789.33 282.49 809.06 284.69 811.4 289.68 805.69 293.26 789.33"/><polygon class="cls-2" points="276.14 789.33 279.19 805.65 281.64 808.16 283.8 804.25 276.14 789.33"/><polygon class="cls-2" points="284.47 803.02 281.86 797.76 284.58 788.37 287.32 797.87 284.47 803.02"/><path class="cls-2" d="M214.21,843.35l-2.78,3.34a8.91,8.91,0,0,1-5.66-5.43c-1.93-4.58-6.15-14.34-6.15-14.34Z"/><path class="cls-2" d="M212.62,847l17.43-20.31L224,841.75S221.49,848.81,212.62,847Z"/><polygon class="cls-2" points="223.61 820.29 212.84 840.02 215.04 842.36 220.03 836.65 223.61 820.29"/><polygon class="cls-2" points="206.49 820.29 209.54 836.61 211.99 839.12 214.15 835.22 206.49 820.29"/><polygon class="cls-2" points="214.82 833.98 212.21 828.72 214.93 819.33 217.67 828.83 214.82 833.98"/><path class="cls-2" d="M250,844l-2.78,3.34a8.94,8.94,0,0,1-5.67-5.42c-1.93-4.58-6.15-14.35-6.15-14.35Z"/><path class="cls-2" d="M248.41,847.66l17.44-20.31-6.09,15.07S257.29,849.48,248.41,847.66Z"/><polygon class="cls-2" points="259.4 820.96 248.64 840.7 250.84 843.03 255.83 837.33 259.4 820.96"/><polygon class="cls-2" points="242.28 820.96 245.33 837.28 247.78 839.8 249.94 835.89 242.28 820.96"/><polygon class="cls-2" points="250.61 834.65 248.01 829.39 250.72 820 253.47 829.5 250.61 834.65"/><path class="cls-2" d="M283.86,844l-2.78,3.34a8.91,8.91,0,0,1-5.66-5.42c-1.93-4.58-6.15-14.35-6.15-14.35Z"/><path class="cls-2" d="M282.27,847.66l17.43-20.31-6.08,15.07S291.14,849.48,282.27,847.66Z"/><polygon class="cls-2" points="293.26 820.96 282.49 840.7 284.69 843.03 289.68 837.33 293.26 820.96"/><polygon class="cls-2" points="276.14 820.96 279.19 837.28 281.64 839.8 283.8 835.89 276.14 820.96"/><polygon class="cls-2" points="284.47 834.65 281.86 829.39 284.58 820 287.32 829.5 284.47 834.65"/><path class="cls-2" d="M324.19,702.41l-2.78,3.34a8.94,8.94,0,0,1-5.67-5.42c-1.93-4.58-6.15-14.34-6.15-14.34Z"/><path class="cls-2" d="M322.59,706.05,340,685.74l-6.09,15.07S331.47,707.87,322.59,706.05Z"/><polygon class="cls-2" points="333.58 679.36 322.82 699.09 325.02 701.43 330.01 695.72 333.58 679.36"/><polygon class="cls-2" points="316.46 679.36 319.51 695.67 321.96 698.19 324.12 694.28 316.46 679.36"/><polygon class="cls-2" points="324.79 693.04 322.19 687.79 324.9 678.39 327.65 687.9 324.79 693.04"/><path class="cls-2" d="M270.15,451.83l-2.78,3.34a9,9,0,0,1-5.67-5.43c-1.93-4.58-6.14-14.34-6.14-14.34Z"/><path class="cls-2" d="M268.56,455.47,286,435.15l-6.08,15.07S277.43,457.29,268.56,455.47Z"/><polygon class="cls-2" points="279.54 428.77 268.78 448.5 270.98 450.84 275.97 445.13 279.54 428.77"/><polygon class="cls-2" points="262.43 428.77 265.48 445.08 267.93 447.6 270.08 443.69 262.43 428.77"/><polygon class="cls-2" points="270.76 442.46 268.15 437.2 270.87 427.8 273.61 437.31 270.76 442.46"/><path class="cls-2" d="M306,452.5l-2.79,3.34a8.93,8.93,0,0,1-5.66-5.43c-1.93-4.58-6.15-14.34-6.15-14.34Z"/><path class="cls-2" d="M304.35,456.14l17.44-20.31L315.7,450.9S313.23,458,304.35,456.14Z"/><polygon class="cls-2" points="315.34 429.44 304.57 449.17 306.78 451.51 311.76 445.8 315.34 429.44"/><polygon class="cls-2" points="298.22 429.44 301.27 445.76 303.72 448.27 305.88 444.36 298.22 429.44"/><polygon class="cls-2" points="306.55 443.13 303.95 437.87 306.66 428.48 309.41 437.98 306.55 443.13"/><path class="cls-2" d="M339.8,452.5,337,455.84a8.94,8.94,0,0,1-5.67-5.43c-1.92-4.58-6.14-14.34-6.14-14.34Z"/><path class="cls-2" d="M338.21,456.14l17.43-20.31-6.08,15.07S347.08,458,338.21,456.14Z"/><polygon class="cls-2" points="349.19 429.44 338.43 449.17 340.63 451.51 345.62 445.8 349.19 429.44"/><polygon class="cls-2" points="332.08 429.44 335.13 445.76 337.58 448.27 339.73 444.36 332.08 429.44"/><polygon class="cls-2" points="340.41 443.13 337.8 437.87 340.51 428.48 343.26 437.98 340.41 443.13"/><path class="cls-2" d="M374.64,450.61,371.85,454a8.93,8.93,0,0,1-5.66-5.42C364.26,444,360,434.18,360,434.18Z"/><path class="cls-2" d="M373,454.25l17.44-20.31L384.39,449S381.92,456.07,373,454.25Z"/><polygon class="cls-2" points="384.03 427.55 373.27 447.29 375.47 449.62 380.46 443.92 384.03 427.55"/><polygon class="cls-2" points="366.91 427.55 369.96 443.87 372.41 446.39 374.57 442.48 366.91 427.55"/><polygon class="cls-2" points="375.24 441.24 372.64 435.99 375.35 426.59 378.1 436.1 375.24 441.24"/><path class="cls-2" d="M270.94,485.2l-2.78,3.34a9,9,0,0,1-5.67-5.43c-1.92-4.58-6.14-14.34-6.14-14.34Z"/><path class="cls-2" d="M269.35,488.84l17.43-20.31L280.7,483.6S278.22,490.66,269.35,488.84Z"/><polygon class="cls-2" points="280.33 462.14 269.57 481.87 271.77 484.21 276.76 478.5 280.33 462.14"/><polygon class="cls-2" points="263.22 462.14 266.27 478.46 268.72 480.97 270.87 477.06 263.22 462.14"/><polygon class="cls-2" points="271.55 475.83 268.94 470.57 271.65 461.17 274.4 470.68 271.55 475.83"/><path class="cls-2" d="M306.74,485.87,304,489.21a8.93,8.93,0,0,1-5.66-5.42c-1.93-4.58-6.15-14.35-6.15-14.35Z"/><path class="cls-2" d="M305.14,489.51l17.44-20.31-6.09,15.07S314,491.33,305.14,489.51Z"/><polygon class="cls-2" points="316.13 462.81 305.37 482.54 307.57 484.88 312.56 479.17 316.13 462.81"/><polygon class="cls-2" points="299.01 462.81 302.06 479.13 304.51 481.65 306.67 477.74 299.01 462.81"/><polygon class="cls-2" points="307.34 476.5 304.74 471.24 307.45 461.85 310.2 471.36 307.34 476.5"/><path class="cls-2" d="M340.59,485.87l-2.78,3.34a8.94,8.94,0,0,1-5.67-5.42c-1.92-4.58-6.14-14.35-6.14-14.35Z"/><path class="cls-2" d="M339,489.51l17.43-20.31-6.08,15.07S347.87,491.33,339,489.51Z"/><polygon class="cls-2" points="349.99 462.81 339.22 482.54 341.42 484.88 346.41 479.17 349.99 462.81"/><polygon class="cls-2" points="332.87 462.81 335.92 479.13 338.37 481.65 340.52 477.74 332.87 462.81"/><polygon class="cls-2" points="341.2 476.5 338.59 471.24 341.31 461.85 344.05 471.36 341.2 476.5"/><path class="cls-2" d="M375.43,484l-2.78,3.34A8.94,8.94,0,0,1,367,481.9c-1.93-4.58-6.15-14.35-6.15-14.35Z"/><path class="cls-2" d="M373.83,487.62l17.44-20.31-6.09,15.07S382.71,489.44,373.83,487.62Z"/><polygon class="cls-2" points="384.82 460.93 374.06 480.66 376.26 483 381.25 477.29 384.82 460.93"/><polygon class="cls-2" points="367.7 460.93 370.75 477.24 373.2 479.76 375.36 475.85 367.7 460.93"/><polygon class="cls-2" points="376.03 474.61 373.43 469.36 376.14 459.96 378.89 469.47 376.03 474.61"/><path class="cls-2" d="M271.49,518.6l-2.78,3.34a8.94,8.94,0,0,1-5.67-5.42c-1.92-4.58-6.14-14.35-6.14-14.35Z"/><path class="cls-2" d="M269.9,522.24l17.43-20.31L281.25,517S278.77,524.06,269.9,522.24Z"/><polygon class="cls-2" points="280.89 495.54 270.12 515.28 272.32 517.61 277.31 511.91 280.89 495.54"/><polygon class="cls-2" points="263.77 495.54 266.82 511.86 269.27 514.38 271.43 510.47 263.77 495.54"/><polygon class="cls-2" points="272.1 509.23 269.49 503.97 272.21 494.58 274.95 504.09 272.1 509.23"/><path class="cls-2" d="M307.29,519.27l-2.78,3.34a8.94,8.94,0,0,1-5.67-5.42c-1.93-4.58-6.15-14.35-6.15-14.35Z"/><path class="cls-2" d="M305.69,522.91l17.44-20.31L317,517.67S314.57,524.73,305.69,522.91Z"/><polygon class="cls-2" points="316.68 496.21 305.92 515.95 308.12 518.28 313.11 512.58 316.68 496.21"/><polygon class="cls-2" points="299.56 496.21 302.61 512.53 305.06 515.05 307.22 511.14 299.56 496.21"/><polygon class="cls-2" points="307.89 509.9 305.29 504.65 308 495.25 310.75 504.76 307.89 509.9"/><path class="cls-2" d="M341.14,519.27l-2.78,3.34a8.91,8.91,0,0,1-5.66-5.42c-1.93-4.58-6.15-14.35-6.15-14.35Z"/><path class="cls-2" d="M339.55,522.91,357,502.6l-6.08,15.07S348.42,524.73,339.55,522.91Z"/><polygon class="cls-2" points="350.54 496.21 339.77 515.95 341.98 518.28 346.96 512.58 350.54 496.21"/><polygon class="cls-2" points="333.42 496.21 336.47 512.53 338.92 515.05 341.08 511.14 333.42 496.21"/><polygon class="cls-2" points="341.75 509.9 339.14 504.65 341.86 495.25 344.6 504.76 341.75 509.9"/><path class="cls-2" d="M376,517.39l-2.78,3.34a9,9,0,0,1-5.67-5.43c-1.93-4.58-6.15-14.34-6.15-14.34Z"/><path class="cls-2" d="M374.38,521l17.44-20.31-6.09,15.07S383.26,522.85,374.38,521Z"/><polygon class="cls-2" points="385.37 494.33 374.61 514.06 376.81 516.4 381.8 510.69 385.37 494.33"/><polygon class="cls-2" points="368.25 494.33 371.31 510.65 373.75 513.16 375.91 509.25 368.25 494.33"/><polygon class="cls-2" points="376.58 508.02 373.98 502.76 376.69 493.37 379.44 502.87 376.58 508.02"/><path class="cls-2" d="M360,703.09l-2.78,3.34a9,9,0,0,1-5.67-5.43c-1.92-4.58-6.14-14.34-6.14-14.34Z"/><path class="cls-2" d="M358.39,706.73l17.43-20.32-6.08,15.07S367.26,708.55,358.39,706.73Z"/><polygon class="cls-2" points="369.38 680.03 358.61 699.76 360.81 702.1 365.8 696.39 369.38 680.03"/><polygon class="cls-2" points="352.26 680.03 355.31 696.35 357.76 698.86 359.91 694.95 352.26 680.03"/><polygon class="cls-2" points="360.59 693.72 357.98 688.46 360.69 679.06 363.44 688.57 360.59 693.72"/><path class="cls-2" d="M393.84,703.09l-2.78,3.34a9,9,0,0,1-5.67-5.43c-1.93-4.58-6.15-14.34-6.15-14.34Z"/><path class="cls-2" d="M392.24,706.73l17.44-20.32-6.09,15.07S401.12,708.55,392.24,706.73Z"/><polygon class="cls-2" points="403.23 680.03 392.47 699.76 394.67 702.1 399.66 696.39 403.23 680.03"/><polygon class="cls-2" points="386.11 680.03 389.16 696.35 391.61 698.86 393.77 694.95 386.11 680.03"/><polygon class="cls-2" points="394.44 693.72 391.84 688.46 394.55 679.06 397.3 688.57 394.44 693.72"/><path class="cls-2" d="M322.25,741l-2.78,3.34a8.94,8.94,0,0,1-5.67-5.42c-1.93-4.58-6.15-14.35-6.15-14.35Z"/><path class="cls-2" d="M320.65,744.59l17.44-20.31L332,739.35S329.53,746.41,320.65,744.59Z"/><polygon class="cls-2" points="331.64 717.89 320.88 737.63 323.08 739.96 328.07 734.25 331.64 717.89"/><polygon class="cls-2" points="314.52 717.89 317.57 734.21 320.02 736.73 322.18 732.82 314.52 717.89"/><polygon class="cls-2" points="322.85 731.58 320.25 726.32 322.96 716.93 325.71 726.43 322.85 731.58"/><path class="cls-2" d="M358,741.62,355.26,745a8.94,8.94,0,0,1-5.67-5.42c-1.92-4.58-6.14-14.35-6.14-14.35Z"/><path class="cls-2" d="M356.45,745.26,373.88,725,367.8,740S365.32,747.08,356.45,745.26Z"/><polygon class="cls-2" points="367.44 718.56 356.67 738.3 358.87 740.63 363.86 734.93 367.44 718.56"/><polygon class="cls-2" points="350.32 718.56 353.37 734.88 355.82 737.4 357.98 733.49 350.32 718.56"/><polygon class="cls-2" points="358.65 732.25 356.04 727 358.76 717.6 361.5 727.11 358.65 732.25"/><path class="cls-2" d="M391.9,741.62,389.12,745a8.94,8.94,0,0,1-5.67-5.42c-1.93-4.58-6.15-14.35-6.15-14.35Z"/><path class="cls-2" d="M390.3,745.26,407.74,725,401.65,740S399.18,747.08,390.3,745.26Z"/><polygon class="cls-2" points="401.29 718.56 390.53 738.3 392.73 740.63 397.72 734.93 401.29 718.56"/><polygon class="cls-2" points="384.17 718.56 387.23 734.88 389.67 737.4 391.83 733.49 384.17 718.56"/><polygon class="cls-2" points="392.5 732.25 389.9 727 392.61 717.6 395.36 727.11 392.5 732.25"/><path class="cls-2" d="M320.59,777.11l-2.78,3.34a8.93,8.93,0,0,1-5.66-5.42c-1.93-4.58-6.15-14.35-6.15-14.35Z"/><path class="cls-2" d="M319,780.75l17.44-20.31-6.09,15.07S327.87,782.57,319,780.75Z"/><polygon class="cls-2" points="329.99 754.05 319.22 773.79 321.43 776.12 326.41 770.42 329.99 754.05"/><polygon class="cls-2" points="312.87 754.05 315.92 770.37 318.37 772.89 320.53 768.98 312.87 754.05"/><polygon class="cls-2" points="321.2 767.74 318.6 762.48 321.31 753.09 324.06 762.6 321.2 767.74"/><path class="cls-2" d="M356.39,777.78l-2.78,3.34a8.94,8.94,0,0,1-5.67-5.42c-1.93-4.58-6.15-14.35-6.15-14.35Z"/><path class="cls-2" d="M354.79,781.42l17.44-20.31-6.09,15.07S363.67,783.24,354.79,781.42Z"/><polygon class="cls-2" points="365.78 754.73 355.02 774.46 357.22 776.79 362.21 771.09 365.78 754.73"/><polygon class="cls-2" points="348.67 754.73 351.72 771.04 354.17 773.56 356.32 769.65 348.67 754.73"/><polygon class="cls-2" points="357 768.41 354.39 763.16 357.1 753.76 359.85 763.27 357 768.41"/><path class="cls-2" d="M390.25,777.78l-2.79,3.34a8.93,8.93,0,0,1-5.66-5.42c-1.93-4.58-6.15-14.35-6.15-14.35Z"/><path class="cls-2" d="M388.65,781.42l17.44-20.31L400,776.18S397.53,783.24,388.65,781.42Z"/><polygon class="cls-2" points="399.64 754.73 388.88 774.46 391.08 776.79 396.06 771.09 399.64 754.73"/><polygon class="cls-2" points="382.52 754.73 385.57 771.04 388.02 773.56 390.18 769.65 382.52 754.73"/><polygon class="cls-2" points="390.85 768.41 388.25 763.16 390.96 753.76 393.7 763.27 390.85 768.41"/><path class="cls-2" d="M318.7,810.5l-2.78,3.34a8.94,8.94,0,0,1-5.67-5.42c-1.93-4.58-6.15-14.35-6.15-14.35Z"/><path class="cls-2" d="M317.1,814.14l17.44-20.31-6.09,15.07S326,816,317.1,814.14Z"/><polygon class="cls-2" points="328.09 787.44 317.33 807.18 319.53 809.51 324.52 803.81 328.09 787.44"/><polygon class="cls-2" points="310.97 787.44 314.02 803.76 316.47 806.28 318.63 802.37 310.97 787.44"/><polygon class="cls-2" points="319.31 801.13 316.7 795.87 319.41 786.48 322.16 795.99 319.31 801.13"/><path class="cls-2" d="M354.49,811.17l-2.78,3.34a8.91,8.91,0,0,1-5.66-5.42c-1.93-4.58-6.15-14.34-6.15-14.34Z"/><path class="cls-2" d="M352.9,814.81l17.43-20.31-6.08,15.07S361.77,816.63,352.9,814.81Z"/><polygon class="cls-2" points="363.89 788.12 353.12 807.85 355.32 810.18 360.31 804.48 363.89 788.12"/><polygon class="cls-2" points="346.77 788.12 349.82 804.43 352.27 806.95 354.43 803.04 346.77 788.12"/><polygon class="cls-2" points="355.1 801.8 352.49 796.55 355.21 787.15 357.95 796.66 355.1 801.8"/><path class="cls-2" d="M388.35,811.17l-2.78,3.34a8.94,8.94,0,0,1-5.67-5.42c-1.93-4.58-6.15-14.34-6.15-14.34Z"/><path class="cls-2" d="M386.75,814.81l17.44-20.31-6.09,15.07S395.63,816.63,386.75,814.81Z"/><polygon class="cls-2" points="397.74 788.12 386.98 807.85 389.18 810.18 394.17 804.48 397.74 788.12"/><polygon class="cls-2" points="380.63 788.12 383.68 804.43 386.13 806.95 388.28 803.04 380.63 788.12"/><polygon class="cls-2" points="388.96 801.8 386.35 796.55 389.06 787.15 391.81 796.66 388.96 801.8"/><path class="cls-2" d="M318.7,842.13l-2.78,3.35a9,9,0,0,1-5.67-5.43c-1.93-4.58-6.15-14.34-6.15-14.34Z"/><path class="cls-2" d="M317.1,845.77l17.44-20.31-6.09,15.07S326,847.59,317.1,845.77Z"/><polygon class="cls-2" points="328.09 819.08 317.33 838.81 319.53 841.15 324.52 835.44 328.09 819.08"/><polygon class="cls-2" points="310.97 819.08 314.02 835.39 316.47 837.91 318.63 834 310.97 819.08"/><polygon class="cls-2" points="319.31 832.76 316.7 827.51 319.41 818.11 322.16 827.62 319.31 832.76"/><path class="cls-2" d="M354.49,842.81l-2.78,3.34a8.94,8.94,0,0,1-5.66-5.43c-1.93-4.58-6.15-14.34-6.15-14.34Z"/><path class="cls-2" d="M352.9,846.45l17.43-20.32-6.08,15.07S361.77,848.27,352.9,846.45Z"/><polygon class="cls-2" points="363.89 819.75 353.12 839.48 355.32 841.82 360.31 836.11 363.89 819.75"/><polygon class="cls-2" points="346.77 819.75 349.82 836.07 352.27 838.58 354.43 834.67 346.77 819.75"/><polygon class="cls-2" points="355.1 833.44 352.49 828.18 355.21 818.78 357.95 828.29 355.1 833.44"/><path class="cls-2" d="M388.35,842.81l-2.78,3.34a9,9,0,0,1-5.67-5.43c-1.93-4.58-6.15-14.34-6.15-14.34Z"/><path class="cls-2" d="M386.75,846.45l17.44-20.32L398.1,841.2S395.63,848.27,386.75,846.45Z"/><polygon class="cls-2" points="397.74 819.75 386.98 839.48 389.18 841.82 394.17 836.11 397.74 819.75"/><polygon class="cls-2" points="380.63 819.75 383.68 836.07 386.13 838.58 388.28 834.67 380.63 819.75"/><polygon class="cls-2" points="388.96 833.44 386.35 828.18 389.06 818.78 391.81 828.29 388.96 833.44"/><path class="cls-2" d="M430.65,702.41l-2.78,3.34a8.94,8.94,0,0,1-5.67-5.42c-1.93-4.58-6.15-14.34-6.15-14.34Z"/><path class="cls-2" d="M429.05,706.05l17.44-20.31-6.09,15.07S437.93,707.87,429.05,706.05Z"/><polygon class="cls-2" points="440.04 679.36 429.28 699.09 431.48 701.43 436.47 695.72 440.04 679.36"/><polygon class="cls-2" points="422.92 679.36 425.97 695.67 428.42 698.19 430.58 694.28 422.92 679.36"/><polygon class="cls-2" points="431.25 693.04 428.65 687.79 431.36 678.39 434.11 687.9 431.25 693.04"/><path class="cls-2" d="M466.44,703.09l-2.78,3.34A9,9,0,0,1,458,701c-1.92-4.58-6.14-14.34-6.14-14.34Z"/><path class="cls-2" d="M464.85,706.73l17.43-20.32-6.08,15.07S473.72,708.55,464.85,706.73Z"/><polygon class="cls-2" points="475.83 680.03 465.07 699.76 467.27 702.1 472.26 696.39 475.83 680.03"/><polygon class="cls-2" points="458.72 680.03 461.77 696.35 464.22 698.86 466.38 694.95 458.72 680.03"/><polygon class="cls-2" points="467.05 693.72 464.44 688.46 467.16 679.06 469.9 688.57 467.05 693.72"/><path class="cls-2" d="M500.3,703.09l-2.78,3.34a9,9,0,0,1-5.67-5.43c-1.93-4.58-6.15-14.34-6.15-14.34Z"/><path class="cls-2" d="M498.7,706.73l17.44-20.32-6.09,15.07S507.58,708.55,498.7,706.73Z"/><polygon class="cls-2" points="509.69 680.03 498.93 699.76 501.13 702.1 506.12 696.39 509.69 680.03"/><polygon class="cls-2" points="492.57 680.03 495.63 696.35 498.07 698.86 500.23 694.95 492.57 680.03"/><polygon class="cls-2" points="500.9 693.72 498.3 688.46 501.01 679.06 503.76 688.57 500.9 693.72"/><path class="cls-2" d="M428.71,741l-2.78,3.34a8.94,8.94,0,0,1-5.67-5.42c-1.93-4.58-6.15-14.35-6.15-14.35Z"/><path class="cls-2" d="M427.11,744.59l17.44-20.31-6.09,15.07S436,746.41,427.11,744.59Z"/><polygon class="cls-2" points="438.1 717.89 427.34 737.63 429.54 739.96 434.53 734.25 438.1 717.89"/><polygon class="cls-2" points="420.98 717.89 424.04 734.21 426.48 736.73 428.64 732.82 420.98 717.89"/><polygon class="cls-2" points="429.31 731.58 426.71 726.32 429.42 716.93 432.17 726.43 429.31 731.58"/><path class="cls-2" d="M464.5,741.62,461.72,745a8.94,8.94,0,0,1-5.67-5.42c-1.92-4.58-6.14-14.35-6.14-14.35Z"/><path class="cls-2" d="M462.91,745.26,480.34,725,474.26,740S471.78,747.08,462.91,745.26Z"/><polygon class="cls-2" points="473.9 718.56 463.13 738.3 465.33 740.63 470.32 734.93 473.9 718.56"/><polygon class="cls-2" points="456.78 718.56 459.83 734.88 462.28 737.4 464.44 733.49 456.78 718.56"/><polygon class="cls-2" points="465.11 732.25 462.5 727 465.22 717.6 467.96 727.11 465.11 732.25"/><path class="cls-2" d="M498.36,741.62,495.58,745a8.94,8.94,0,0,1-5.67-5.42c-1.93-4.58-6.15-14.35-6.15-14.35Z"/><path class="cls-2" d="M496.76,745.26,514.2,725,508.11,740S505.64,747.08,496.76,745.26Z"/><polygon class="cls-2" points="507.75 718.56 496.99 738.3 499.19 740.63 504.18 734.93 507.75 718.56"/><polygon class="cls-2" points="490.63 718.56 493.69 734.88 496.13 737.4 498.29 733.49 490.63 718.56"/><polygon class="cls-2" points="498.96 732.25 496.36 727 499.07 717.6 501.82 727.11 498.96 732.25"/><path class="cls-2" d="M427.06,777.11l-2.79,3.34a8.93,8.93,0,0,1-5.66-5.42c-1.93-4.58-6.15-14.35-6.15-14.35Z"/><path class="cls-2" d="M425.46,780.75l17.44-20.31-6.09,15.07S434.34,782.57,425.46,780.75Z"/><polygon class="cls-2" points="436.45 754.05 425.69 773.79 427.89 776.12 432.88 770.42 436.45 754.05"/><polygon class="cls-2" points="419.33 754.05 422.38 770.37 424.83 772.89 426.99 768.98 419.33 754.05"/><polygon class="cls-2" points="427.66 767.74 425.06 762.48 427.77 753.09 430.51 762.6 427.66 767.74"/><path class="cls-2" d="M462.85,777.78l-2.78,3.34a8.94,8.94,0,0,1-5.67-5.42c-1.93-4.58-6.15-14.35-6.15-14.35Z"/><path class="cls-2" d="M461.25,781.42l17.44-20.31-6.09,15.07S470.13,783.24,461.25,781.42Z"/><polygon class="cls-2" points="472.24 754.73 461.48 774.46 463.68 776.79 468.67 771.09 472.24 754.73"/><polygon class="cls-2" points="455.13 754.73 458.18 771.04 460.63 773.56 462.78 769.65 455.13 754.73"/><polygon class="cls-2" points="463.46 768.41 460.85 763.16 463.56 753.76 466.31 763.27 463.46 768.41"/><path class="cls-2" d="M496.71,777.78l-2.79,3.34a8.93,8.93,0,0,1-5.66-5.42c-1.93-4.58-6.15-14.35-6.15-14.35Z"/><path class="cls-2" d="M495.11,781.42l17.44-20.31-6.09,15.07S504,783.24,495.11,781.42Z"/><polygon class="cls-2" points="506.1 754.73 495.33 774.46 497.54 776.79 502.52 771.09 506.1 754.73"/><polygon class="cls-2" points="488.98 754.73 492.03 771.04 494.48 773.56 496.64 769.65 488.98 754.73"/><polygon class="cls-2" points="497.31 768.41 494.71 763.16 497.42 753.76 500.17 763.27 497.31 768.41"/><path class="cls-2" d="M425.16,810.5l-2.78,3.34a8.94,8.94,0,0,1-5.67-5.42c-1.93-4.58-6.15-14.35-6.15-14.35Z"/><path class="cls-2" d="M423.56,814.14,441,793.83l-6.09,15.07S432.44,816,423.56,814.14Z"/><polygon class="cls-2" points="434.55 787.44 423.79 807.18 425.99 809.51 430.98 803.81 434.55 787.44"/><polygon class="cls-2" points="417.43 787.44 420.49 803.76 422.94 806.28 425.09 802.37 417.43 787.44"/><polygon class="cls-2" points="425.77 801.13 423.16 795.87 425.87 786.48 428.62 795.99 425.77 801.13"/><path class="cls-2" d="M461,811.17l-2.78,3.34a8.91,8.91,0,0,1-5.66-5.42c-1.93-4.58-6.15-14.34-6.15-14.34Z"/><path class="cls-2" d="M459.36,814.81l17.43-20.31-6.08,15.07S468.23,816.63,459.36,814.81Z"/><polygon class="cls-2" points="470.35 788.12 459.58 807.85 461.79 810.18 466.77 804.48 470.35 788.12"/><polygon class="cls-2" points="453.23 788.12 456.28 804.43 458.73 806.95 460.89 803.04 453.23 788.12"/><polygon class="cls-2" points="461.56 801.8 458.95 796.55 461.67 787.15 464.41 796.66 461.56 801.8"/><path class="cls-2" d="M494.81,811.17,492,814.51a8.94,8.94,0,0,1-5.67-5.42c-1.93-4.58-6.15-14.34-6.15-14.34Z"/><path class="cls-2" d="M493.21,814.81l17.44-20.31-6.09,15.07S502.09,816.63,493.21,814.81Z"/><polygon class="cls-2" points="504.2 788.12 493.44 807.85 495.64 810.18 500.63 804.48 504.2 788.12"/><polygon class="cls-2" points="487.08 788.12 490.14 804.43 492.58 806.95 494.74 803.04 487.08 788.12"/><polygon class="cls-2" points="495.42 801.8 492.81 796.55 495.52 787.15 498.27 796.66 495.42 801.8"/><path class="cls-2" d="M425.16,842.13l-2.78,3.35a9,9,0,0,1-5.67-5.43c-1.93-4.58-6.15-14.34-6.15-14.34Z"/><path class="cls-2" d="M423.56,845.77,441,825.46l-6.09,15.07S432.44,847.59,423.56,845.77Z"/><polygon class="cls-2" points="434.55 819.08 423.79 838.81 425.99 841.15 430.98 835.44 434.55 819.08"/><polygon class="cls-2" points="417.43 819.08 420.49 835.39 422.94 837.91 425.09 834 417.43 819.08"/><polygon class="cls-2" points="425.77 832.76 423.16 827.51 425.87 818.11 428.62 827.62 425.77 832.76"/><path class="cls-2" d="M461,842.81l-2.78,3.34a8.94,8.94,0,0,1-5.66-5.43c-1.93-4.58-6.15-14.34-6.15-14.34Z"/><path class="cls-2" d="M459.36,846.45l17.43-20.32-6.08,15.07S468.23,848.27,459.36,846.45Z"/><polygon class="cls-2" points="470.35 819.75 459.58 839.48 461.79 841.82 466.77 836.11 470.35 819.75"/><polygon class="cls-2" points="453.23 819.75 456.28 836.07 458.73 838.58 460.89 834.67 453.23 819.75"/><polygon class="cls-2" points="461.56 833.44 458.95 828.18 461.67 818.78 464.41 828.29 461.56 833.44"/><path class="cls-2" d="M494.81,842.81,492,846.15a9,9,0,0,1-5.67-5.43c-1.93-4.58-6.15-14.34-6.15-14.34Z"/><path class="cls-2" d="M493.21,846.45l17.44-20.32-6.09,15.07S502.09,848.27,493.21,846.45Z"/><polygon class="cls-2" points="504.2 819.75 493.44 839.48 495.64 841.82 500.63 836.11 504.2 819.75"/><polygon class="cls-2" points="487.08 819.75 490.14 836.07 492.58 838.58 494.74 834.67 487.08 819.75"/><polygon class="cls-2" points="495.42 833.44 492.81 828.18 495.52 818.78 498.27 828.29 495.42 833.44"/><path class="cls-2" d="M536.12,701.74l-2.78,3.34a8.94,8.94,0,0,1-5.67-5.42c-1.93-4.58-6.14-14.35-6.14-14.35Z"/><path class="cls-2" d="M534.53,705.38,552,685.07l-6.08,15.07S543.4,707.2,534.53,705.38Z"/><polygon class="cls-2" points="545.51 678.68 534.75 698.42 536.95 700.75 541.94 695.05 545.51 678.68"/><polygon class="cls-2" points="528.4 678.68 531.45 695 533.9 697.52 536.05 693.61 528.4 678.68"/><polygon class="cls-2" points="536.73 692.37 534.12 687.12 536.83 677.72 539.58 687.23 536.73 692.37"/><path class="cls-2" d="M571.92,702.41l-2.79,3.34a8.93,8.93,0,0,1-5.66-5.42c-1.93-4.58-6.15-14.34-6.15-14.34Z"/><path class="cls-2" d="M570.32,706.05l17.44-20.31-6.09,15.07S579.2,707.87,570.32,706.05Z"/><polygon class="cls-2" points="581.31 679.36 570.54 699.09 572.75 701.43 577.74 695.72 581.31 679.36"/><polygon class="cls-2" points="564.19 679.36 567.24 695.67 569.69 698.19 571.85 694.28 564.19 679.36"/><polygon class="cls-2" points="572.52 693.04 569.91 687.79 572.63 678.39 575.38 687.9 572.52 693.04"/><path class="cls-2" d="M605.77,702.41,603,705.75a8.94,8.94,0,0,1-5.67-5.42c-1.93-4.58-6.14-14.34-6.14-14.34Z"/><path class="cls-2" d="M604.18,706.05l17.43-20.31-6.08,15.07S613.05,707.87,604.18,706.05Z"/><polygon class="cls-2" points="615.16 679.36 604.4 699.09 606.6 701.43 611.59 695.72 615.16 679.36"/><polygon class="cls-2" points="598.05 679.36 601.1 695.67 603.55 698.19 605.7 694.28 598.05 679.36"/><polygon class="cls-2" points="606.38 693.04 603.77 687.79 606.49 678.39 609.23 687.9 606.38 693.04"/><path class="cls-2" d="M534.18,740.28l-2.78,3.34a9,9,0,0,1-5.67-5.43c-1.93-4.58-6.14-14.34-6.14-14.34Z"/><path class="cls-2" d="M532.59,743.92,550,723.61l-6.08,15.07S541.46,745.74,532.59,743.92Z"/><polygon class="cls-2" points="543.57 717.22 532.81 736.95 535.01 739.29 540 733.58 543.57 717.22"/><polygon class="cls-2" points="526.46 717.22 529.51 733.54 531.96 736.05 534.11 732.14 526.46 717.22"/><polygon class="cls-2" points="534.79 730.91 532.18 725.65 534.89 716.25 537.64 725.76 534.79 730.91"/><path class="cls-2" d="M570,741l-2.79,3.34a8.93,8.93,0,0,1-5.66-5.42c-1.93-4.58-6.15-14.35-6.15-14.35Z"/><path class="cls-2" d="M568.38,744.59l17.44-20.31-6.09,15.07S577.26,746.41,568.38,744.59Z"/><polygon class="cls-2" points="579.37 717.89 568.61 737.63 570.81 739.96 575.79 734.25 579.37 717.89"/><polygon class="cls-2" points="562.25 717.89 565.3 734.21 567.75 736.73 569.91 732.82 562.25 717.89"/><polygon class="cls-2" points="570.58 731.58 567.98 726.32 570.69 716.93 573.44 726.43 570.58 731.58"/><path class="cls-2" d="M603.83,741l-2.78,3.34a8.94,8.94,0,0,1-5.67-5.42c-1.92-4.58-6.14-14.35-6.14-14.35Z"/><path class="cls-2" d="M602.24,744.59l17.43-20.31-6.08,15.07S611.11,746.41,602.24,744.59Z"/><polygon class="cls-2" points="613.23 717.89 602.46 737.63 604.66 739.96 609.65 734.25 613.23 717.89"/><polygon class="cls-2" points="596.11 717.89 599.16 734.21 601.61 736.73 603.76 732.82 596.11 717.89"/><polygon class="cls-2" points="604.44 731.58 601.83 726.32 604.54 716.93 607.29 726.43 604.44 731.58"/><path class="cls-2" d="M532.53,776.44l-2.78,3.34a8.94,8.94,0,0,1-5.67-5.42c-1.93-4.59-6.15-14.35-6.15-14.35Z"/><path class="cls-2" d="M530.93,780.08l17.44-20.31-6.09,15.07S539.81,781.9,530.93,780.08Z"/><polygon class="cls-2" points="541.92 753.38 531.16 773.11 533.36 775.45 538.35 769.74 541.92 753.38"/><polygon class="cls-2" points="524.8 753.38 527.86 769.7 530.3 772.22 532.46 768.31 524.8 753.38"/><polygon class="cls-2" points="533.13 767.07 530.53 761.81 533.24 752.42 535.99 761.92 533.13 767.07"/><path class="cls-2" d="M568.32,777.11l-2.78,3.34a8.94,8.94,0,0,1-5.67-5.42c-1.92-4.58-6.14-14.35-6.14-14.35Z"/><path class="cls-2" d="M566.73,780.75l17.43-20.31-6.08,15.07S575.6,782.57,566.73,780.75Z"/><polygon class="cls-2" points="577.72 754.05 566.95 773.79 569.15 776.12 574.14 770.42 577.72 754.05"/><polygon class="cls-2" points="560.6 754.05 563.65 770.37 566.1 772.89 568.25 768.98 560.6 754.05"/><polygon class="cls-2" points="568.93 767.74 566.32 762.48 569.04 753.09 571.78 762.6 568.93 767.74"/><path class="cls-2" d="M602.18,777.11l-2.78,3.34a8.94,8.94,0,0,1-5.67-5.42c-1.93-4.58-6.15-14.35-6.15-14.35Z"/><path class="cls-2" d="M600.58,780.75,618,760.44l-6.09,15.07S609.46,782.57,600.58,780.75Z"/><polygon class="cls-2" points="611.57 754.05 600.81 773.79 603.01 776.12 608 770.42 611.57 754.05"/><polygon class="cls-2" points="594.45 754.05 597.5 770.37 599.95 772.89 602.11 768.98 594.45 754.05"/><polygon class="cls-2" points="602.78 767.74 600.18 762.48 602.89 753.09 605.64 762.6 602.78 767.74"/><path class="cls-2" d="M530.63,809.83l-2.78,3.34a8.94,8.94,0,0,1-5.67-5.42c-1.92-4.59-6.14-14.35-6.14-14.35Z"/><path class="cls-2" d="M529,813.47l17.43-20.31-6.08,15.07S537.91,815.29,529,813.47Z"/><polygon class="cls-2" points="540.02 786.77 529.26 806.5 531.46 808.84 536.45 803.13 540.02 786.77"/><polygon class="cls-2" points="522.91 786.77 525.96 803.09 528.41 805.61 530.57 801.7 522.91 786.77"/><polygon class="cls-2" points="531.24 800.46 528.63 795.2 531.35 785.81 534.09 795.32 531.24 800.46"/><path class="cls-2" d="M566.43,810.5l-2.79,3.34a8.93,8.93,0,0,1-5.66-5.42c-1.93-4.58-6.15-14.35-6.15-14.35Z"/><path class="cls-2" d="M564.83,814.14l17.44-20.31-6.09,15.07S573.71,816,564.83,814.14Z"/><polygon class="cls-2" points="575.82 787.44 565.06 807.18 567.26 809.51 572.25 803.81 575.82 787.44"/><polygon class="cls-2" points="558.7 787.44 561.75 803.76 564.2 806.28 566.36 802.37 558.7 787.44"/><polygon class="cls-2" points="567.03 801.13 564.43 795.87 567.14 786.48 569.89 795.99 567.03 801.13"/><path class="cls-2" d="M600.28,810.5l-2.78,3.34a8.94,8.94,0,0,1-5.67-5.42c-1.92-4.58-6.14-14.35-6.14-14.35Z"/><path class="cls-2" d="M598.69,814.14l17.43-20.31L610,808.9S607.56,816,598.69,814.14Z"/><polygon class="cls-2" points="609.67 787.44 598.91 807.18 601.11 809.51 606.1 803.81 609.67 787.44"/><polygon class="cls-2" points="592.56 787.44 595.61 803.76 598.06 806.28 600.22 802.37 592.56 787.44"/><polygon class="cls-2" points="600.89 801.13 598.28 795.87 601 786.48 603.74 795.99 600.89 801.13"/><path class="cls-2" d="M530.63,841.46l-2.78,3.34a8.94,8.94,0,0,1-5.67-5.42C520.26,834.8,516,825,516,825Z"/><path class="cls-2" d="M529,845.1l17.43-20.31-6.08,15.07S537.91,846.92,529,845.1Z"/><polygon class="cls-2" points="540.02 818.4 529.26 838.14 531.46 840.47 536.45 834.77 540.02 818.4"/><polygon class="cls-2" points="522.91 818.4 525.96 834.72 528.41 837.24 530.57 833.33 522.91 818.4"/><polygon class="cls-2" points="531.24 832.09 528.63 826.84 531.35 817.44 534.09 826.95 531.24 832.09"/><path class="cls-2" d="M566.43,842.13l-2.79,3.35a9,9,0,0,1-5.66-5.43c-1.93-4.58-6.15-14.34-6.15-14.34Z"/><path class="cls-2" d="M564.83,845.77l17.44-20.31-6.09,15.07S573.71,847.59,564.83,845.77Z"/><polygon class="cls-2" points="575.82 819.08 565.06 838.81 567.26 841.15 572.25 835.44 575.82 819.08"/><polygon class="cls-2" points="558.7 819.08 561.75 835.39 564.2 837.91 566.36 834 558.7 819.08"/><polygon class="cls-2" points="567.03 832.76 564.43 827.51 567.14 818.11 569.89 827.62 567.03 832.76"/><path class="cls-2" d="M600.28,842.13l-2.78,3.35a9,9,0,0,1-5.67-5.43c-1.92-4.58-6.14-14.34-6.14-14.34Z"/><path class="cls-2" d="M598.69,845.77l17.43-20.31L610,840.53S607.56,847.59,598.69,845.77Z"/><polygon class="cls-2" points="609.67 819.08 598.91 838.81 601.11 841.15 606.1 835.44 609.67 819.08"/><polygon class="cls-2" points="592.56 819.08 595.61 835.39 598.06 837.91 600.22 834 592.56 819.08"/><polygon class="cls-2" points="600.89 832.76 598.28 827.51 601 818.11 603.74 827.62 600.89 832.76"/><path class="cls-2" d="M688.38,770.89l-2.78,3.34a9,9,0,0,1-5.67-5.43c-1.93-4.58-6.15-14.34-6.15-14.34Z"/><path class="cls-2" d="M686.78,774.53l17.44-20.31-6.09,15.07S695.66,776.35,686.78,774.53Z"/><polygon class="cls-2" points="697.77 747.83 687.01 767.56 689.21 769.9 694.2 764.19 697.77 747.83"/><polygon class="cls-2" points="680.65 747.83 683.71 764.15 686.15 766.66 688.31 762.75 680.65 747.83"/><polygon class="cls-2" points="688.99 761.52 686.38 756.26 689.09 746.86 691.84 756.37 688.99 761.52"/><path class="cls-2" d="M724.17,771.56l-2.78,3.34a8.94,8.94,0,0,1-5.67-5.42c-1.92-4.59-6.14-14.35-6.14-14.35Z"/><path class="cls-2" d="M722.58,775.2,740,754.89,733.93,770S731.45,777,722.58,775.2Z"/><polygon class="cls-2" points="733.57 748.5 722.8 768.23 725 770.57 729.99 764.86 733.57 748.5"/><polygon class="cls-2" points="716.45 748.5 719.5 764.82 721.95 767.34 724.11 763.42 716.45 748.5"/><polygon class="cls-2" points="724.78 762.19 722.17 756.93 724.89 747.54 727.63 757.04 724.78 762.19"/><path class="cls-2" d="M758,771.56l-2.78,3.34a8.94,8.94,0,0,1-5.67-5.42c-1.93-4.59-6.15-14.35-6.15-14.35Z"/><path class="cls-2" d="M756.43,775.2l17.44-20.31L767.78,770S765.31,777,756.43,775.2Z"/><polygon class="cls-2" points="767.42 748.5 756.66 768.23 758.86 770.57 763.85 764.86 767.42 748.5"/><polygon class="cls-2" points="750.3 748.5 753.36 764.82 755.8 767.34 757.96 763.42 750.3 748.5"/><polygon class="cls-2" points="758.63 762.19 756.03 756.93 758.74 747.54 761.49 757.04 758.63 762.19"/><path class="cls-2" d="M686.48,804.28l-2.78,3.34a9,9,0,0,1-5.67-5.43c-1.92-4.58-6.14-14.34-6.14-14.34Z"/><path class="cls-2" d="M684.89,807.92l17.43-20.31-6.08,15.07S693.76,809.74,684.89,807.92Z"/><polygon class="cls-2" points="695.88 781.22 685.11 800.95 687.31 803.29 692.3 797.58 695.88 781.22"/><polygon class="cls-2" points="678.76 781.22 681.81 797.54 684.26 800.05 686.41 796.14 678.76 781.22"/><polygon class="cls-2" points="687.09 794.91 684.48 789.65 687.2 780.25 689.94 789.76 687.09 794.91"/><path class="cls-2" d="M722.28,805l-2.79,3.34a8.93,8.93,0,0,1-5.66-5.42c-1.93-4.59-6.15-14.35-6.15-14.35Z"/><path class="cls-2" d="M720.68,808.59l17.44-20.31L732,803.35S729.56,810.41,720.68,808.59Z"/><polygon class="cls-2" points="731.67 781.89 720.91 801.62 723.11 803.96 728.1 798.25 731.67 781.89"/><polygon class="cls-2" points="714.55 781.89 717.6 798.21 720.05 800.73 722.21 796.82 714.55 781.89"/><polygon class="cls-2" points="722.88 795.58 720.28 790.32 722.99 780.93 725.74 790.43 722.88 795.58"/><path class="cls-2" d="M756.13,805l-2.78,3.34a8.94,8.94,0,0,1-5.67-5.42c-1.92-4.59-6.14-14.35-6.14-14.35Z"/><path class="cls-2" d="M754.54,808.59,772,788.28l-6.08,15.07S763.41,810.41,754.54,808.59Z"/><polygon class="cls-2" points="765.53 781.89 754.76 801.62 756.96 803.96 761.95 798.25 765.53 781.89"/><polygon class="cls-2" points="748.41 781.89 751.46 798.21 753.91 800.73 756.07 796.82 748.41 781.89"/><polygon class="cls-2" points="756.74 795.58 754.13 790.32 756.85 780.93 759.59 790.43 756.74 795.58"/><path class="cls-2" d="M686.48,835.91l-2.78,3.34a8.94,8.94,0,0,1-5.67-5.42c-1.92-4.58-6.14-14.35-6.14-14.35Z"/><path class="cls-2" d="M684.89,839.55l17.43-20.31-6.08,15.07S693.76,841.37,684.89,839.55Z"/><polygon class="cls-2" points="695.88 812.85 685.11 832.59 687.31 834.92 692.3 829.21 695.88 812.85"/><polygon class="cls-2" points="678.76 812.85 681.81 829.17 684.26 831.69 686.41 827.78 678.76 812.85"/><polygon class="cls-2" points="687.09 826.54 684.48 821.28 687.2 811.89 689.94 821.39 687.09 826.54"/><path class="cls-2" d="M722.28,836.58l-2.79,3.34a8.93,8.93,0,0,1-5.66-5.42c-1.93-4.58-6.15-14.35-6.15-14.35Z"/><path class="cls-2" d="M720.68,840.22l17.44-20.31L732,835S729.56,842,720.68,840.22Z"/><polygon class="cls-2" points="731.67 813.52 720.91 833.26 723.11 835.59 728.1 829.89 731.67 813.52"/><polygon class="cls-2" points="714.55 813.52 717.6 829.84 720.05 832.36 722.21 828.45 714.55 813.52"/><polygon class="cls-2" points="722.88 827.21 720.28 821.96 722.99 812.56 725.74 822.07 722.88 827.21"/><path class="cls-2" d="M756.13,836.58l-2.78,3.34a8.94,8.94,0,0,1-5.67-5.42c-1.92-4.58-6.14-14.35-6.14-14.35Z"/><path class="cls-2" d="M754.54,840.22,772,819.91,765.89,835S763.41,842,754.54,840.22Z"/><polygon class="cls-2" points="765.53 813.52 754.76 833.26 756.96 835.59 761.95 829.89 765.53 813.52"/><polygon class="cls-2" points="748.41 813.52 751.46 829.84 753.91 832.36 756.07 828.45 748.41 813.52"/><polygon class="cls-2" points="756.74 827.21 754.13 821.96 756.85 812.56 759.59 822.07 756.74 827.21"/><path class="cls-2" d="M793.24,772.77l-2.79,3.34a8.93,8.93,0,0,1-5.66-5.42c-1.93-4.58-6.15-14.34-6.15-14.34Z"/><path class="cls-2" d="M791.64,776.41l17.44-20.31L803,771.17S800.51,778.23,791.64,776.41Z"/><polygon class="cls-2" points="802.63 749.72 791.86 769.45 794.07 771.78 799.05 766.08 802.63 749.72"/><polygon class="cls-2" points="785.51 749.72 788.56 766.03 791.01 768.55 793.17 764.64 785.51 749.72"/><polygon class="cls-2" points="793.84 763.4 791.24 758.15 793.95 748.75 796.7 758.26 793.84 763.4"/><path class="cls-2" d="M829,773.45l-2.78,3.34a9,9,0,0,1-5.67-5.43c-1.93-4.58-6.15-14.34-6.15-14.34Z"/><path class="cls-2" d="M827.43,777.09l17.44-20.32-6.09,15.07S836.31,778.91,827.43,777.09Z"/><polygon class="cls-2" points="838.42 750.39 827.66 770.12 829.86 772.46 834.85 766.75 838.42 750.39"/><polygon class="cls-2" points="821.3 750.39 824.36 766.71 826.8 769.22 828.96 765.31 821.3 750.39"/><polygon class="cls-2" points="829.64 764.08 827.03 758.82 829.74 749.42 832.49 758.93 829.64 764.08"/><path class="cls-2" d="M862.89,773.45l-2.79,3.34a9,9,0,0,1-5.66-5.43c-1.93-4.58-6.15-14.34-6.15-14.34Z"/><path class="cls-2" d="M861.29,777.09l17.44-20.32-6.09,15.07S870.17,778.91,861.29,777.09Z"/><polygon class="cls-2" points="872.28 750.39 861.51 770.12 863.72 772.46 868.71 766.75 872.28 750.39"/><polygon class="cls-2" points="855.16 750.39 858.21 766.71 860.66 769.22 862.82 765.31 855.16 750.39"/><polygon class="cls-2" points="863.49 764.08 860.89 758.82 863.6 749.42 866.35 758.93 863.49 764.08"/><path class="cls-2" d="M791.34,806.16l-2.78,3.34a8.94,8.94,0,0,1-5.67-5.42c-1.93-4.58-6.15-14.34-6.15-14.34Z"/><path class="cls-2" d="M789.74,809.8l17.44-20.31-6.09,15.07S798.62,811.62,789.74,809.8Z"/><polygon class="cls-2" points="800.73 783.11 789.97 802.84 792.17 805.17 797.16 799.47 800.73 783.11"/><polygon class="cls-2" points="783.61 783.11 786.66 799.42 789.11 801.94 791.27 798.03 783.61 783.11"/><polygon class="cls-2" points="791.95 796.79 789.34 791.54 792.05 782.14 794.8 791.65 791.95 796.79"/><path class="cls-2" d="M827.13,806.84l-2.78,3.34a8.94,8.94,0,0,1-5.66-5.43c-1.93-4.58-6.15-14.34-6.15-14.34Z"/><path class="cls-2" d="M825.54,810.48,843,790.16l-6.08,15.07S834.41,812.3,825.54,810.48Z"/><polygon class="cls-2" points="836.53 783.78 825.76 803.51 827.97 805.85 832.95 800.14 836.53 783.78"/><polygon class="cls-2" points="819.41 783.78 822.46 800.1 824.91 802.61 827.07 798.7 819.41 783.78"/><polygon class="cls-2" points="827.74 797.47 825.13 792.21 827.85 782.81 830.59 792.32 827.74 797.47"/><path class="cls-2" d="M861,806.84l-2.78,3.34a9,9,0,0,1-5.67-5.43c-1.93-4.58-6.15-14.34-6.15-14.34Z"/><path class="cls-2" d="M859.39,810.48l17.44-20.32-6.09,15.07S868.27,812.3,859.39,810.48Z"/><polygon class="cls-2" points="870.38 783.78 859.62 803.51 861.82 805.85 866.81 800.14 870.38 783.78"/><polygon class="cls-2" points="853.26 783.78 856.32 800.1 858.76 802.61 860.92 798.7 853.26 783.78"/><polygon class="cls-2" points="861.6 797.47 858.99 792.21 861.7 782.81 864.45 792.32 861.6 797.47"/><path class="cls-2" d="M893.32,805.62,890.54,809a8.94,8.94,0,0,1-5.67-5.42c-1.92-4.58-6.14-14.35-6.14-14.35Z"/><path class="cls-2" d="M891.73,809.26,909.16,789,903.08,804S900.6,811.08,891.73,809.26Z"/><polygon class="cls-2" points="902.72 782.56 891.95 802.3 894.15 804.63 899.14 798.93 902.72 782.56"/><polygon class="cls-2" points="885.6 782.56 888.65 798.88 891.1 801.4 893.25 797.49 885.6 782.56"/><polygon class="cls-2" points="893.93 796.25 891.32 790.99 894.03 781.6 896.78 791.11 893.93 796.25"/><path class="cls-2" d="M894.17,838.47l-2.79,3.34a8.93,8.93,0,0,1-5.66-5.42c-1.93-4.59-6.15-14.35-6.15-14.35Z"/><path class="cls-2" d="M892.57,842.11,910,821.8l-6.09,15.07S901.45,843.93,892.57,842.11Z"/><polygon class="cls-2" points="903.56 815.41 892.8 835.14 895 837.48 899.99 831.77 903.56 815.41"/><polygon class="cls-2" points="886.44 815.41 889.49 831.73 891.94 834.25 894.1 830.34 886.44 815.41"/><polygon class="cls-2" points="894.77 829.1 892.17 823.84 894.88 814.45 897.63 823.95 894.77 829.1"/><path class="cls-2" d="M896.16,772.23l-2.78,3.34a8.94,8.94,0,0,1-5.67-5.42c-1.93-4.58-6.15-14.35-6.15-14.35Z"/><path class="cls-2" d="M894.56,775.87,912,755.56l-6.09,15.07S903.44,777.69,894.56,775.87Z"/><polygon class="cls-2" points="905.55 749.17 894.79 768.91 896.99 771.24 901.98 765.54 905.55 749.17"/><polygon class="cls-2" points="888.43 749.17 891.49 765.49 893.93 768.01 896.09 764.1 888.43 749.17"/><polygon class="cls-2" points="896.77 762.86 894.16 757.6 896.87 748.21 899.62 757.72 896.77 762.86"/><path class="cls-2" d="M791.34,837.8l-2.78,3.34a9,9,0,0,1-5.67-5.43c-1.93-4.58-6.15-14.34-6.15-14.34Z"/><path class="cls-2" d="M789.74,841.44l17.44-20.32-6.09,15.08S798.62,843.26,789.74,841.44Z"/><polygon class="cls-2" points="800.73 814.74 789.97 834.47 792.17 836.81 797.16 831.1 800.73 814.74"/><polygon class="cls-2" points="783.61 814.74 786.66 831.06 789.11 833.57 791.27 829.66 783.61 814.74"/><polygon class="cls-2" points="791.95 828.43 789.34 823.17 792.05 813.77 794.8 823.28 791.95 828.43"/><path class="cls-2" d="M827.13,838.47l-2.78,3.34a8.91,8.91,0,0,1-5.66-5.42c-1.93-4.59-6.15-14.35-6.15-14.35Z"/><path class="cls-2" d="M825.54,842.11,843,821.8l-6.08,15.07S834.41,843.93,825.54,842.11Z"/><polygon class="cls-2" points="836.53 815.41 825.76 835.14 827.97 837.48 832.95 831.77 836.53 815.41"/><polygon class="cls-2" points="819.41 815.41 822.46 831.73 824.91 834.25 827.07 830.34 819.41 815.41"/><polygon class="cls-2" points="827.74 829.1 825.13 823.84 827.85 814.45 830.59 823.95 827.74 829.1"/><path class="cls-2" d="M861,838.47l-2.78,3.34a8.94,8.94,0,0,1-5.67-5.42c-1.93-4.59-6.15-14.35-6.15-14.35Z"/><path class="cls-2" d="M859.39,842.11l17.44-20.31-6.09,15.07S868.27,843.93,859.39,842.11Z"/><polygon class="cls-2" points="870.38 815.41 859.62 835.14 861.82 837.48 866.81 831.77 870.38 815.41"/><polygon class="cls-2" points="853.26 815.41 856.32 831.73 858.76 834.25 860.92 830.34 853.26 815.41"/><polygon class="cls-2" points="861.6 829.1 858.99 823.84 861.7 814.45 864.45 823.95 861.6 829.1"/></svg>