<svg id="Capa_1" data-name="Capa 1" xmlns="http://www.w3.org/2000/svg" viewBox="0 0 1080 1080"><defs><style>.cls-1{fill:#f6b818;}.cls-2{fill:#fff;}</style></defs><path class="cls-1" d="M854.63,411.59H239.06L143.3,876.68H936.71Z"/><path class="cls-1" d="M540,83.28a158.47,158.47,0,0,0-42.81,5.86c-90.89,25.15-133.48,130.77-91.32,215.59L540,603.1,674,307.23c48.23-97-14.69-216.25-122.29-223.57C548,83.41,543.71,83.28,540,83.28Z"/><path class="cls-1" d="M910.31,727.05l-1-.84H649.44V876.68H936.71Z"/><path class="cls-1" d="M208.08,562.06H403.21V411.59H239.06Z"/><path class="cls-1" d="M334.81,657.81V562.06H208.08L143.3,876.68H649.44V726.21H758.88v-68.4Z"/><path class="cls-2" d="M143.3,890.36H936.71a13.67,13.67,0,0,0,13.67-13.69,13.36,13.36,0,0,0-.21-2.36L868.1,409.21a13.66,13.66,0,0,0-13.47-11.3H648l38.31-84.58a171.35,171.35,0,0,0-5-161.85A158.94,158.94,0,0,0,552.68,70c-4-.28-8.63-.42-12.67-.42A172.16,172.16,0,0,0,493.54,76a159.41,159.41,0,0,0-102.87,89.49,169.69,169.69,0,0,0,2.72,144.89l39.37,87.57H239.06a13.68,13.68,0,0,0-13.4,10.92L129.9,873.93a13.66,13.66,0,0,0,13.4,16.43ZM663.12,863V739.89H898.67L920.4,863ZM415.66,176.6a132.11,132.11,0,0,1,85.18-74.27A144.88,144.88,0,0,1,540,97c3.46,0,7.4.11,10.82.35A132,132,0,0,1,657.5,165.09a144.31,144.31,0,0,1,4.06,136.5L540.05,569.84,418.12,298.64a142.66,142.66,0,0,1-2.46-122ZM527.53,608.71A13.7,13.7,0,0,0,540,616.78h0a13.69,13.69,0,0,0,12.46-8l83.1-183.47H843.16l50.68,287.26H772.55V657.81a13.66,13.66,0,0,0-13.67-13.67H348.49v-68.4h54.72a13.68,13.68,0,0,0,13.68-13.67h0V425.27h28.17ZM250.21,425.27H389.53V548.38H224.86Zm-31,150.47H321.14v82.07a13.66,13.66,0,0,0,13.67,13.68H745.2v41H649.44a13.68,13.68,0,0,0-13.68,13.67h0V863H160.08Z"/><path class="cls-2" d="M635.76,233.75A95.76,95.76,0,1,0,540,329.51,95.75,95.75,0,0,0,635.76,233.75ZM540,302.15a68.4,68.4,0,1,1,68.39-68.4A68.4,68.4,0,0,1,540,302.15Z"/><path class="cls-2" d="M233,609.93l-2.78,3.34a8.94,8.94,0,0,1-5.67-5.42c-1.93-4.58-6.15-14.35-6.15-14.35Z"/><path class="cls-2" d="M231.44,613.57l17.44-20.31-6.09,15.07S240.32,615.39,231.44,613.57Z"/><polygon class="cls-2" points="242.43 586.87 231.67 606.61 233.87 608.94 238.86 603.24 242.43 586.87"/><polygon class="cls-2" points="225.31 586.87 228.36 603.19 230.81 605.71 232.97 601.8 225.31 586.87"/><polygon class="cls-2" points="233.64 600.56 231.04 595.31 233.75 585.91 236.5 595.42 233.64 600.56"/><path class="cls-2" d="M268.83,610.61,266.05,614a9,9,0,0,1-5.67-5.43c-1.92-4.58-6.14-14.34-6.14-14.34Z"/><path class="cls-2" d="M267.24,614.25l17.43-20.32L278.59,609S276.11,616.07,267.24,614.25Z"/><polygon class="cls-2" points="278.23 587.55 267.46 607.28 269.66 609.62 274.65 603.91 278.23 587.55"/><polygon class="cls-2" points="261.11 587.55 264.16 603.87 266.61 606.38 268.76 602.47 261.11 587.55"/><polygon class="cls-2" points="269.44 601.24 266.83 595.98 269.55 586.58 272.29 596.09 269.44 601.24"/><path class="cls-2" d="M302.69,610.61,299.91,614a9,9,0,0,1-5.67-5.43c-1.93-4.58-6.15-14.34-6.15-14.34Z"/><path class="cls-2" d="M301.09,614.25l17.44-20.32L312.44,609S310,616.07,301.09,614.25Z"/><polygon class="cls-2" points="312.08 587.55 301.32 607.28 303.52 609.62 308.51 603.91 312.08 587.55"/><polygon class="cls-2" points="294.96 587.55 298.01 603.87 300.46 606.38 302.62 602.47 294.96 587.55"/><polygon class="cls-2" points="303.29 601.24 300.69 595.98 303.4 586.58 306.15 596.09 303.29 601.24"/><path class="cls-2" d="M226.09,642.85l-2.79,3.35a9,9,0,0,1-5.66-5.43c-1.93-4.58-6.15-14.34-6.15-14.34Z"/><path class="cls-2" d="M224.49,646.49l17.44-20.31-6.09,15.07S233.37,648.31,224.49,646.49Z"/><polygon class="cls-2" points="235.48 619.8 224.72 639.53 226.92 641.87 231.91 636.16 235.48 619.8"/><polygon class="cls-2" points="218.36 619.8 221.41 636.11 223.86 638.63 226.02 634.72 218.36 619.8"/><polygon class="cls-2" points="226.69 633.49 224.09 628.23 226.8 618.83 229.55 628.34 226.69 633.49"/><path class="cls-2" d="M261.88,643.53l-2.78,3.34a9,9,0,0,1-5.67-5.43c-1.93-4.58-6.15-14.34-6.15-14.34Z"/><path class="cls-2" d="M260.29,647.17l17.43-20.31-6.08,15.07S269.16,649,260.29,647.17Z"/><polygon class="cls-2" points="271.27 620.47 260.51 640.2 262.71 642.54 267.7 636.83 271.27 620.47"/><polygon class="cls-2" points="254.16 620.47 257.21 636.79 259.66 639.3 261.81 635.39 254.16 620.47"/><polygon class="cls-2" points="262.49 634.16 259.88 628.9 262.59 619.5 265.34 629.01 262.49 634.16"/><path class="cls-2" d="M295.74,643.53,293,646.87a9,9,0,0,1-5.66-5.43c-1.93-4.58-6.15-14.34-6.15-14.34Z"/><path class="cls-2" d="M294.14,647.17l17.44-20.31-6.09,15.07S303,649,294.14,647.17Z"/><polygon class="cls-2" points="305.13 620.47 294.37 640.2 296.57 642.54 301.56 636.83 305.13 620.47"/><polygon class="cls-2" points="288.01 620.47 291.06 636.79 293.51 639.3 295.67 635.39 288.01 620.47"/><polygon class="cls-2" points="296.34 634.16 293.74 628.9 296.45 619.5 299.2 629.01 296.34 634.16"/><path class="cls-2" d="M221.4,675.78l-2.78,3.34a9,9,0,0,1-5.66-5.43c-1.93-4.58-6.15-14.34-6.15-14.34Z"/><path class="cls-2" d="M219.81,679.42l17.44-20.32-6.09,15.08S228.68,681.24,219.81,679.42Z"/><polygon class="cls-2" points="230.8 652.72 220.03 672.45 222.24 674.79 227.22 669.08 230.8 652.72"/><polygon class="cls-2" points="213.68 652.72 216.73 669.04 219.18 671.55 221.34 667.64 213.68 652.72"/><polygon class="cls-2" points="222.01 666.41 219.41 661.15 222.12 651.75 224.87 661.26 222.01 666.41"/><path class="cls-2" d="M257.2,676.45l-2.78,3.34a8.94,8.94,0,0,1-5.67-5.42c-1.93-4.59-6.15-14.35-6.15-14.35Z"/><path class="cls-2" d="M255.6,680.09,273,659.78,267,674.85S264.48,681.91,255.6,680.09Z"/><polygon class="cls-2" points="266.59 653.39 255.83 673.12 258.03 675.46 263.02 669.75 266.59 653.39"/><polygon class="cls-2" points="249.47 653.39 252.53 669.71 254.97 672.23 257.13 668.32 249.47 653.39"/><polygon class="cls-2" points="257.81 667.08 255.2 661.82 257.91 652.43 260.66 661.93 257.81 667.08"/><path class="cls-2" d="M291.06,676.45l-2.79,3.34a8.93,8.93,0,0,1-5.66-5.42c-1.93-4.59-6.15-14.35-6.15-14.35Z"/><path class="cls-2" d="M289.46,680.09l17.44-20.31-6.09,15.07S298.34,681.91,289.46,680.09Z"/><polygon class="cls-2" points="300.45 653.39 289.69 673.12 291.89 675.46 296.88 669.75 300.45 653.39"/><polygon class="cls-2" points="283.33 653.39 286.38 669.71 288.83 672.23 290.99 668.32 283.33 653.39"/><polygon class="cls-2" points="291.66 667.08 289.06 661.82 291.77 652.43 294.51 661.93 291.66 667.08"/><path class="cls-2" d="M213.78,713.64,211,717a8.93,8.93,0,0,1-5.66-5.42c-1.93-4.58-6.15-14.35-6.15-14.35Z"/><path class="cls-2" d="M212.18,717.28,229.62,697,223.53,712S221.06,719.1,212.18,717.28Z"/><polygon class="cls-2" points="223.17 690.58 212.41 710.32 214.61 712.65 219.6 706.95 223.17 690.58"/><polygon class="cls-2" points="206.05 690.58 209.1 706.9 211.55 709.42 213.71 705.51 206.05 690.58"/><polygon class="cls-2" points="214.38 704.27 211.78 699.01 214.49 689.62 217.24 699.13 214.38 704.27"/><path class="cls-2" d="M249.57,714.31l-2.78,3.34a8.94,8.94,0,0,1-5.67-5.42c-1.93-4.58-6.14-14.35-6.14-14.35Z"/><path class="cls-2" d="M248,718l17.43-20.31-6.08,15.07S256.85,719.77,248,718Z"/><polygon class="cls-2" points="258.96 691.25 248.2 710.99 250.4 713.32 255.39 707.62 258.96 691.25"/><polygon class="cls-2" points="241.85 691.25 244.9 707.57 247.35 710.09 249.5 706.18 241.85 691.25"/><polygon class="cls-2" points="250.18 704.94 247.57 699.68 250.28 690.29 253.03 699.8 250.18 704.94"/><path class="cls-2" d="M283.43,714.31l-2.78,3.34a8.94,8.94,0,0,1-5.67-5.42c-1.93-4.58-6.15-14.35-6.15-14.35Z"/><path class="cls-2" d="M281.83,718l17.44-20.31-6.09,15.07S290.71,719.77,281.83,718Z"/><polygon class="cls-2" points="292.82 691.25 282.06 710.99 284.26 713.32 289.25 707.62 292.82 691.25"/><polygon class="cls-2" points="275.7 691.25 278.75 707.57 281.2 710.09 283.36 706.18 275.7 691.25"/><polygon class="cls-2" points="284.03 704.94 281.43 699.68 284.14 690.29 286.89 699.8 284.03 704.94"/><path class="cls-2" d="M211.84,752.18l-2.78,3.34a9,9,0,0,1-5.67-5.43c-1.93-4.58-6.15-14.34-6.15-14.34Z"/><path class="cls-2" d="M210.24,755.82l17.44-20.32-6.09,15.07S219.12,757.64,210.24,755.82Z"/><polygon class="cls-2" points="221.23 729.12 210.47 748.85 212.67 751.19 217.66 745.48 221.23 729.12"/><polygon class="cls-2" points="204.11 729.12 207.16 745.44 209.61 747.95 211.77 744.04 204.11 729.12"/><polygon class="cls-2" points="212.44 742.81 209.84 737.55 212.55 728.15 215.3 737.66 212.44 742.81"/><path class="cls-2" d="M247.63,752.85l-2.78,3.34a8.94,8.94,0,0,1-5.67-5.43c-1.92-4.58-6.14-14.34-6.14-14.34Z"/><path class="cls-2" d="M246,756.49l17.43-20.31-6.08,15.07S254.91,758.31,246,756.49Z"/><polygon class="cls-2" points="257.02 729.79 246.26 749.52 248.46 751.86 253.45 746.15 257.02 729.79"/><polygon class="cls-2" points="239.91 729.79 242.96 746.11 245.41 748.62 247.56 744.72 239.91 729.79"/><polygon class="cls-2" points="248.24 743.48 245.63 738.22 248.34 728.83 251.09 738.33 248.24 743.48"/><path class="cls-2" d="M281.49,752.85l-2.78,3.34a8.94,8.94,0,0,1-5.67-5.43c-1.93-4.58-6.15-14.34-6.15-14.34Z"/><path class="cls-2" d="M279.89,756.49l17.44-20.31-6.09,15.07S288.77,758.31,279.89,756.49Z"/><polygon class="cls-2" points="290.88 729.79 280.12 749.52 282.32 751.86 287.31 746.15 290.88 729.79"/><polygon class="cls-2" points="273.76 729.79 276.81 746.11 279.26 748.62 281.42 744.72 273.76 729.79"/><polygon class="cls-2" points="282.09 743.48 279.49 738.22 282.2 728.83 284.95 738.33 282.09 743.48"/><path class="cls-2" d="M210.18,788.34l-2.78,3.34a9,9,0,0,1-5.66-5.43c-1.93-4.58-6.15-14.34-6.15-14.34Z"/><path class="cls-2" d="M208.59,792,226,771.67l-6.08,15.07S217.46,793.8,208.59,792Z"/><polygon class="cls-2" points="219.58 765.28 208.81 785.01 211.01 787.35 216 781.64 219.58 765.28"/><polygon class="cls-2" points="202.46 765.28 205.51 781.6 207.96 784.11 210.12 780.2 202.46 765.28"/><polygon class="cls-2" points="210.79 778.97 208.18 773.71 210.9 764.32 213.64 773.82 210.79 778.97"/><path class="cls-2" d="M246,789l-2.78,3.34a8.94,8.94,0,0,1-5.67-5.42c-1.93-4.58-6.15-14.35-6.15-14.35Z"/><path class="cls-2" d="M244.38,792.65l17.44-20.31-6.09,15.07S253.26,794.47,244.38,792.65Z"/><polygon class="cls-2" points="255.37 765.95 244.61 785.68 246.81 788.02 251.8 782.31 255.37 765.95"/><polygon class="cls-2" points="238.25 765.95 241.31 782.27 243.75 784.79 245.91 780.88 238.25 765.95"/><polygon class="cls-2" points="246.59 779.64 243.98 774.38 246.69 764.99 249.44 774.5 246.59 779.64"/><path class="cls-2" d="M279.83,789l-2.78,3.34a8.93,8.93,0,0,1-5.66-5.42c-1.93-4.58-6.15-14.35-6.15-14.35Z"/><path class="cls-2" d="M278.24,792.65l17.44-20.31-6.09,15.07S287.11,794.47,278.24,792.65Z"/><polygon class="cls-2" points="289.23 765.95 278.46 785.68 280.67 788.02 285.65 782.31 289.23 765.95"/><polygon class="cls-2" points="272.11 765.95 275.16 782.27 277.61 784.79 279.77 780.88 272.11 765.95"/><polygon class="cls-2" points="280.44 779.64 277.83 774.38 280.55 764.99 283.3 774.5 280.44 779.64"/><path class="cls-2" d="M208.29,821.73l-2.78,3.34a9,9,0,0,1-5.67-5.43c-1.93-4.58-6.15-14.34-6.15-14.34Z"/><path class="cls-2" d="M206.69,825.37l17.44-20.31L218,820.13S215.57,827.19,206.69,825.37Z"/><polygon class="cls-2" points="217.68 798.67 206.92 818.4 209.12 820.74 214.11 815.03 217.68 798.67"/><polygon class="cls-2" points="200.56 798.67 203.61 814.99 206.06 817.5 208.22 813.59 200.56 798.67"/><polygon class="cls-2" points="208.9 812.36 206.29 807.1 209 797.71 211.75 807.21 208.9 812.36"/><path class="cls-2" d="M244.08,822.4l-2.78,3.34a8.94,8.94,0,0,1-5.67-5.42c-1.92-4.58-6.14-14.35-6.14-14.35Z"/><path class="cls-2" d="M242.49,826l17.43-20.31-6.08,15.07S251.36,827.86,242.49,826Z"/><polygon class="cls-2" points="253.47 799.34 242.71 819.08 244.91 821.41 249.9 815.7 253.47 799.34"/><polygon class="cls-2" points="236.36 799.34 239.41 815.66 241.86 818.18 244.01 814.27 236.36 799.34"/><polygon class="cls-2" points="244.69 813.03 242.08 807.77 244.8 798.38 247.54 807.88 244.69 813.03"/><path class="cls-2" d="M277.94,822.4l-2.78,3.34a8.94,8.94,0,0,1-5.67-5.42c-1.93-4.58-6.15-14.35-6.15-14.35Z"/><path class="cls-2" d="M276.34,826l17.44-20.31-6.09,15.07S285.22,827.86,276.34,826Z"/><polygon class="cls-2" points="287.33 799.34 276.57 819.08 278.77 821.41 283.76 815.7 287.33 799.34"/><polygon class="cls-2" points="270.21 799.34 273.26 815.66 275.71 818.18 277.87 814.27 270.21 799.34"/><polygon class="cls-2" points="278.55 813.03 275.94 807.77 278.65 798.38 281.4 807.88 278.55 813.03"/><path class="cls-2" d="M208.29,853.36l-2.78,3.34a8.94,8.94,0,0,1-5.67-5.42c-1.93-4.58-6.15-14.35-6.15-14.35Z"/><path class="cls-2" d="M206.69,857l17.44-20.31L218,851.76S215.57,858.82,206.69,857Z"/><polygon class="cls-2" points="217.68 830.3 206.92 850.03 209.12 852.37 214.11 846.66 217.68 830.3"/><polygon class="cls-2" points="200.56 830.3 203.61 846.62 206.06 849.14 208.22 845.23 200.56 830.3"/><polygon class="cls-2" points="208.9 843.99 206.29 838.73 209 829.34 211.75 838.85 208.9 843.99"/><path class="cls-2" d="M244.08,854l-2.78,3.34a8.94,8.94,0,0,1-5.67-5.42c-1.92-4.58-6.14-14.35-6.14-14.35Z"/><path class="cls-2" d="M242.49,857.67l17.43-20.31-6.08,15.07S251.36,859.49,242.49,857.67Z"/><polygon class="cls-2" points="253.47 830.97 242.71 850.71 244.91 853.04 249.9 847.34 253.47 830.97"/><polygon class="cls-2" points="236.36 830.97 239.41 847.29 241.86 849.81 244.01 845.9 236.36 830.97"/><polygon class="cls-2" points="244.69 844.66 242.08 839.41 244.8 830.01 247.54 839.52 244.69 844.66"/><path class="cls-2" d="M277.94,854l-2.78,3.34a8.94,8.94,0,0,1-5.67-5.42c-1.93-4.58-6.15-14.35-6.15-14.35Z"/><path class="cls-2" d="M276.34,857.67l17.44-20.31-6.09,15.07S285.22,859.49,276.34,857.67Z"/><polygon class="cls-2" points="287.33 830.97 276.57 850.71 278.77 853.04 283.76 847.34 287.33 830.97"/><polygon class="cls-2" points="270.21 830.97 273.26 847.29 275.71 849.81 277.87 845.9 270.21 830.97"/><polygon class="cls-2" points="278.55 844.66 275.94 839.41 278.65 830.01 281.4 839.52 278.55 844.66"/><path class="cls-2" d="M318.26,712.43l-2.78,3.34a9,9,0,0,1-5.67-5.43c-1.92-4.58-6.14-14.34-6.14-14.34Z"/><path class="cls-2" d="M316.67,716.07l17.43-20.32L328,710.83S325.54,717.89,316.67,716.07Z"/><polygon class="cls-2" points="327.65 689.37 316.89 709.1 319.09 711.44 324.08 705.73 327.65 689.37"/><polygon class="cls-2" points="310.54 689.37 313.59 705.69 316.04 708.2 318.19 704.29 310.54 689.37"/><polygon class="cls-2" points="318.87 703.06 316.26 697.8 318.98 688.4 321.72 697.91 318.87 703.06"/><path class="cls-2" d="M264.23,461.84l-2.79,3.34a8.93,8.93,0,0,1-5.66-5.43c-1.93-4.58-6.15-14.34-6.15-14.34Z"/><path class="cls-2" d="M262.63,465.48l17.44-20.31L274,460.24S271.51,467.3,262.63,465.48Z"/><polygon class="cls-2" points="273.62 438.78 262.86 458.51 265.06 460.85 270.05 455.14 273.62 438.78"/><polygon class="cls-2" points="256.5 438.78 259.55 455.1 262 457.61 264.16 453.7 256.5 438.78"/><polygon class="cls-2" points="264.83 452.47 262.23 447.21 264.94 437.81 267.69 447.32 264.83 452.47"/><path class="cls-2" d="M300,462.51l-2.78,3.34a8.94,8.94,0,0,1-5.67-5.42c-1.93-4.58-6.14-14.35-6.14-14.35Z"/><path class="cls-2" d="M298.43,466.15l17.43-20.31-6.08,15.07S307.3,468,298.43,466.15Z"/><polygon class="cls-2" points="309.41 439.45 298.65 459.19 300.85 461.52 305.84 455.81 309.41 439.45"/><polygon class="cls-2" points="292.3 439.45 295.35 455.77 297.8 458.29 299.95 454.38 292.3 439.45"/><polygon class="cls-2" points="300.63 453.14 298.02 447.88 300.73 438.49 303.48 448 300.63 453.14"/><path class="cls-2" d="M333.88,462.51l-2.79,3.34a8.93,8.93,0,0,1-5.66-5.42c-1.93-4.58-6.15-14.35-6.15-14.35Z"/><path class="cls-2" d="M332.28,466.15l17.44-20.31-6.09,15.07S341.16,468,332.28,466.15Z"/><polygon class="cls-2" points="343.27 439.45 332.51 459.19 334.71 461.52 339.7 455.81 343.27 439.45"/><polygon class="cls-2" points="326.15 439.45 329.2 455.77 331.65 458.29 333.81 454.38 326.15 439.45"/><polygon class="cls-2" points="334.48 453.14 331.88 447.88 334.59 438.49 337.34 448 334.48 453.14"/><path class="cls-2" d="M368.71,460.62,365.93,464a9,9,0,0,1-5.67-5.43c-1.92-4.58-6.14-14.34-6.14-14.34Z"/><path class="cls-2" d="M367.12,464.26,384.55,444,378.47,459S376,466.08,367.12,464.26Z"/><polygon class="cls-2" points="378.11 437.57 367.34 457.3 369.54 459.64 374.53 453.93 378.11 437.57"/><polygon class="cls-2" points="360.99 437.57 364.04 453.88 366.49 456.4 368.64 452.49 360.99 437.57"/><polygon class="cls-2" points="369.32 451.25 366.71 446 369.43 436.6 372.17 446.11 369.32 451.25"/><path class="cls-2" d="M265,495.21l-2.79,3.34a8.93,8.93,0,0,1-5.66-5.42c-1.93-4.58-6.15-14.35-6.15-14.35Z"/><path class="cls-2" d="M263.42,498.85l17.44-20.31-6.09,15.07S272.3,500.67,263.42,498.85Z"/><polygon class="cls-2" points="274.41 472.15 263.65 491.88 265.85 494.22 270.84 488.51 274.41 472.15"/><polygon class="cls-2" points="257.29 472.15 260.34 488.47 262.79 490.99 264.95 487.08 257.29 472.15"/><polygon class="cls-2" points="265.62 485.84 263.02 480.58 265.73 471.19 268.48 480.69 265.62 485.84"/><path class="cls-2" d="M300.81,495.88,298,499.22a8.94,8.94,0,0,1-5.67-5.42c-1.93-4.58-6.14-14.35-6.14-14.35Z"/><path class="cls-2" d="M299.22,499.52l17.43-20.31-6.08,15.07S308.09,501.34,299.22,499.52Z"/><polygon class="cls-2" points="310.2 472.82 299.44 492.56 301.64 494.89 306.63 489.19 310.2 472.82"/><polygon class="cls-2" points="293.09 472.82 296.14 489.14 298.59 491.66 300.74 487.75 293.09 472.82"/><polygon class="cls-2" points="301.42 486.51 298.81 481.25 301.52 471.86 304.27 481.37 301.42 486.51"/><path class="cls-2" d="M334.67,495.88l-2.78,3.34a8.94,8.94,0,0,1-5.67-5.42c-1.93-4.58-6.15-14.35-6.15-14.35Z"/><path class="cls-2" d="M333.07,499.52l17.44-20.31-6.09,15.07S342,501.34,333.07,499.52Z"/><polygon class="cls-2" points="344.06 472.82 333.3 492.56 335.5 494.89 340.49 489.19 344.06 472.82"/><polygon class="cls-2" points="326.94 472.82 329.99 489.14 332.44 491.66 334.6 487.75 326.94 472.82"/><polygon class="cls-2" points="335.27 486.51 332.67 481.25 335.38 471.86 338.13 481.37 335.27 486.51"/><path class="cls-2" d="M369.5,494l-2.78,3.34a9,9,0,0,1-5.67-5.43c-1.92-4.58-6.14-14.34-6.14-14.34Z"/><path class="cls-2" d="M367.91,497.64l17.43-20.32-6.08,15.07S376.78,499.46,367.91,497.64Z"/><polygon class="cls-2" points="378.89 470.94 368.13 490.67 370.33 493.01 375.32 487.3 378.89 470.94"/><polygon class="cls-2" points="361.78 470.94 364.83 487.26 367.28 489.77 369.44 485.86 361.78 470.94"/><polygon class="cls-2" points="370.11 484.63 367.5 479.37 370.22 469.97 372.96 479.48 370.11 484.63"/><path class="cls-2" d="M265.57,528.61,262.79,532a8.94,8.94,0,0,1-5.67-5.42C255.19,522,251,512.19,251,512.19Z"/><path class="cls-2" d="M264,532.25l17.44-20.31L275.32,527S272.85,534.07,264,532.25Z"/><polygon class="cls-2" points="274.96 505.56 264.2 525.29 266.4 527.63 271.39 521.92 274.96 505.56"/><polygon class="cls-2" points="257.84 505.56 260.89 521.87 263.34 524.39 265.5 520.48 257.84 505.56"/><polygon class="cls-2" points="266.17 519.25 263.57 513.99 266.28 504.59 269.03 514.1 266.17 519.25"/><path class="cls-2" d="M301.36,529.29l-2.78,3.34a9,9,0,0,1-5.67-5.43c-1.92-4.58-6.14-14.34-6.14-14.34Z"/><path class="cls-2" d="M299.77,532.93l17.43-20.32-6.08,15.07S308.64,534.75,299.77,532.93Z"/><polygon class="cls-2" points="310.75 506.23 299.99 525.96 302.19 528.3 307.18 522.59 310.75 506.23"/><polygon class="cls-2" points="293.64 506.23 296.69 522.55 299.14 525.06 301.3 521.15 293.64 506.23"/><polygon class="cls-2" points="301.97 519.92 299.36 514.66 302.08 505.26 304.82 514.77 301.97 519.92"/><path class="cls-2" d="M335.22,529.29l-2.78,3.34a9,9,0,0,1-5.67-5.43c-1.93-4.58-6.15-14.34-6.15-14.34Z"/><path class="cls-2" d="M333.62,532.93l17.44-20.32L345,527.68S342.5,534.75,333.62,532.93Z"/><polygon class="cls-2" points="344.61 506.23 333.85 525.96 336.05 528.3 341.04 522.59 344.61 506.23"/><polygon class="cls-2" points="327.49 506.23 330.55 522.55 332.99 525.06 335.15 521.15 327.49 506.23"/><polygon class="cls-2" points="335.82 519.92 333.22 514.66 335.93 505.26 338.68 514.77 335.82 519.92"/><path class="cls-2" d="M370.05,527.4l-2.78,3.34a8.91,8.91,0,0,1-5.66-5.42c-1.93-4.58-6.15-14.35-6.15-14.35Z"/><path class="cls-2" d="M368.46,531l17.43-20.31-6.08,15.07S377.33,532.86,368.46,531Z"/><polygon class="cls-2" points="379.45 504.34 368.68 524.08 370.88 526.41 375.87 520.71 379.45 504.34"/><polygon class="cls-2" points="362.33 504.34 365.38 520.66 367.83 523.18 369.99 519.27 362.33 504.34"/><polygon class="cls-2" points="370.66 518.03 368.05 512.77 370.77 503.38 373.51 512.88 370.66 518.03"/><path class="cls-2" d="M354.06,713.1l-2.79,3.34a8.93,8.93,0,0,1-5.66-5.43c-1.93-4.58-6.15-14.34-6.15-14.34Z"/><path class="cls-2" d="M352.46,716.74l17.44-20.31-6.09,15.07S361.34,718.56,352.46,716.74Z"/><polygon class="cls-2" points="363.45 690.04 352.69 709.77 354.89 712.11 359.88 706.4 363.45 690.04"/><polygon class="cls-2" points="346.33 690.04 349.38 706.36 351.83 708.88 353.99 704.97 346.33 690.04"/><polygon class="cls-2" points="354.66 703.73 352.06 698.47 354.77 689.08 357.52 698.58 354.66 703.73"/><path class="cls-2" d="M387.91,713.1l-2.78,3.34a8.94,8.94,0,0,1-5.67-5.43c-1.92-4.58-6.14-14.34-6.14-14.34Z"/><path class="cls-2" d="M386.32,716.74l17.43-20.31-6.08,15.07S395.19,718.56,386.32,716.74Z"/><polygon class="cls-2" points="397.31 690.04 386.54 709.77 388.74 712.11 393.73 706.4 397.31 690.04"/><polygon class="cls-2" points="380.19 690.04 383.24 706.36 385.69 708.88 387.85 704.97 380.19 690.04"/><polygon class="cls-2" points="388.52 703.73 385.91 698.47 388.63 689.08 391.37 698.58 388.52 703.73"/><path class="cls-2" d="M316.32,751l-2.78,3.34a8.94,8.94,0,0,1-5.67-5.42c-1.92-4.58-6.14-14.35-6.14-14.35Z"/><path class="cls-2" d="M314.73,754.6l17.43-20.31-6.08,15.07S323.6,756.42,314.73,754.6Z"/><polygon class="cls-2" points="325.72 727.9 314.95 747.64 317.15 749.97 322.14 744.27 325.72 727.9"/><polygon class="cls-2" points="308.6 727.9 311.65 744.22 314.1 746.74 316.25 742.83 308.6 727.9"/><polygon class="cls-2" points="316.93 741.59 314.32 736.34 317.04 726.94 319.78 736.45 316.93 741.59"/><path class="cls-2" d="M352.12,751.63,349.34,755a9,9,0,0,1-5.67-5.43c-1.93-4.58-6.15-14.34-6.15-14.34Z"/><path class="cls-2" d="M350.52,755.27,368,735,361.87,750S359.4,757.09,350.52,755.27Z"/><polygon class="cls-2" points="361.51 728.58 350.75 748.31 352.95 750.65 357.94 744.94 361.51 728.58"/><polygon class="cls-2" points="344.39 728.58 347.44 744.89 349.89 747.41 352.05 743.5 344.39 728.58"/><polygon class="cls-2" points="352.72 742.26 350.12 737.01 352.83 727.61 355.58 737.12 352.72 742.26"/><path class="cls-2" d="M386,751.63,383.19,755a8.94,8.94,0,0,1-5.66-5.43c-1.93-4.58-6.15-14.34-6.15-14.34Z"/><path class="cls-2" d="M384.38,755.27,401.81,735,395.73,750S393.25,757.09,384.38,755.27Z"/><polygon class="cls-2" points="395.37 728.58 384.6 748.31 386.8 750.65 391.79 744.94 395.37 728.58"/><polygon class="cls-2" points="378.25 728.58 381.3 744.89 383.75 747.41 385.91 743.5 378.25 728.58"/><polygon class="cls-2" points="386.58 742.26 383.97 737.01 386.69 727.61 389.43 737.12 386.58 742.26"/><path class="cls-2" d="M314.67,787.12l-2.78,3.34a8.94,8.94,0,0,1-5.67-5.42c-1.93-4.58-6.15-14.34-6.15-14.34Z"/><path class="cls-2" d="M313.07,790.76l17.44-20.31-6.09,15.07S322,792.58,313.07,790.76Z"/><polygon class="cls-2" points="324.06 764.07 313.3 783.8 315.5 786.13 320.49 780.43 324.06 764.07"/><polygon class="cls-2" points="306.94 764.07 310 780.38 312.44 782.9 314.6 778.99 306.94 764.07"/><polygon class="cls-2" points="315.28 777.75 312.67 772.5 315.38 763.1 318.13 772.61 315.28 777.75"/><path class="cls-2" d="M350.46,787.8l-2.78,3.34a9,9,0,0,1-5.66-5.43c-1.93-4.58-6.15-14.34-6.15-14.34Z"/><path class="cls-2" d="M348.87,791.44l17.43-20.32-6.08,15.07S357.74,793.26,348.87,791.44Z"/><polygon class="cls-2" points="359.86 764.74 349.09 784.47 351.3 786.81 356.28 781.1 359.86 764.74"/><polygon class="cls-2" points="342.74 764.74 345.79 781.05 348.24 783.57 350.4 779.66 342.74 764.74"/><polygon class="cls-2" points="351.07 778.43 348.46 773.17 351.18 763.77 353.92 773.28 351.07 778.43"/><path class="cls-2" d="M384.32,787.8l-2.78,3.34a9,9,0,0,1-5.67-5.43c-1.93-4.58-6.15-14.34-6.15-14.34Z"/><path class="cls-2" d="M382.72,791.44l17.44-20.32-6.09,15.07S391.6,793.26,382.72,791.44Z"/><polygon class="cls-2" points="393.71 764.74 382.95 784.47 385.15 786.81 390.14 781.1 393.71 764.74"/><polygon class="cls-2" points="376.6 764.74 379.65 781.05 382.1 783.57 384.25 779.66 376.6 764.74"/><polygon class="cls-2" points="384.93 778.43 382.32 773.17 385.03 763.77 387.78 773.28 384.93 778.43"/><path class="cls-2" d="M312.77,820.51,310,823.85a8.91,8.91,0,0,1-5.66-5.42c-1.93-4.58-6.15-14.34-6.15-14.34Z"/><path class="cls-2" d="M311.18,824.15l17.43-20.31-6.08,15.07S320.05,826,311.18,824.15Z"/><polygon class="cls-2" points="322.17 797.46 311.4 817.19 313.61 819.53 318.59 813.82 322.17 797.46"/><polygon class="cls-2" points="305.05 797.46 308.1 813.77 310.55 816.29 312.71 812.38 305.05 797.46"/><polygon class="cls-2" points="313.38 811.14 310.77 805.89 313.49 796.49 316.23 806 313.38 811.14"/><path class="cls-2" d="M348.57,821.19l-2.78,3.34a9,9,0,0,1-5.67-5.43c-1.93-4.58-6.15-14.34-6.15-14.34Z"/><path class="cls-2" d="M347,824.83l17.44-20.32-6.09,15.07S355.85,826.65,347,824.83Z"/><polygon class="cls-2" points="357.96 798.13 347.2 817.86 349.4 820.2 354.39 814.49 357.96 798.13"/><polygon class="cls-2" points="340.84 798.13 343.89 814.45 346.34 816.96 348.5 813.05 340.84 798.13"/><polygon class="cls-2" points="349.17 811.82 346.57 806.56 349.28 797.16 352.03 806.67 349.17 811.82"/><path class="cls-2" d="M382.42,821.19l-2.78,3.34A8.94,8.94,0,0,1,374,819.1c-1.93-4.58-6.15-14.34-6.15-14.34Z"/><path class="cls-2" d="M380.83,824.83l17.43-20.32-6.08,15.07S389.7,826.65,380.83,824.83Z"/><polygon class="cls-2" points="391.82 798.13 381.05 817.86 383.25 820.2 388.24 814.49 391.82 798.13"/><polygon class="cls-2" points="374.7 798.13 377.75 814.45 380.2 816.96 382.36 813.05 374.7 798.13"/><polygon class="cls-2" points="383.03 811.82 380.42 806.56 383.14 797.16 385.88 806.67 383.03 811.82"/><path class="cls-2" d="M312.77,852.15,310,855.49a8.94,8.94,0,0,1-5.66-5.43c-1.93-4.58-6.15-14.34-6.15-14.34Z"/><path class="cls-2" d="M311.18,855.79l17.43-20.32-6.08,15.08S320.05,857.61,311.18,855.79Z"/><polygon class="cls-2" points="322.17 829.09 311.4 848.82 313.61 851.16 318.59 845.45 322.17 829.09"/><polygon class="cls-2" points="305.05 829.09 308.1 845.41 310.55 847.92 312.71 844.01 305.05 829.09"/><polygon class="cls-2" points="313.38 842.78 310.77 837.52 313.49 828.12 316.23 837.63 313.38 842.78"/><path class="cls-2" d="M348.57,852.82l-2.78,3.34a8.94,8.94,0,0,1-5.67-5.42c-1.93-4.59-6.15-14.35-6.15-14.35Z"/><path class="cls-2" d="M347,856.46l17.44-20.31-6.09,15.07S355.85,858.28,347,856.46Z"/><polygon class="cls-2" points="357.96 829.76 347.2 849.49 349.4 851.83 354.39 846.12 357.96 829.76"/><polygon class="cls-2" points="340.84 829.76 343.89 846.08 346.34 848.6 348.5 844.68 340.84 829.76"/><polygon class="cls-2" points="349.17 843.45 346.57 838.19 349.28 828.8 352.03 838.3 349.17 843.45"/><path class="cls-2" d="M382.42,852.82l-2.78,3.34a8.91,8.91,0,0,1-5.66-5.42c-1.93-4.59-6.15-14.35-6.15-14.35Z"/><path class="cls-2" d="M380.83,856.46l17.43-20.31-6.08,15.07S389.7,858.28,380.83,856.46Z"/><polygon class="cls-2" points="391.82 829.76 381.05 849.49 383.25 851.83 388.24 846.12 391.82 829.76"/><polygon class="cls-2" points="374.7 829.76 377.75 846.08 380.2 848.6 382.36 844.68 374.7 829.76"/><polygon class="cls-2" points="383.03 843.45 380.42 838.19 383.14 828.8 385.88 838.3 383.03 843.45"/><path class="cls-2" d="M424.72,712.43l-2.78,3.34a9,9,0,0,1-5.67-5.43c-1.92-4.58-6.14-14.34-6.14-14.34Z"/><path class="cls-2" d="M423.13,716.07l17.43-20.32-6.08,15.08S432,717.89,423.13,716.07Z"/><polygon class="cls-2" points="434.12 689.37 423.35 709.1 425.55 711.44 430.54 705.73 434.12 689.37"/><polygon class="cls-2" points="417 689.37 420.05 705.69 422.5 708.2 424.65 704.29 417 689.37"/><polygon class="cls-2" points="425.33 703.06 422.72 697.8 425.44 688.4 428.18 697.91 425.33 703.06"/><path class="cls-2" d="M460.52,713.1l-2.79,3.34a8.93,8.93,0,0,1-5.66-5.43c-1.93-4.58-6.15-14.34-6.15-14.34Z"/><path class="cls-2" d="M458.92,716.74l17.44-20.31-6.09,15.07S467.8,718.56,458.92,716.74Z"/><polygon class="cls-2" points="469.91 690.04 459.15 709.77 461.35 712.11 466.34 706.4 469.91 690.04"/><polygon class="cls-2" points="452.79 690.04 455.84 706.36 458.29 708.88 460.45 704.97 452.79 690.04"/><polygon class="cls-2" points="461.12 703.73 458.52 698.47 461.23 689.08 463.98 698.58 461.12 703.73"/><path class="cls-2" d="M494.37,713.1l-2.78,3.34a8.91,8.91,0,0,1-5.66-5.43c-1.93-4.58-6.15-14.34-6.15-14.34Z"/><path class="cls-2" d="M492.78,716.74l17.43-20.31-6.08,15.07S501.65,718.56,492.78,716.74Z"/><polygon class="cls-2" points="503.77 690.04 493 709.77 495.2 712.11 500.19 706.4 503.77 690.04"/><polygon class="cls-2" points="486.65 690.04 489.7 706.36 492.15 708.88 494.31 704.97 486.65 690.04"/><polygon class="cls-2" points="494.98 703.73 492.37 698.47 495.09 689.08 497.83 698.58 494.98 703.73"/><path class="cls-2" d="M422.78,751,420,754.3a8.91,8.91,0,0,1-5.66-5.42c-1.93-4.58-6.15-14.35-6.15-14.35Z"/><path class="cls-2" d="M421.19,754.6l17.43-20.31-6.08,15.07S430.06,756.42,421.19,754.6Z"/><polygon class="cls-2" points="432.18 727.9 421.41 747.64 423.61 749.97 428.6 744.27 432.18 727.9"/><polygon class="cls-2" points="415.06 727.9 418.11 744.22 420.56 746.74 422.72 742.83 415.06 727.9"/><polygon class="cls-2" points="423.39 741.59 420.78 736.34 423.5 726.94 426.24 736.45 423.39 741.59"/><path class="cls-2" d="M458.58,751.63,455.8,755a9,9,0,0,1-5.67-5.43C448.2,745,444,735.21,444,735.21Z"/><path class="cls-2" d="M457,755.27,474.42,735,468.33,750S465.86,757.09,457,755.27Z"/><polygon class="cls-2" points="467.97 728.58 457.21 748.31 459.41 750.65 464.4 744.94 467.97 728.58"/><polygon class="cls-2" points="450.85 728.58 453.9 744.89 456.35 747.41 458.51 743.5 450.85 728.58"/><polygon class="cls-2" points="459.18 742.26 456.58 737.01 459.29 727.61 462.04 737.12 459.18 742.26"/><path class="cls-2" d="M492.43,751.63,489.65,755a8.94,8.94,0,0,1-5.66-5.43c-1.93-4.58-6.15-14.34-6.15-14.34Z"/><path class="cls-2" d="M490.84,755.27,508.27,735,502.19,750S499.71,757.09,490.84,755.27Z"/><polygon class="cls-2" points="501.83 728.58 491.06 748.31 493.26 750.65 498.25 744.94 501.83 728.58"/><polygon class="cls-2" points="484.71 728.58 487.76 744.89 490.21 747.41 492.37 743.5 484.71 728.58"/><polygon class="cls-2" points="493.04 742.26 490.43 737.01 493.15 727.61 495.89 737.12 493.04 742.26"/><path class="cls-2" d="M421.13,787.12l-2.78,3.34a8.94,8.94,0,0,1-5.67-5.42c-1.93-4.58-6.15-14.34-6.15-14.34Z"/><path class="cls-2" d="M419.53,790.76,437,770.45l-6.09,15.07S428.41,792.58,419.53,790.76Z"/><polygon class="cls-2" points="430.52 764.07 419.76 783.8 421.96 786.13 426.95 780.43 430.52 764.07"/><polygon class="cls-2" points="413.41 764.07 416.46 780.38 418.91 782.9 421.06 778.99 413.41 764.07"/><polygon class="cls-2" points="421.74 777.75 419.13 772.5 421.84 763.1 424.59 772.61 421.74 777.75"/><path class="cls-2" d="M456.92,787.8l-2.78,3.34a9,9,0,0,1-5.66-5.43c-1.93-4.58-6.15-14.34-6.15-14.34Z"/><path class="cls-2" d="M455.33,791.44l17.44-20.32-6.09,15.07S464.2,793.26,455.33,791.44Z"/><polygon class="cls-2" points="466.32 764.74 455.55 784.47 457.76 786.81 462.74 781.1 466.32 764.74"/><polygon class="cls-2" points="449.2 764.74 452.25 781.05 454.7 783.57 456.86 779.66 449.2 764.74"/><polygon class="cls-2" points="457.53 778.43 454.93 773.17 457.64 763.77 460.38 773.28 457.53 778.43"/><path class="cls-2" d="M490.78,787.8,488,791.14a9,9,0,0,1-5.67-5.43c-1.93-4.58-6.15-14.34-6.15-14.34Z"/><path class="cls-2" d="M489.19,791.44l17.43-20.32-6.08,15.07S498.06,793.26,489.19,791.44Z"/><polygon class="cls-2" points="500.17 764.74 489.41 784.47 491.61 786.81 496.6 781.1 500.17 764.74"/><polygon class="cls-2" points="483.06 764.74 486.11 781.05 488.56 783.57 490.71 779.66 483.06 764.74"/><polygon class="cls-2" points="491.39 778.43 488.78 773.17 491.49 763.77 494.24 773.28 491.39 778.43"/><path class="cls-2" d="M419.23,820.51l-2.78,3.34a8.91,8.91,0,0,1-5.66-5.42c-1.93-4.58-6.15-14.34-6.15-14.34Z"/><path class="cls-2" d="M417.64,824.15l17.43-20.31L429,818.91S426.51,826,417.64,824.15Z"/><polygon class="cls-2" points="428.63 797.46 417.86 817.19 420.06 819.53 425.05 813.82 428.63 797.46"/><polygon class="cls-2" points="411.51 797.46 414.56 813.77 417.01 816.29 419.17 812.38 411.51 797.46"/><polygon class="cls-2" points="419.84 811.14 417.23 805.89 419.95 796.49 422.69 806 419.84 811.14"/><path class="cls-2" d="M455,821.19l-2.78,3.34a9,9,0,0,1-5.67-5.43c-1.93-4.58-6.15-14.34-6.15-14.34Z"/><path class="cls-2" d="M453.43,824.83l17.44-20.32-6.09,15.07S462.31,826.65,453.43,824.83Z"/><polygon class="cls-2" points="464.42 798.13 453.66 817.86 455.86 820.2 460.85 814.49 464.42 798.13"/><polygon class="cls-2" points="447.3 798.13 450.36 814.45 452.8 816.96 454.96 813.05 447.3 798.13"/><polygon class="cls-2" points="455.63 811.82 453.03 806.56 455.74 797.16 458.49 806.67 455.63 811.82"/><path class="cls-2" d="M488.88,821.19l-2.78,3.34a9,9,0,0,1-5.66-5.43c-1.93-4.58-6.15-14.34-6.15-14.34Z"/><path class="cls-2" d="M487.29,824.83l17.43-20.32-6.08,15.07S496.16,826.65,487.29,824.83Z"/><polygon class="cls-2" points="498.28 798.13 487.51 817.86 489.72 820.2 494.7 814.49 498.28 798.13"/><polygon class="cls-2" points="481.16 798.13 484.21 814.45 486.66 816.96 488.82 813.05 481.16 798.13"/><polygon class="cls-2" points="489.49 811.82 486.88 806.56 489.6 797.16 492.35 806.67 489.49 811.82"/><path class="cls-2" d="M419.23,852.15l-2.78,3.34a8.94,8.94,0,0,1-5.66-5.43c-1.93-4.58-6.15-14.34-6.15-14.34Z"/><path class="cls-2" d="M417.64,855.79l17.43-20.32L429,850.55S426.51,857.61,417.64,855.79Z"/><polygon class="cls-2" points="428.63 829.09 417.86 848.82 420.06 851.16 425.05 845.45 428.63 829.09"/><polygon class="cls-2" points="411.51 829.09 414.56 845.41 417.01 847.92 419.17 844.01 411.51 829.09"/><polygon class="cls-2" points="419.84 842.78 417.23 837.52 419.95 828.12 422.69 837.63 419.84 842.78"/><path class="cls-2" d="M455,852.82l-2.78,3.34a8.94,8.94,0,0,1-5.67-5.42c-1.93-4.59-6.15-14.35-6.15-14.35Z"/><path class="cls-2" d="M453.43,856.46l17.44-20.31-6.09,15.07S462.31,858.28,453.43,856.46Z"/><polygon class="cls-2" points="464.42 829.76 453.66 849.49 455.86 851.83 460.85 846.12 464.42 829.76"/><polygon class="cls-2" points="447.3 829.76 450.36 846.08 452.8 848.6 454.96 844.68 447.3 829.76"/><polygon class="cls-2" points="455.63 843.45 453.03 838.19 455.74 828.8 458.49 838.3 455.63 843.45"/><path class="cls-2" d="M488.88,852.82l-2.78,3.34a8.93,8.93,0,0,1-5.66-5.42c-1.93-4.59-6.15-14.35-6.15-14.35Z"/><path class="cls-2" d="M487.29,856.46l17.43-20.31-6.08,15.07S496.16,858.28,487.29,856.46Z"/><polygon class="cls-2" points="498.28 829.76 487.51 849.49 489.72 851.83 494.7 846.12 498.28 829.76"/><polygon class="cls-2" points="481.16 829.76 484.21 846.08 486.66 848.6 488.82 844.68 481.16 829.76"/><polygon class="cls-2" points="489.49 843.45 486.88 838.19 489.6 828.8 492.35 838.3 489.49 843.45"/><path class="cls-2" d="M530.2,711.75l-2.79,3.35a9,9,0,0,1-5.66-5.43c-1.93-4.58-6.15-14.34-6.15-14.34Z"/><path class="cls-2" d="M528.6,715.39,546,695.08,540,710.15S537.48,717.21,528.6,715.39Z"/><polygon class="cls-2" points="539.59 688.7 528.83 708.43 531.03 710.77 536.01 705.06 539.59 688.7"/><polygon class="cls-2" points="522.47 688.7 525.52 705.01 527.97 707.53 530.13 703.62 522.47 688.7"/><polygon class="cls-2" points="530.8 702.38 528.2 697.13 530.91 687.73 533.66 697.24 530.8 702.38"/><path class="cls-2" d="M566,712.43l-2.78,3.34a9,9,0,0,1-5.67-5.43c-1.93-4.58-6.15-14.34-6.15-14.34Z"/><path class="cls-2" d="M564.39,716.07l17.44-20.32-6.09,15.08S573.27,717.89,564.39,716.07Z"/><polygon class="cls-2" points="575.38 689.37 564.62 709.1 566.82 711.44 571.81 705.73 575.38 689.37"/><polygon class="cls-2" points="558.27 689.37 561.32 705.69 563.77 708.2 565.92 704.29 558.27 689.37"/><polygon class="cls-2" points="566.6 703.06 563.99 697.8 566.7 688.4 569.45 697.91 566.6 703.06"/><path class="cls-2" d="M599.85,712.43l-2.79,3.34a9,9,0,0,1-5.66-5.43c-1.93-4.58-6.15-14.34-6.15-14.34Z"/><path class="cls-2" d="M598.25,716.07l17.44-20.32-6.09,15.08S607.13,717.89,598.25,716.07Z"/><polygon class="cls-2" points="609.24 689.37 598.48 709.1 600.68 711.44 605.66 705.73 609.24 689.37"/><polygon class="cls-2" points="592.12 689.37 595.17 705.69 597.62 708.2 599.78 704.29 592.12 689.37"/><polygon class="cls-2" points="600.45 703.06 597.85 697.8 600.56 688.4 603.31 697.91 600.45 703.06"/><path class="cls-2" d="M528.26,750.29l-2.79,3.34a8.93,8.93,0,0,1-5.66-5.42c-1.93-4.58-6.15-14.35-6.15-14.35Z"/><path class="cls-2" d="M526.66,753.93l17.44-20.31L538,748.69S535.54,755.75,526.66,753.93Z"/><polygon class="cls-2" points="537.65 727.23 526.88 746.97 529.09 749.3 534.08 743.6 537.65 727.23"/><polygon class="cls-2" points="520.53 727.23 523.58 743.55 526.03 746.07 528.19 742.16 520.53 727.23"/><polygon class="cls-2" points="528.86 740.92 526.26 735.66 528.97 726.27 531.72 735.78 528.86 740.92"/><path class="cls-2" d="M564.05,751l-2.78,3.34a8.94,8.94,0,0,1-5.67-5.42c-1.93-4.58-6.15-14.35-6.15-14.35Z"/><path class="cls-2" d="M562.46,754.6l17.43-20.31-6.08,15.07S571.33,756.42,562.46,754.6Z"/><polygon class="cls-2" points="573.44 727.9 562.68 747.64 564.88 749.97 569.87 744.27 573.44 727.9"/><polygon class="cls-2" points="556.33 727.9 559.38 744.22 561.83 746.74 563.98 742.83 556.33 727.9"/><polygon class="cls-2" points="564.66 741.59 562.05 736.34 564.76 726.94 567.51 736.45 564.66 741.59"/><path class="cls-2" d="M597.91,751l-2.79,3.34a8.93,8.93,0,0,1-5.66-5.42c-1.93-4.58-6.15-14.35-6.15-14.35Z"/><path class="cls-2" d="M596.31,754.6l17.44-20.31-6.09,15.07S605.19,756.42,596.31,754.6Z"/><polygon class="cls-2" points="607.3 727.9 596.54 747.64 598.74 749.97 603.73 744.27 607.3 727.9"/><polygon class="cls-2" points="590.18 727.9 593.23 744.22 595.68 746.74 597.84 742.83 590.18 727.9"/><polygon class="cls-2" points="598.51 741.59 595.91 736.34 598.62 726.94 601.37 736.45 598.51 741.59"/><path class="cls-2" d="M526.6,786.45l-2.78,3.34a8.91,8.91,0,0,1-5.66-5.42C516.23,779.79,512,770,512,770Z"/><path class="cls-2" d="M525,790.09l17.43-20.31-6.08,15.07S533.88,791.91,525,790.09Z"/><polygon class="cls-2" points="536 763.39 525.23 783.13 527.43 785.46 532.42 779.76 536 763.39"/><polygon class="cls-2" points="518.88 763.39 521.93 779.71 524.38 782.23 526.54 778.32 518.88 763.39"/><polygon class="cls-2" points="527.21 777.08 524.6 771.83 527.32 762.43 530.06 771.94 527.21 777.08"/><path class="cls-2" d="M562.4,787.12l-2.78,3.34A8.94,8.94,0,0,1,554,785c-1.93-4.58-6.15-14.34-6.15-14.34Z"/><path class="cls-2" d="M560.8,790.76l17.44-20.31-6.09,15.07S569.68,792.58,560.8,790.76Z"/><polygon class="cls-2" points="571.79 764.07 561.03 783.8 563.23 786.13 568.22 780.43 571.79 764.07"/><polygon class="cls-2" points="554.67 764.07 557.72 780.38 560.17 782.9 562.33 778.99 554.67 764.07"/><polygon class="cls-2" points="563 777.75 560.4 772.5 563.11 763.1 565.86 772.61 563 777.75"/><path class="cls-2" d="M596.25,787.12l-2.78,3.34a8.91,8.91,0,0,1-5.66-5.42c-1.93-4.58-6.15-14.34-6.15-14.34Z"/><path class="cls-2" d="M594.66,790.76l17.43-20.31L606,785.52S603.53,792.58,594.66,790.76Z"/><polygon class="cls-2" points="605.65 764.07 594.88 783.8 597.09 786.13 602.07 780.43 605.65 764.07"/><polygon class="cls-2" points="588.53 764.07 591.58 780.38 594.03 782.9 596.19 778.99 588.53 764.07"/><polygon class="cls-2" points="596.86 777.75 594.25 772.5 596.97 763.1 599.71 772.61 596.86 777.75"/><path class="cls-2" d="M524.71,819.84l-2.79,3.34a8.93,8.93,0,0,1-5.66-5.42c-1.93-4.58-6.15-14.35-6.15-14.35Z"/><path class="cls-2" d="M523.11,823.48l17.44-20.31-6.09,15.07S532,825.3,523.11,823.48Z"/><polygon class="cls-2" points="534.1 796.78 523.34 816.52 525.54 818.85 530.53 813.15 534.1 796.78"/><polygon class="cls-2" points="516.98 796.78 520.03 813.1 522.48 815.62 524.64 811.71 516.98 796.78"/><polygon class="cls-2" points="525.31 810.47 522.71 805.22 525.42 795.82 528.17 805.33 525.31 810.47"/><path class="cls-2" d="M560.5,820.51l-2.78,3.34a8.94,8.94,0,0,1-5.67-5.42c-1.93-4.58-6.14-14.34-6.14-14.34Z"/><path class="cls-2" d="M558.91,824.15l17.43-20.31-6.08,15.07S567.78,826,558.91,824.15Z"/><polygon class="cls-2" points="569.89 797.46 559.13 817.19 561.33 819.53 566.32 813.82 569.89 797.46"/><polygon class="cls-2" points="552.78 797.46 555.83 813.77 558.28 816.29 560.43 812.38 552.78 797.46"/><polygon class="cls-2" points="561.11 811.14 558.5 805.89 561.22 796.49 563.96 806 561.11 811.14"/><path class="cls-2" d="M594.36,820.51l-2.78,3.34a8.94,8.94,0,0,1-5.67-5.42c-1.93-4.58-6.15-14.34-6.15-14.34Z"/><path class="cls-2" d="M592.76,824.15l17.44-20.31-6.09,15.07S601.64,826,592.76,824.15Z"/><polygon class="cls-2" points="603.75 797.46 592.99 817.19 595.19 819.53 600.18 813.82 603.75 797.46"/><polygon class="cls-2" points="586.63 797.46 589.68 813.77 592.13 816.29 594.29 812.38 586.63 797.46"/><polygon class="cls-2" points="594.96 811.14 592.36 805.89 595.07 796.49 597.82 806 594.96 811.14"/><path class="cls-2" d="M524.71,851.47l-2.79,3.35a9,9,0,0,1-5.66-5.43c-1.93-4.58-6.15-14.34-6.15-14.34Z"/><path class="cls-2" d="M523.11,855.11l17.44-20.31-6.09,15.07S532,856.93,523.11,855.11Z"/><polygon class="cls-2" points="534.1 828.42 523.34 848.15 525.54 850.49 530.53 844.78 534.1 828.42"/><polygon class="cls-2" points="516.98 828.42 520.03 844.73 522.48 847.25 524.64 843.34 516.98 828.42"/><polygon class="cls-2" points="525.31 842.11 522.71 836.85 525.42 827.45 528.17 836.96 525.31 842.11"/><path class="cls-2" d="M560.5,852.15l-2.78,3.34a9,9,0,0,1-5.67-5.43c-1.93-4.58-6.14-14.34-6.14-14.34Z"/><path class="cls-2" d="M558.91,855.79l17.43-20.32-6.08,15.08S567.78,857.61,558.91,855.79Z"/><polygon class="cls-2" points="569.89 829.09 559.13 848.82 561.33 851.16 566.32 845.45 569.89 829.09"/><polygon class="cls-2" points="552.78 829.09 555.83 845.41 558.28 847.92 560.43 844.01 552.78 829.09"/><polygon class="cls-2" points="561.11 842.78 558.5 837.52 561.22 828.12 563.96 837.63 561.11 842.78"/><path class="cls-2" d="M594.36,852.15l-2.78,3.34a9,9,0,0,1-5.67-5.43c-1.93-4.58-6.15-14.34-6.15-14.34Z"/><path class="cls-2" d="M592.76,855.79l17.44-20.32-6.09,15.08S601.64,857.61,592.76,855.79Z"/><polygon class="cls-2" points="603.75 829.09 592.99 848.82 595.19 851.16 600.18 845.45 603.75 829.09"/><polygon class="cls-2" points="586.63 829.09 589.68 845.41 592.13 847.92 594.29 844.01 586.63 829.09"/><polygon class="cls-2" points="594.96 842.78 592.36 837.52 595.07 828.12 597.82 837.63 594.96 842.78"/><path class="cls-2" d="M682.45,780.9l-2.78,3.34a8.91,8.91,0,0,1-5.66-5.42c-1.93-4.59-6.15-14.35-6.15-14.35Z"/><path class="cls-2" d="M680.86,784.54l17.43-20.31-6.08,15.07S689.73,786.36,680.86,784.54Z"/><polygon class="cls-2" points="691.85 757.84 681.08 777.57 683.28 779.91 688.27 774.2 691.85 757.84"/><polygon class="cls-2" points="674.73 757.84 677.78 774.16 680.23 776.67 682.39 772.77 674.73 757.84"/><polygon class="cls-2" points="683.06 771.53 680.45 766.27 683.17 756.88 685.91 766.38 683.06 771.53"/><path class="cls-2" d="M718.25,781.57l-2.78,3.34a8.94,8.94,0,0,1-5.67-5.42c-1.93-4.58-6.15-14.35-6.15-14.35Z"/><path class="cls-2" d="M716.65,785.21l17.44-20.31L728,780S725.53,787,716.65,785.21Z"/><polygon class="cls-2" points="727.64 758.51 716.88 778.25 719.08 780.58 724.07 774.88 727.64 758.51"/><polygon class="cls-2" points="710.52 758.51 713.57 774.83 716.02 777.35 718.18 773.44 710.52 758.51"/><polygon class="cls-2" points="718.85 772.2 716.25 766.94 718.96 757.55 721.71 767.06 718.85 772.2"/><path class="cls-2" d="M752.1,781.57l-2.78,3.34a8.91,8.91,0,0,1-5.66-5.42c-1.93-4.58-6.15-14.35-6.15-14.35Z"/><path class="cls-2" d="M750.51,785.21l17.43-20.31L761.86,780S759.38,787,750.51,785.21Z"/><polygon class="cls-2" points="761.5 758.51 750.73 778.25 752.93 780.58 757.92 774.88 761.5 758.51"/><polygon class="cls-2" points="744.38 758.51 747.43 774.83 749.88 777.35 752.04 773.44 744.38 758.51"/><polygon class="cls-2" points="752.71 772.2 750.1 766.94 752.82 757.55 755.56 767.06 752.71 772.2"/><path class="cls-2" d="M680.56,814.29l-2.79,3.34a8.93,8.93,0,0,1-5.66-5.42c-1.93-4.58-6.15-14.35-6.15-14.35Z"/><path class="cls-2" d="M679,817.93l17.44-20.31-6.09,15.07S687.84,819.75,679,817.93Z"/><polygon class="cls-2" points="689.95 791.23 679.19 810.96 681.39 813.3 686.38 807.59 689.95 791.23"/><polygon class="cls-2" points="672.83 791.23 675.88 807.55 678.33 810.07 680.49 806.16 672.83 791.23"/><polygon class="cls-2" points="681.16 804.92 678.56 799.66 681.27 790.27 684.02 799.77 681.16 804.92"/><path class="cls-2" d="M716.35,815l-2.78,3.34a8.94,8.94,0,0,1-5.67-5.42c-1.93-4.58-6.14-14.35-6.14-14.35Z"/><path class="cls-2" d="M714.76,818.6l17.43-20.31-6.08,15.07S723.63,820.42,714.76,818.6Z"/><polygon class="cls-2" points="725.74 791.9 714.98 811.64 717.18 813.97 722.17 808.27 725.74 791.9"/><polygon class="cls-2" points="708.63 791.9 711.68 808.22 714.13 810.74 716.28 806.83 708.63 791.9"/><polygon class="cls-2" points="716.96 805.59 714.35 800.34 717.07 790.94 719.81 800.45 716.96 805.59"/><path class="cls-2" d="M750.21,815l-2.78,3.34a8.94,8.94,0,0,1-5.67-5.42c-1.93-4.58-6.15-14.35-6.15-14.35Z"/><path class="cls-2" d="M748.61,818.6l17.44-20.31L760,813.36S757.49,820.42,748.61,818.6Z"/><polygon class="cls-2" points="759.6 791.9 748.84 811.64 751.04 813.97 756.03 808.27 759.6 791.9"/><polygon class="cls-2" points="742.48 791.9 745.53 808.22 747.98 810.74 750.14 806.83 742.48 791.9"/><polygon class="cls-2" points="750.81 805.59 748.21 800.34 750.92 790.94 753.67 800.45 750.81 805.59"/><path class="cls-2" d="M680.56,845.92l-2.79,3.34a8.93,8.93,0,0,1-5.66-5.42c-1.93-4.58-6.15-14.35-6.15-14.35Z"/><path class="cls-2" d="M679,849.56l17.44-20.31-6.09,15.07S687.84,851.38,679,849.56Z"/><polygon class="cls-2" points="689.95 822.86 679.19 842.6 681.39 844.93 686.38 839.23 689.95 822.86"/><polygon class="cls-2" points="672.83 822.86 675.88 839.18 678.33 841.7 680.49 837.79 672.83 822.86"/><polygon class="cls-2" points="681.16 836.55 678.56 831.29 681.27 821.9 684.02 831.41 681.16 836.55"/><path class="cls-2" d="M716.35,846.59l-2.78,3.35a9,9,0,0,1-5.67-5.43c-1.93-4.58-6.14-14.34-6.14-14.34Z"/><path class="cls-2" d="M714.76,850.23l17.43-20.31L726.11,845S723.63,852.05,714.76,850.23Z"/><polygon class="cls-2" points="725.74 823.54 714.98 843.27 717.18 845.61 722.17 839.9 725.74 823.54"/><polygon class="cls-2" points="708.63 823.54 711.68 839.85 714.13 842.37 716.28 838.46 708.63 823.54"/><polygon class="cls-2" points="716.96 837.23 714.35 831.97 717.07 822.57 719.81 832.08 716.96 837.23"/><path class="cls-2" d="M750.21,846.59l-2.78,3.35a9,9,0,0,1-5.67-5.43c-1.93-4.58-6.15-14.34-6.15-14.34Z"/><path class="cls-2" d="M748.61,850.23l17.44-20.31L760,845S757.49,852.05,748.61,850.23Z"/><polygon class="cls-2" points="759.6 823.54 748.84 843.27 751.04 845.61 756.03 839.9 759.6 823.54"/><polygon class="cls-2" points="742.48 823.54 745.53 839.85 747.98 842.37 750.14 838.46 742.48 823.54"/><polygon class="cls-2" points="750.81 837.23 748.21 831.97 750.92 822.57 753.67 832.08 750.81 837.23"/><path class="cls-2" d="M787.31,782.79l-2.78,3.34a9,9,0,0,1-5.67-5.43c-1.93-4.58-6.15-14.34-6.15-14.34Z"/><path class="cls-2" d="M785.71,786.43l17.44-20.32-6.09,15.07S794.59,788.25,785.71,786.43Z"/><polygon class="cls-2" points="796.7 759.73 785.94 779.46 788.14 781.8 793.13 776.09 796.7 759.73"/><polygon class="cls-2" points="779.59 759.73 782.64 776.05 785.09 778.56 787.24 774.65 779.59 759.73"/><polygon class="cls-2" points="787.92 773.42 785.31 768.16 788.02 758.76 790.77 768.27 787.92 773.42"/><path class="cls-2" d="M823.1,783.46l-2.78,3.34a8.93,8.93,0,0,1-5.66-5.43c-1.93-4.58-6.15-14.34-6.15-14.34Z"/><path class="cls-2" d="M821.51,787.1l17.43-20.31-6.08,15.07S830.38,788.92,821.51,787.1Z"/><polygon class="cls-2" points="832.5 760.4 821.73 780.13 823.94 782.47 828.92 776.76 832.5 760.4"/><polygon class="cls-2" points="815.38 760.4 818.43 776.72 820.88 779.23 823.04 775.33 815.38 760.4"/><polygon class="cls-2" points="823.71 774.09 821.11 768.83 823.82 759.43 826.57 768.94 823.71 774.09"/><path class="cls-2" d="M857,783.46l-2.78,3.34a8.94,8.94,0,0,1-5.67-5.43c-1.93-4.58-6.15-14.34-6.15-14.34Z"/><path class="cls-2" d="M855.37,787.1l17.43-20.31-6.08,15.07S864.24,788.92,855.37,787.1Z"/><polygon class="cls-2" points="866.35 760.4 855.59 780.13 857.79 782.47 862.78 776.76 866.35 760.4"/><polygon class="cls-2" points="849.24 760.4 852.29 776.72 854.74 779.23 856.89 775.33 849.24 760.4"/><polygon class="cls-2" points="857.57 774.09 854.96 768.83 857.67 759.43 860.42 768.94 857.57 774.09"/><path class="cls-2" d="M785.41,816.18l-2.78,3.34a8.94,8.94,0,0,1-5.66-5.43c-1.93-4.58-6.15-14.34-6.15-14.34Z"/><path class="cls-2" d="M783.82,819.82l17.43-20.32-6.08,15.07S792.69,821.64,783.82,819.82Z"/><polygon class="cls-2" points="794.81 793.12 784.04 812.85 786.25 815.19 791.23 809.48 794.81 793.12"/><polygon class="cls-2" points="777.69 793.12 780.74 809.44 783.19 811.95 785.35 808.04 777.69 793.12"/><polygon class="cls-2" points="786.02 806.81 783.41 801.55 786.13 792.15 788.87 801.66 786.02 806.81"/><path class="cls-2" d="M821.21,816.85l-2.78,3.34a8.94,8.94,0,0,1-5.67-5.43c-1.93-4.58-6.15-14.34-6.15-14.34Z"/><path class="cls-2" d="M819.61,820.49l17.44-20.31L831,815.25S828.49,822.31,819.61,820.49Z"/><polygon class="cls-2" points="830.6 793.79 819.84 813.52 822.04 815.86 827.03 810.15 830.6 793.79"/><polygon class="cls-2" points="813.48 793.79 816.53 810.11 818.98 812.63 821.14 808.72 813.48 793.79"/><polygon class="cls-2" points="821.82 807.48 819.21 802.22 821.92 792.83 824.67 802.33 821.82 807.48"/><path class="cls-2" d="M855.06,816.85l-2.78,3.34a8.93,8.93,0,0,1-5.66-5.43c-1.93-4.58-6.15-14.34-6.15-14.34Z"/><path class="cls-2" d="M853.47,820.49l17.43-20.31-6.08,15.07S862.34,822.31,853.47,820.49Z"/><polygon class="cls-2" points="864.46 793.79 853.69 813.52 855.9 815.86 860.88 810.15 864.46 793.79"/><polygon class="cls-2" points="847.34 793.79 850.39 810.11 852.84 812.63 855 808.72 847.34 793.79"/><polygon class="cls-2" points="855.67 807.48 853.06 802.22 855.78 792.83 858.52 802.33 855.67 807.48"/><path class="cls-2" d="M887.4,815.63,884.61,819a8.93,8.93,0,0,1-5.66-5.42c-1.93-4.58-6.15-14.34-6.15-14.34Z"/><path class="cls-2" d="M885.8,819.27,903.24,799,897.15,814S894.68,821.09,885.8,819.27Z"/><polygon class="cls-2" points="896.79 792.58 886.03 812.31 888.23 814.64 893.22 808.94 896.79 792.58"/><polygon class="cls-2" points="879.67 792.58 882.72 808.89 885.17 811.41 887.33 807.5 879.67 792.58"/><polygon class="cls-2" points="888 806.26 885.4 801.01 888.11 791.61 890.86 801.12 888 806.26"/><path class="cls-2" d="M888.24,848.48l-2.78,3.34a8.94,8.94,0,0,1-5.67-5.42c-1.93-4.58-6.14-14.35-6.14-14.35Z"/><path class="cls-2" d="M886.65,852.12l17.43-20.31L898,846.88S895.52,853.94,886.65,852.12Z"/><polygon class="cls-2" points="897.63 825.42 886.87 845.16 889.07 847.49 894.06 841.79 897.63 825.42"/><polygon class="cls-2" points="880.52 825.42 883.57 841.74 886.02 844.26 888.17 840.35 880.52 825.42"/><polygon class="cls-2" points="888.85 839.11 886.24 833.85 888.96 824.46 891.7 833.97 888.85 839.11"/><path class="cls-2" d="M890.23,782.24l-2.78,3.34a8.93,8.93,0,0,1-5.66-5.42c-1.93-4.58-6.15-14.34-6.15-14.34Z"/><path class="cls-2" d="M888.64,785.88l17.43-20.31L900,780.64S897.51,787.7,888.64,785.88Z"/><polygon class="cls-2" points="899.63 759.18 888.86 778.92 891.07 781.25 896.05 775.55 899.63 759.18"/><polygon class="cls-2" points="882.51 759.18 885.56 775.5 888.01 778.02 890.17 774.11 882.51 759.18"/><polygon class="cls-2" points="890.84 772.87 888.24 767.62 890.95 758.22 893.69 767.73 890.84 772.87"/><path class="cls-2" d="M785.41,847.81l-2.78,3.34a8.91,8.91,0,0,1-5.66-5.42c-1.93-4.59-6.15-14.35-6.15-14.35Z"/><path class="cls-2" d="M783.82,851.45l17.43-20.31-6.08,15.07S792.69,853.27,783.82,851.45Z"/><polygon class="cls-2" points="794.81 824.75 784.04 844.48 786.25 846.82 791.23 841.11 794.81 824.75"/><polygon class="cls-2" points="777.69 824.75 780.74 841.07 783.19 843.59 785.35 839.68 777.69 824.75"/><polygon class="cls-2" points="786.02 838.44 783.41 833.18 786.13 823.79 788.87 833.29 786.02 838.44"/><path class="cls-2" d="M821.21,848.48l-2.78,3.34a8.94,8.94,0,0,1-5.67-5.42c-1.93-4.58-6.15-14.35-6.15-14.35Z"/><path class="cls-2" d="M819.61,852.12l17.44-20.31L831,846.88S828.49,853.94,819.61,852.12Z"/><polygon class="cls-2" points="830.6 825.42 819.84 845.16 822.04 847.49 827.03 841.79 830.6 825.42"/><polygon class="cls-2" points="813.48 825.42 816.53 841.74 818.98 844.26 821.14 840.35 813.48 825.42"/><polygon class="cls-2" points="821.82 839.11 819.21 833.85 821.92 824.46 824.67 833.97 821.82 839.11"/><path class="cls-2" d="M855.06,848.48l-2.78,3.34a8.93,8.93,0,0,1-5.66-5.42c-1.93-4.58-6.15-14.35-6.15-14.35Z"/><path class="cls-2" d="M853.47,852.12l17.43-20.31-6.08,15.07S862.34,853.94,853.47,852.12Z"/><polygon class="cls-2" points="864.46 825.42 853.69 845.16 855.9 847.49 860.88 841.79 864.46 825.42"/><polygon class="cls-2" points="847.34 825.42 850.39 841.74 852.84 844.26 855 840.35 847.34 825.42"/><polygon class="cls-2" points="855.67 839.11 853.06 833.85 855.78 824.46 858.52 833.97 855.67 839.11"/></svg>