<svg id="Capa_1" data-name="Capa 1" xmlns="http://www.w3.org/2000/svg" viewBox="0 0 1080 1080"><defs><style>.cls-1{fill:#f6b818;}</style></defs><path class="cls-1" d="M600.88,210.16c19.36-13.1,37.87-24.9,55.64-37.83s34.75-27.23,52.4-40.45c2.86-2.15,8.54-3.9,10.9-2.37,13.71,8.89,27.77,17.67,39.85,28.75,10.24,9.38,11.63,23.23,4.85,36-6.58,12.35-13.31,25.24-22.61,35.11-6.83,7.25-17.52,12.51-27.21,14.3-25.59,4.75-50.81,2.1-74.24-11.49C628,224.89,615.22,218.1,600.88,210.16Z"/><path class="cls-1" d="M825.69,464.21c-39.76,24.25-79.5,48.56-119.38,72.59-2.74,1.65-7.15,2.54-9.93,1.42-46.16-18.6-92.18-37.58-138.24-56.48l.42-3.62c21.21-8.7,42.48-17.24,63.61-26.14,15.79-6.64,31.66-13.17,47-20.85,9.74-4.88,18.32-4.35,28.69-1.65,39.76,10.34,79.87,19.15,119.85,28.55,2.22.52,4.4,1.22,6.6,1.83Zm-77.39-2.09c-34-24.2-101.86-18.6-136.41,10.86C648.22,504.84,715.74,509.17,748.3,462.12Z"/><path class="cls-1" d="M444.47,120.25c11.06,9.93,20.61,18.84,30.56,27.21,3.05,2.56,7.21,3.63,10.86,5.38,1.54-3.83,3.61-7.52,4.53-11.51,4.18-18.11,8-36.32,11.79-53.5,14.09,14.2,32.06,25,39,41.12,9.07,21,24.37,20.79,39.82,23.65,4.45.82,11.67-2.36,14.42-6.23,13.15-18.47,25.19-37.82,38.63-58.38,5.83,13.59,12.69,28.57,18.47,44,1,2.58-1.8,9-4.44,10.47q-59.07,32.81-118.76,64.34c-3.43,1.8-9.83.55-13.43-1.75-23.17-14.83-45.77-30.67-69-45.45-6.87-4.38-8.83-9.18-7-16.91C441.62,136,442.72,129.14,444.47,120.25Z"/><path class="cls-1" d="M533.28,615.31c-43.61,13.42-85.82,26.56-128.16,39.18a17.18,17.18,0,0,1-12.71-1.87c-52.13-32.9-104-66.17-156-99.35.42-1.2.84-2.39,1.27-3.59,1.57-.35,3.15-1,4.71-1,46,1.83,91.23-3.83,136.07-14.36,4.13-1,9.48-.57,13.18,1.44,46,25,91.84,50.37,137.69,75.69C530,611.82,530.44,612.53,533.28,615.31ZM298.82,562.46c15.36,17.77,29.69,34.88,44.6,51.42,12,13.34,27.55,22.75,44.65,19,31.85-6.9,63.05-17.13,96.54-26.54-4.09-2.56-6.24-4.07-8.51-5.31-25.58-14-53.42-23.6-74.63-46-4.8-5.07-14-7-21.37-7.46s-15.16,2.5-22.75,3.92C337.29,555.31,317.23,559,298.82,562.46Z"/><path class="cls-1" d="M681.48,551.63c-41.79,17.87-82.22,35.24-122.76,52.3-2.44,1-6.21.47-8.69-.8q-69.73-36-139.3-72.33l.63-3.75c16.29-4.89,32.68-9.41,48.84-14.74,22.11-7.28,44-15.31,66.11-22.65,4.21-1.4,9.63-2.92,13.29-1.32C586,508.65,632.18,529.52,681.48,551.63ZM444.94,533.22c16.21,9.34,31.29,16.66,45,26.21,21.51,15,45.61,13.4,69.39,14.43,4.39.18,9.69-1,13.19-3.6,14.14-10.5,27.73-21.8,39.69-31.34-14.24-8.13-30.48-16.42-45.74-26.38-17.89-11.69-36.37-13.27-55.53-6.08C489.25,514.59,468,523.82,444.94,533.22Z"/><path class="cls-1" d="M267.06,427.9c38.14-9.32,74.6-18.31,111.13-27,3.41-.81,7.92-1.08,10.74.6,42,25,83.88,50.46,126.67,76.34-26.76,8.7-53.51,17.6-80.4,26-10.33,3.24-21.38,4.29-31.35,8.39-9.43,3.88-16.65,2.32-24.59-3.36-34.86-25-70-49.59-104.93-74.41C271.91,432.77,269.87,430.47,267.06,427.9Zm110.78-16.37-76.6,19.87c19.49,23,42.37,37.61,69.71,45.41,28.37,8.09,53.73,1.45,79.85-16.85Z"/><path class="cls-1" d="M421.72,668.1c43-14.58,85.28-29,127.68-43.16a15.24,15.24,0,0,1,9.81.51c45.73,18.67,91.38,37.58,138.1,56.87-14.93,6.24-30,13-45.44,18.9Q612.11,716.5,572,730.82c-4.08,1.46-9.53,2.32-13.24.68-44.9-20-89.59-40.41-134.3-60.79C423.5,670.26,422.79,669.13,421.72,668.1Zm51.84-4.72c51.47,55.72,122.94,65,158.16,13.67-17.23-8.16-35.34-14.77-51.43-24.95-14.56-9.21-27.7-14.05-43.34-4.67-2.57,1.54-6,1.53-9,2.28Z"/><path class="cls-1" d="M310.45,642.17c-.18-.76-.18-2-.59-2.17-38.5-16.43-65.36-50.65-100-73.11-6.76-4.39-19.44-9.31-9.48-23.11a21.52,21.52,0,0,1,3.47,1.54Q288.46,604.45,373.44,664c-28.84,6.45-58.72,13.28-88.68,19.77-11,2.37-22.35,3.06-33.15,6.08-14.85,4.15-28.12,1.37-40.69-7-2.47-1.66-5.38-3.87-6.38-6.54-12.68-33.76-21-68.22-12.34-105.07,1.44,10.37,2.81,20.75,4.31,31.11,7.08,48.61,34.18,55.64,72,51.49C282.72,652.21,296.48,646.17,310.45,642.17Z"/><path class="cls-1" d="M845.42,603.17c-41.26,22.85-79.87,44.3-118.6,65.51a11.72,11.72,0,0,1-8.66.83c-47.07-16.83-94.06-33.93-141.07-51,.16-1.42.31-2.83.47-4.25,16.58-7.12,33.29-13.94,49.71-21.44,22.71-10.37,45.11-21.48,67.86-31.74,4.26-1.92,10-3,14.27-1.71,43.17,12.71,86.18,26,129.22,39.17C839.67,598.88,840.54,599.82,845.42,603.17Zm-216.59,8c25.87,14,49.33,33.91,82.47,28.19,29.75-5.13,60.43-4.75,81.54-33.13C736.36,565.14,667.18,568.91,628.83,611.17Z"/><path class="cls-1" d="M591.65,742.38C629.46,727,667.48,712.26,705,696.06c13.15-5.69,24.75-6.94,38.81-3,40.33,11.33,81.38,19.08,123.55,17.87.31,1.08.63,2.16.94,3.24-21.77,12-43.2,24.81-65.4,35.89-22,11-44.74,20.43-67.28,30.21-3.71,1.61-8.44,2.93-12.11,1.94-44.12-11.92-88.12-24.31-132.16-36.57C591.42,744.56,591.53,743.47,591.65,742.38Zm76.12-9.78c11.12,8.94,21.09,17.13,31.22,25.09,13,10.19,27.67,13.23,42.72,7.55,22.29-8.42,40.16-23.92,56.25-43-15.32-4.57-29.88-9.92-44.86-13.09-16.14-3.43-32.89-7.77-48.78,1.14C691.81,717.32,679.76,725.24,667.77,732.6Z"/><path class="cls-1" d="M796.88,346.14c-31,17.28-60.34,32.61-88.67,49.81C689.79,407.14,673,407.31,653.92,398c-36.1-17.57-72.95-33.43-112.12-51.21C581.17,330.12,617,314.85,653,299.88c2.44-1,5.89-.41,8.57.46q64.29,20.88,128.48,42.1C791.42,342.9,792.65,343.83,796.88,346.14ZM592.79,344.6c17.59,12.73,32.21,25.12,48.44,34.34,8.85,5,21.95,9.16,30.51,5.93,24.39-9.19,47.42-22.37,71-34,.06-1.43.11-2.85.16-4.28-27.61-9.82-55-20.34-83-29-7.42-2.31-17.29-1-24.53,2.29C621.39,326.3,608.45,335.31,592.79,344.6Z"/><path class="cls-1" d="M597.12,848.71c44.89-16.46,86.45-31.71,128-46.89,2.11-.77,4.6-1.56,6.67-1.11,30.58,6.57,61.12,13.35,91.63,20.07-1.56,19.72-25.84,50.45-42.35,57.75-22.52,10-44.1,10.09-67.43,2.73C676,869.39,637.7,859.9,597.12,848.71ZM793.4,825.79c-40.52-18.71-109.6-8.79-124.21,15.38,17.75,6.68,35.84,13.52,54,20.29,13,4.86,25.43,3.16,36.29-5.76C770.7,846.48,781.37,836.45,793.4,825.79Z"/><path class="cls-1" d="M274.29,299.94c42.66-9.77,82-18.82,121.34-27.66a10.47,10.47,0,0,1,7.46,1.12q50.18,33.3,100.1,67c.51.34.6,1.38,1.56,3.78-37.66,12.21-75.11,24.42-112.64,36.35a9.6,9.6,0,0,1-7.49-1.38C348.4,353.34,312.31,327.31,274.29,299.94Zm36.88,9.79c6.95,7.09,12.35,15.76,20,19.79,26.43,14,53.13,28.84,84.43,15.59,5.6-2.38,12.07-2.85,18.21-3.41,10.72-1,21.49-1.35,32.85-2-13-10.19-25.9-18.75-37.09-29.3C395.82,278.59,346.52,288.15,311.17,309.73Z"/><path class="cls-1" d="M659.25,419.77c-39.29,15.9-78.55,31.88-117.92,47.56a11.34,11.34,0,0,1-8.7-.59q-63-35.06-125.82-70.58c.28-1.16.55-2.33.83-3.5,21.08-7,42.2-13.79,63.23-20.92,17.66-6,35.57-18.11,52.71-16.91s33.29,15.79,50.06,24.1q21,10.43,42.47,19.84c14.25,6.3,28.72,12.05,43.1,18C659.22,417.79,659.24,418.78,659.25,419.77ZM432,401.85c24.07,13.21,45.41,27.52,68.53,37,36.1,14.84,78.86,1.93,103.76-28.12a10.32,10.32,0,0,0-2.47-2.08c-25.73-10.07-51.62-19.69-73.54-38.09-1.74-1.47-6.18-.05-9.12.88-9.93,3.12-19.59,7.4-29.66,9.8C470.85,385.73,451.11,386.42,432,401.85Z"/><path class="cls-1" d="M537.51,743.08c-31.95,9.47-64.66,18.34-96.81,29-18,6-33.8,4.72-51-3.82-41.61-20.69-84-39.68-126-59.38a45.36,45.36,0,0,1-4.56-2.82c44.95-10.6,89.26-21.07,133.6-31.42a10.79,10.79,0,0,1,6.73.44C445.37,697.6,491.19,720.24,537.51,743.08ZM306.05,713c26,14.9,50.28,28.07,73.83,42.52,15.15,9.28,30,12.71,47.17,7.22,19.26-6.15,39.41-9.57,56.16-23.43-10.47-6.55-20.74-11.63-29.55-18.72C413.32,688.1,369.55,687.86,323.87,704,318.27,706,313.11,709.38,306.05,713Z"/><path class="cls-1" d="M421.91,266.2c31.84-12.32,63.59-24.69,95.45-36.74a11.55,11.55,0,0,1,8.66.84c36.21,19.86,72.29,40,109.3,60.52-34.87,14.25-69.72,28.61-104.72,42.57-2.72,1.09-7.07.45-9.61-1.2-33-21.29-65.77-42.9-98.57-64.49C422,267.39,421.94,266.32,421.91,266.2Zm168,24.47-71.37-45.5C501.08,261,474,254,457.09,272c.87,1.91,1,2.85,1.56,3.33,21.9,20,49.74,25.6,76.08,34.8,1.28.45,3-.31,4.48-.71,9-2.47,18.08-4.48,26.81-7.65C573.79,298.91,581.12,294.8,589.88,290.67Z"/><path class="cls-1" d="M440.42,789.1C479.14,777,516.44,765,554,753.81a36.55,36.55,0,0,1,20.26.33C616,767.2,657.65,781,700,794.78c-24.07,8.67-48.4,17.52-72.8,26.18-8.42,3-17.44,4.5-25.42,8.42-20.63,10.14-40.28,8.48-61.08-.42-30-12.84-60.83-23.68-91.28-35.44C446.61,792.44,444,790.86,440.42,789.1Zm202.76,1.06c-10.16-2.59-20.54-3.15-28.87-7.79C595.44,771.85,575.84,767.72,555,770c-21.14,2.31-41,9.15-62.92,21.43,23.85,10.61,44.57,20.41,65.73,29,13.8,5.61,28.41,5.9,41.66-1.86C614.16,810,628.18,800,643.18,790.16Z"/><path class="cls-1" d="M720.06,548.52c24.48-15,46.1-27.63,67.06-41.34,18.73-12.26,36.53-26.08,55.2-38.44a30.8,30.8,0,0,1,16.83-4.55c11.58.23,23.12,2.56,34.71,3,6.33.26,8.91,2.58,9.66,9.07a179.86,179.86,0,0,0,4.22,24c11.37,44.41-19.7,63.48-45.78,85.4-1.83,1.54-5.85,1.23-8.53.48C809.8,574,766.21,561.6,720.06,548.52Zm52.81-18c15,14.75,33.08,25.65,53.4,33.06,11.19,4.09,20.92,2.44,30.88-3.76,20.58-12.81,33.21-32.47,43.2-54.46,7.35-16.18-.34-29.27-17.13-30.85-22.74-2.13-41.12,8.27-59.06,21C807.61,507.21,790.73,518.38,772.87,530.55Z"/><path class="cls-1" d="M714.13,899.54c-32.56,7-63.37,13.64-94.19,20.25-4.17.89-8.49,1.2-12.53,2.51-28.31,9.15-55.2,4.32-82.12-7.11C503.56,906,481,898.9,456.21,889.93c39.1-11.71,75.26-22.6,111.5-33.22,2.73-.8,6.12-.1,9,.72q66.59,19.07,133.1,38.44C710.74,896.14,711.45,897.22,714.13,899.54Zm-88.36-3.43.69-6.65c-20-6.26-39.85-17-60-17.53-20.56-.54-41.28,9.17-60.54,20.56C546.78,916.21,586.31,918.36,625.77,896.11Z"/><path class="cls-1" d="M706.7,415.2c28.45-16.25,57-32.45,85.47-48.94,7.11-4.12,13.46-9.71,20.66-13.6,3.84-2.07,8.74-1.93,13.33-.54L771,394c31.83,30.37,71.82,38.56,106.7-26,3.27,12,6.91,22.31,8.61,33,.67,4.17-1.83,10.43-4.91,13.45A368.6,368.6,0,0,1,850,441.62c-3.31,2.58-8.76,4.34-12.67,3.5-42.76-9.1-85.41-18.78-128.07-28.37A8.21,8.21,0,0,1,706.7,415.2Z"/><path class="cls-1" d="M727.9,245.94c-10.38,5.5-21.36,10.05-31,16.7-27.89,19.19-54.21,17.59-82.38-.83-23.57-15.42-49.32-27.1-75.91-41.4,17.27-8.71,32.74-16.08,47.83-24.23,19.29-10.43,38.16-21.72,57.48-32.09,4.46-2.39,10-2.52,15.06-3.69.39,1.27.79,2.54,1.18,3.81L593.85,210c42.17,28.58,84,49.85,134.26,36.16Z"/><path class="cls-1" d="M678.22,288.68Q730.62,263.87,783,239.05c23.74-11.3,24.71-12.23,41.58,9.78,10.25,13.38,17.19,29.7,24.71,45.2,1.37,2.83-1.53,8.08-2.74,12.11-.29,1-1.7,1.61-2.6,2.38-29,24.72-29.19,25.32-64.92,15-33.9-9.84-67.43-21.1-101.13-31.73C678,290.72,678.12,289.7,678.22,288.68Zm61.4-13.86-.79,4.92c16.75-.38,27.19,10.17,37.63,21.05,17.28,18,28.85,18,46.52.81,9.55-9.31,11.27-27,4.1-42.13-6.07-12.82-15.53-18.56-30-12.89C777.37,254.35,758.74,265.26,739.62,274.82Z"/><path class="cls-1" d="M196.55,491.62c15.91,18.67,33,27.82,54.92,22.57,18-4.33,36-9.28,55.73-14.42l-77.83-62.65c.9-1.91,1.81-3.82,2.71-5.74,6.44,1.7,14,1.71,19.16,5.37,37.35,26.28,74.22,53.3,111.24,80.11,1.22.88,2.33,1.95,5,4.22-42.51,8-83.43,14.83-125.24,11.67a214.24,214.24,0,0,1-24.2-3.06c-19.32-3.71-21-6-21.5-26C196.48,500.43,196.55,497.18,196.55,491.62Z"/><path class="cls-1" d="M418.65,876.12c29.83-2.46,55.83-12.93,69.11-29.6-42.32-29.64-86.83-38.84-135.85-15.08L392,861.78l-1.2,2.29-90.17-41c38.5-9.45,74.08-18.24,109.7-26.8,2.38-.57,5.31.25,7.72,1.18q61,23.55,121.84,47.36c1,.39,1.82,1.39,4.1,3.21-37.1,10.39-72.95,20.69-109,30.2C430,879.51,424.13,876.9,418.65,876.12Z"/><path class="cls-1" d="M533,934.5c-23.06,3.5-43.21,6.41-63.3,9.66-17.91,2.89-35.75,6.25-53.65,9.16-1.69.28-3.72-.9-5.43-1.77-17.06-8.67-31.66-20.24-41.37-39.62,20-5.08,39.42-10.09,58.9-14.85a12.35,12.35,0,0,1,6.77.82C466.58,909.65,498.24,921.52,533,934.5Z"/><path class="cls-1" d="M218.28,709.63c4.78.49,10.08-.27,14.25,1.67,50.59,23.53,101,47.47,151.48,71.3,1,.48,2.05,1,2.26,4-34.53,7.88-68.81,17.76-103.72,22.49-11.06,1.5-26.77-7.83-35-17.35-11-12.7-16.76-30.43-24.77-46l3.49-2.07c4.37,8.06,7.61,17.18,13.37,23.92,8.34,9.77,17.64,19.28,28.15,26.16,9.49,6.23,20.55,4.51,30.92-1.73,8.68-5.21,18.28-8.72,28.49-13.46-5.5-2.87-11.41-6.1-17.44-9.06-28.65-14.09-57.48-27.78-85.85-42.5-3.94-2-5.62-8.95-8.35-13.61Z"/><path class="cls-1" d="M245.75,329.89l16-20.64L367.61,388.3c-38.35,8.64-74.66,17.22-111.15,24.85-14,2.93-34.11-19.45-31.5-34.38,1.45-8.25,4.48-16.2,6.8-24.29-1.44,15.53,4.33,26.63,17.5,34.14,13.76,7.86,25.76,5.06,37.81-4.06,7.36-5.57,15.47-10,23.25-15l-52.13-51.65Z"/><path class="cls-1" d="M455,206.35l-47-50.39,1.56-1.41,97,63.78C479.69,228.11,455,236.16,431,246.18c-19.08,8-34.65,6.45-50.21-8.83-12.91-12.68-28.11-22.76-43-34.57l11.77-18.13C365.87,227.16,415.37,237.08,455,206.35Z"/><path class="cls-1" d="M446.74,207.23c-20.53,12.35-43,16.23-66.87,7.44C366,209.56,357,200.37,355.35,184c-1.64-16.56,7.6-25.72,19.27-33.21a63.1,63.1,0,0,1,15.9-7.15c2.3-.7,6.36.44,7.88,2.31C414.59,166,430.43,186.43,446.74,207.23Z"/><path class="cls-1" d="M900.87,664.92c-3,7-5.16,14.47-9.13,20.71a18.76,18.76,0,0,1-11.41,7.73c-39.08,6.56-77-2.09-115-10.4-5.86-1.29-11.61-3.12-18.93-5.11,20.36-11.42,39.68-21.51,58.29-32.91,18.38-11.26,35.76-24.33,54.19-35.51,5.07-3.08,12.29-2.23,18.53-3.18.25,1.09.49,2.18.73,3.26L815.67,655C840.23,688.27,869.8,690.88,900.87,664.92Z"/><path class="cls-1" d="M441.4,963.58c14-2.05,28.08-4.14,42.12-6.16,24.92-3.58,49.81-7.38,74.79-10.46a44.34,44.34,0,0,1,17.87,1.87c22.63,6.91,45.06,14.53,67.63,21.67,3.9,1.23,8.11,1.4,12.1,3.64-71.67,3.32-143.38,8.4-214.43-5.89Z"/><path class="cls-1" d="M219.21,433l78.24,65.66c-21,4.36-41,10.89-61.27,12.16-25.84,1.61-39.87-21.14-30.71-46.47C209.56,453.06,215.09,442.31,219.21,433Z"/><path class="cls-1" d="M199.09,563.32c16.1,13.13,32,26.5,48.37,39.33,16.08,12.65,32.54,24.75,48.86,37.11-18.63,9.17-38.67,13-59.77,9-17-3.23-28.16-14.15-32.2-31.39-4-17-5.93-34.44-8.77-51.69Z"/><path class="cls-1" d="M821.24,656.08l84.12-60.29c13.24,24.16,1.27,56.87-15.47,70.92C869,684.26,850.33,682.08,821.24,656.08Z"/><path class="cls-1" d="M757.12,790.78l124.24-64.85c-4.62,10.76-7.66,21.35-13.27,30.1a390.65,390.65,0,0,1-31.33,42.25c-3.31,3.9-11,6.23-16.12,5.4C799.76,800.28,779.1,795.39,757.12,790.78Z"/><path class="cls-1" d="M749.75,906.77c-16.27,22.52-34.51,41-57.34,54-7.15,4.07-13.56,5.58-22.63,2-21.9-8.68-44.82-14.52-69-22Z"/><path class="cls-1" d="M777.14,396.07c21.79-20.19,44.58-36.57,70.51-48.05,7.46-3.31,13.85-1.34,17,5.11,3,6.14,6.27,16.37,3.55,20.54a144.05,144.05,0,0,1-28.79,32.79C826,417.42,795.67,411.52,777.14,396.07Z"/><path class="cls-1" d="M357.79,834.47c46.14-21.27,85.28-12,123.84,13.63-19.1,13.54-39.53,26.52-61.8,19.66C399,861.35,380.35,847,357.79,834.47Z"/><path class="cls-1" d="M403.61,886.74c-17.55,4.64-33.78,9.07-50.1,13.12a10.19,10.19,0,0,1-7.46-1.31c-26.14-17.84-49.49-38.85-68.31-68.35Z"/><path class="cls-1" d="M271.11,261.54c7,1.7,12.28,4.14,17.55,4a123.05,123.05,0,0,0,27.6-3.23c19-4.79,22.27-15.44,10.43-31.66-3.5-4.79-7.4-9.25-11.64-14.51,29,3.64,44.87,27.94,66.84,44.55L265.52,285C268,274.67,269.79,267.09,271.11,261.54Z"/><path class="cls-1" d="M315.31,776.45c-5,2.88-7.34,4.14-9.6,5.49-27.67,16.5-46,11.72-62.85-16.86-5.69-9.66-10.48-19.9-15.68-29.88l1.85-3.49Z"/><path class="cls-1" d="M278.78,262.19c-.83-25.1,14.36-37,27.38-50.77,6.58,8.37,12.8,15.88,18.56,23.75,7.92,10.8,6.21,18.46-6.37,21.64S292.73,260.41,278.78,262.19Z"/><path class="cls-1" d="M728.11,246.19l39.32-37.32,23.31,9.88-62.83,27.19S728.11,246.19,728.11,246.19Z"/><path class="cls-1" d="M903.65,570.07l8.43,18.6c-5.63,2.44-9.4,5-13.43,5.6-5.37.85-10.94.21-16.42.21l-.66-3Z"/><path class="cls-1" d="M792.61,202.3l-21.39-8.91c.63-8,1.18-15.08,2-25.43l21.39,31.84Z"/><path class="cls-1" d="M888.07,429.91c2.94,8,5.24,14.2,7.89,21.37l-28.86-1.79Z"/><path class="cls-1" d="M834.64,336.82l17.53-14.23c2.6,6.7,4.85,12.53,7.42,19.19Z"/><path class="cls-1" d="M256.92,323.26l45.45,44.87c-7.17,5.05-14.59,10.73-22.42,15.7-12.91,8.2-25.76,6.17-37.07-5.3-8.12-8.23-9-20.42-1.31-33.73C246.15,336.88,252.15,329.87,256.92,323.26Z"/><path class="cls-1" d="M741.71,463c-32.2,35.64-82.29,39.85-122,10.64C658.56,447.47,699,443.08,741.71,463Z"/><path class="cls-1" d="M306.28,565.63c25.29-4.66,50.24-9.8,75.38-13.44,5.31-.77,12.83,2.35,16.77,6.43,18.76,19.39,42.66,29.26,65.34,41.47,2,1.09,4.11,2.13,9,4.65-30.51,8.66-58.19,18.48-86.62,23.88-17.65,3.34-32.47-8.7-44.53-22.36C330,593.13,318.59,579.81,306.28,565.63Z"/><path class="cls-1" d="M602,539.69c-7.5,6.51-15.64,13.29-23.47,20.45-8.31,7.59-17,10.62-28.57,9.19-18.32-2.24-37.08-.59-53.85-11.24-12.54-8-25.36-15.45-41.59-25.29,26.74-9.23,50.85-19.44,75.88-25.26,10-2.31,22.6,3.59,32.84,8.5C576.81,522.53,589.2,531.71,602,539.69Z"/><path class="cls-1" d="M441.62,458.21c-19.52,17-39.75,19.87-61.71,15.59-27.46-5.35-50.76-18.38-70.49-39.47l67.2-17.63Z"/><path class="cls-1" d="M625.6,679C587.54,722.78,525.46,710.63,478.8,666c17.18-4,33.51-5.78,48.23-11.85,23.06-9.52,42.72-5.94,62.83,8.2C600.21,669.67,612.91,673.24,625.6,679Z"/><path class="cls-1" d="M637.82,608.15c36.68-33.22,93-37.28,148.77-1.31-12.08,15.68-28.89,21.73-46.47,24.46C703.33,637,666.47,640.75,637.82,608.15Z"/><path class="cls-1" d="M787.93,724.53c-14.1,19.67-32.28,32.74-54.13,37.9-24.81,5.87-39-15.72-56.24-28.4C711.15,697.84,749.15,710.78,787.93,724.53Z"/><path class="cls-1" d="M600.71,345.56c12.28-7.71,22-15.63,32.91-20.06,8.49-3.43,19.31-5.39,27.8-2.95,24,6.89,47.22,16.37,70.77,24.83-.06,1.18-.11,2.37-.17,3.55-18.62,9.43-37.29,18.79-55.87,28.32-9.93,5.09-19.91,4.2-28.81-1.48C632,368,617.21,357.05,600.71,345.56Z"/><path class="cls-1" d="M784.19,827.81c-8.81,7.93-17.11,15.78-25.79,23.14-10.85,9.2-23,10.72-36,5.55l-42.63-17C701.75,819.49,752.42,813.12,784.19,827.81Z"/><path class="cls-1" d="M449.14,333.55C430,337.85,410.69,343.43,391,346c-8.53,1.12-18-3.28-26.67-6.3-17.15-6-35.1-10.89-45.66-28.71C358.75,281.47,407.13,290,449.14,333.55Z"/><path class="cls-1" d="M442.31,397.11c15-3.53,29.95-7,44.88-10.64,8.64-2.13,18.06-3,25.55-7.46,10-5.89,16-2.06,24.64,3.18,19,11.53,39.12,20.82,59,31.14-28.72,25.37-61.4,35.9-98.13,19.85-19.46-8.51-37.59-20.41-56.32-30.78C442.06,400.64,442.19,398.87,442.31,397.11Z"/><path class="cls-1" d="M315.12,713.27c28.12-14.33,55.64-16.09,84.31-13.25,29.83,3,49.45,26,77.24,40.06-11.11,4.73-19.82,9.37-29,12.11A370.16,370.16,0,0,1,408,761.35c-3.73.68-8.37-.91-11.91-2.86C369.63,744,343.38,729.12,315.12,713.27Z"/><path class="cls-1" d="M582,291.93c-16.32,4.55-32.9,14.47-47.69,12.09-25-4-50.17-12.76-72.85-32,7.65-3.12,13.71-5.89,19.95-8.08,11.65-4.09,23.33-8.13,35.17-11.54,2.71-.78,6.61.22,9.1,1.85C543.9,266.14,561.93,278.45,582,291.93Z"/><path class="cls-1" d="M502.23,791.32c44.43-22.47,85.62-24.26,125.15,3.08-7,5-15.12,11.06-23.55,16.73-15.6,10.53-32.33,10.44-48.93,3.74C538,808.06,521.54,800,502.23,791.32Z"/><path class="cls-1" d="M780.64,531.57c16.68-11.76,32.68-23.11,48.76-34.34,17.08-11.93,34.94-21.37,56.39-17.74C896,481.22,902,490.23,897.87,500c-10.18,24.25-23.17,46.58-47.32,58-5.56,2.62-13,3.82-18.79,2.33C812.34,555.35,795.28,545,780.64,531.57Z"/><path class="cls-1" d="M517.91,891.92c33.57-17.43,67-26.11,98.33,3.23C598.51,911.58,545.77,910.6,517.91,891.92Z"/><path class="cls-1" d="M751.54,273.36C766.45,266,781.48,258,797,251.1c9.83-4.36,19.09-2.79,25.1,8,6.83,12.33,6.73,28.37-.23,36.85-14.15,17.25-27.45,17.58-43.1,1.81C770.76,289.77,762,282.66,751.54,273.36Z"/></svg>